<?xml version="1.0" encoding="utf-8" standalone="no"?>
<!DOCTYPE svg PUBLIC "-//W3C//DTD SVG 1.1//EN"
  "http://www.w3.org/Graphics/SVG/1.1/DTD/svg11.dtd">
<!-- Created with matplotlib (https://matplotlib.org/) -->
<svg height="345.6pt" version="1.1" viewBox="0 0 460.8 345.6" width="460.8pt" xmlns="http://www.w3.org/2000/svg" xmlns:xlink="http://www.w3.org/1999/xlink">
 <metadata>
  <rdf:RDF xmlns:cc="http://creativecommons.org/ns#" xmlns:dc="http://purl.org/dc/elements/1.1/" xmlns:rdf="http://www.w3.org/1999/02/22-rdf-syntax-ns#">
   <cc:Work>
    <dc:type rdf:resource="http://purl.org/dc/dcmitype/StillImage"/>
    <dc:date>2022-08-12T16:03:43.007779</dc:date>
    <dc:format>image/svg+xml</dc:format>
    <dc:creator>
     <cc:Agent>
      <dc:title>Matplotlib v3.3.2, https://matplotlib.org/</dc:title>
     </cc:Agent>
    </dc:creator>
   </cc:Work>
  </rdf:RDF>
 </metadata>
 <defs>
  <style type="text/css">*{stroke-linecap:butt;stroke-linejoin:round;}</style>
 </defs>
 <g id="figure_1">
  <g id="patch_1">
   <path d="M 0 345.6 
L 460.8 345.6 
L 460.8 0 
L 0 0 
z
" style="fill:#ffffff;"/>
  </g>
  <g id="axes_1">
   <g id="patch_2">
    <path d="M 57.6 307.584 
L 414.72 307.584 
L 414.72 41.472 
L 57.6 41.472 
z
" style="fill:#ffffff;"/>
   </g>
   <g id="matplotlib.axis_1">
    <g id="xtick_1">
     <g id="line2d_1">
      <defs>
       <path d="M 0 0 
L 0 3.5 
" id="m0423a106bf" style="stroke:#000000;stroke-width:0.8;"/>
      </defs>
      <g>
       <use style="stroke:#000000;stroke-width:0.8;" x="123.547104" xlink:href="#m0423a106bf" y="307.584"/>
      </g>
     </g>
     <g id="text_1">
      <!-- $\mathdefault{10^{2}}$ -->
      <g transform="translate(114.747104 322.182437)scale(0.1 -0.1)">
       <defs>
        <path d="M 12.40625 8.296875 
L 28.515625 8.296875 
L 28.515625 63.921875 
L 10.984375 60.40625 
L 10.984375 69.390625 
L 28.421875 72.90625 
L 38.28125 72.90625 
L 38.28125 8.296875 
L 54.390625 8.296875 
L 54.390625 0 
L 12.40625 0 
z
" id="DejaVuSans-49"/>
        <path d="M 31.78125 66.40625 
Q 24.171875 66.40625 20.328125 58.90625 
Q 16.5 51.421875 16.5 36.375 
Q 16.5 21.390625 20.328125 13.890625 
Q 24.171875 6.390625 31.78125 6.390625 
Q 39.453125 6.390625 43.28125 13.890625 
Q 47.125 21.390625 47.125 36.375 
Q 47.125 51.421875 43.28125 58.90625 
Q 39.453125 66.40625 31.78125 66.40625 
z
M 31.78125 74.21875 
Q 44.046875 74.21875 50.515625 64.515625 
Q 56.984375 54.828125 56.984375 36.375 
Q 56.984375 17.96875 50.515625 8.265625 
Q 44.046875 -1.421875 31.78125 -1.421875 
Q 19.53125 -1.421875 13.0625 8.265625 
Q 6.59375 17.96875 6.59375 36.375 
Q 6.59375 54.828125 13.0625 64.515625 
Q 19.53125 74.21875 31.78125 74.21875 
z
" id="DejaVuSans-48"/>
        <path d="M 19.1875 8.296875 
L 53.609375 8.296875 
L 53.609375 0 
L 7.328125 0 
L 7.328125 8.296875 
Q 12.9375 14.109375 22.625 23.890625 
Q 32.328125 33.6875 34.8125 36.53125 
Q 39.546875 41.84375 41.421875 45.53125 
Q 43.3125 49.21875 43.3125 52.78125 
Q 43.3125 58.59375 39.234375 62.25 
Q 35.15625 65.921875 28.609375 65.921875 
Q 23.96875 65.921875 18.8125 64.3125 
Q 13.671875 62.703125 7.8125 59.421875 
L 7.8125 69.390625 
Q 13.765625 71.78125 18.9375 73 
Q 24.125 74.21875 28.421875 74.21875 
Q 39.75 74.21875 46.484375 68.546875 
Q 53.21875 62.890625 53.21875 53.421875 
Q 53.21875 48.921875 51.53125 44.890625 
Q 49.859375 40.875 45.40625 35.40625 
Q 44.1875 33.984375 37.640625 27.21875 
Q 31.109375 20.453125 19.1875 8.296875 
z
" id="DejaVuSans-50"/>
       </defs>
       <use transform="translate(0 0.765625)" xlink:href="#DejaVuSans-49"/>
       <use transform="translate(63.623047 0.765625)" xlink:href="#DejaVuSans-48"/>
       <use transform="translate(128.203125 39.046875)scale(0.7)" xlink:href="#DejaVuSans-50"/>
      </g>
     </g>
    </g>
    <g id="xtick_2">
     <g id="line2d_2">
      <g>
       <use style="stroke:#000000;stroke-width:0.8;" x="275.376189" xlink:href="#m0423a106bf" y="307.584"/>
      </g>
     </g>
     <g id="text_2">
      <!-- $\mathdefault{10^{3}}$ -->
      <g transform="translate(266.576189 322.182437)scale(0.1 -0.1)">
       <defs>
        <path d="M 40.578125 39.3125 
Q 47.65625 37.796875 51.625 33 
Q 55.609375 28.21875 55.609375 21.1875 
Q 55.609375 10.40625 48.1875 4.484375 
Q 40.765625 -1.421875 27.09375 -1.421875 
Q 22.515625 -1.421875 17.65625 -0.515625 
Q 12.796875 0.390625 7.625 2.203125 
L 7.625 11.71875 
Q 11.71875 9.328125 16.59375 8.109375 
Q 21.484375 6.890625 26.8125 6.890625 
Q 36.078125 6.890625 40.9375 10.546875 
Q 45.796875 14.203125 45.796875 21.1875 
Q 45.796875 27.640625 41.28125 31.265625 
Q 36.765625 34.90625 28.71875 34.90625 
L 20.21875 34.90625 
L 20.21875 43.015625 
L 29.109375 43.015625 
Q 36.375 43.015625 40.234375 45.921875 
Q 44.09375 48.828125 44.09375 54.296875 
Q 44.09375 59.90625 40.109375 62.90625 
Q 36.140625 65.921875 28.71875 65.921875 
Q 24.65625 65.921875 20.015625 65.03125 
Q 15.375 64.15625 9.8125 62.3125 
L 9.8125 71.09375 
Q 15.4375 72.65625 20.34375 73.4375 
Q 25.25 74.21875 29.59375 74.21875 
Q 40.828125 74.21875 47.359375 69.109375 
Q 53.90625 64.015625 53.90625 55.328125 
Q 53.90625 49.265625 50.4375 45.09375 
Q 46.96875 40.921875 40.578125 39.3125 
z
" id="DejaVuSans-51"/>
       </defs>
       <use transform="translate(0 0.765625)" xlink:href="#DejaVuSans-49"/>
       <use transform="translate(63.623047 0.765625)" xlink:href="#DejaVuSans-48"/>
       <use transform="translate(128.203125 39.046875)scale(0.7)" xlink:href="#DejaVuSans-51"/>
      </g>
     </g>
    </g>
    <g id="xtick_3">
     <g id="line2d_3">
      <defs>
       <path d="M 0 0 
L 0 2 
" id="m6348e4cdae" style="stroke:#000000;stroke-width:0.6;"/>
      </defs>
      <g>
       <use style="stroke:#000000;stroke-width:0.6;" x="63.128236" xlink:href="#m6348e4cdae" y="307.584"/>
      </g>
     </g>
    </g>
    <g id="xtick_4">
     <g id="line2d_4">
      <g>
       <use style="stroke:#000000;stroke-width:0.6;" x="77.841995" xlink:href="#m6348e4cdae" y="307.584"/>
      </g>
     </g>
    </g>
    <g id="xtick_5">
     <g id="line2d_5">
      <g>
       <use style="stroke:#000000;stroke-width:0.6;" x="89.864011" xlink:href="#m6348e4cdae" y="307.584"/>
      </g>
     </g>
    </g>
    <g id="xtick_6">
     <g id="line2d_6">
      <g>
       <use style="stroke:#000000;stroke-width:0.6;" x="100.028481" xlink:href="#m6348e4cdae" y="307.584"/>
      </g>
     </g>
    </g>
    <g id="xtick_7">
     <g id="line2d_7">
      <g>
       <use style="stroke:#000000;stroke-width:0.6;" x="108.833345" xlink:href="#m6348e4cdae" y="307.584"/>
      </g>
     </g>
    </g>
    <g id="xtick_8">
     <g id="line2d_8">
      <g>
       <use style="stroke:#000000;stroke-width:0.6;" x="116.599786" xlink:href="#m6348e4cdae" y="307.584"/>
      </g>
     </g>
    </g>
    <g id="xtick_9">
     <g id="line2d_9">
      <g>
       <use style="stroke:#000000;stroke-width:0.6;" x="169.252212" xlink:href="#m6348e4cdae" y="307.584"/>
      </g>
     </g>
    </g>
    <g id="xtick_10">
     <g id="line2d_10">
      <g>
       <use style="stroke:#000000;stroke-width:0.6;" x="195.987987" xlink:href="#m6348e4cdae" y="307.584"/>
      </g>
     </g>
    </g>
    <g id="xtick_11">
     <g id="line2d_11">
      <g>
       <use style="stroke:#000000;stroke-width:0.6;" x="214.957321" xlink:href="#m6348e4cdae" y="307.584"/>
      </g>
     </g>
    </g>
    <g id="xtick_12">
     <g id="line2d_12">
      <g>
       <use style="stroke:#000000;stroke-width:0.6;" x="229.67108" xlink:href="#m6348e4cdae" y="307.584"/>
      </g>
     </g>
    </g>
    <g id="xtick_13">
     <g id="line2d_13">
      <g>
       <use style="stroke:#000000;stroke-width:0.6;" x="241.693096" xlink:href="#m6348e4cdae" y="307.584"/>
      </g>
     </g>
    </g>
    <g id="xtick_14">
     <g id="line2d_14">
      <g>
       <use style="stroke:#000000;stroke-width:0.6;" x="251.857566" xlink:href="#m6348e4cdae" y="307.584"/>
      </g>
     </g>
    </g>
    <g id="xtick_15">
     <g id="line2d_15">
      <g>
       <use style="stroke:#000000;stroke-width:0.6;" x="260.66243" xlink:href="#m6348e4cdae" y="307.584"/>
      </g>
     </g>
    </g>
    <g id="xtick_16">
     <g id="line2d_16">
      <g>
       <use style="stroke:#000000;stroke-width:0.6;" x="268.428871" xlink:href="#m6348e4cdae" y="307.584"/>
      </g>
     </g>
    </g>
    <g id="xtick_17">
     <g id="line2d_17">
      <g>
       <use style="stroke:#000000;stroke-width:0.6;" x="321.081297" xlink:href="#m6348e4cdae" y="307.584"/>
      </g>
     </g>
    </g>
    <g id="xtick_18">
     <g id="line2d_18">
      <g>
       <use style="stroke:#000000;stroke-width:0.6;" x="347.817072" xlink:href="#m6348e4cdae" y="307.584"/>
      </g>
     </g>
    </g>
    <g id="xtick_19">
     <g id="line2d_19">
      <g>
       <use style="stroke:#000000;stroke-width:0.6;" x="366.786406" xlink:href="#m6348e4cdae" y="307.584"/>
      </g>
     </g>
    </g>
    <g id="xtick_20">
     <g id="line2d_20">
      <g>
       <use style="stroke:#000000;stroke-width:0.6;" x="381.500165" xlink:href="#m6348e4cdae" y="307.584"/>
      </g>
     </g>
    </g>
    <g id="xtick_21">
     <g id="line2d_21">
      <g>
       <use style="stroke:#000000;stroke-width:0.6;" x="393.522181" xlink:href="#m6348e4cdae" y="307.584"/>
      </g>
     </g>
    </g>
    <g id="xtick_22">
     <g id="line2d_22">
      <g>
       <use style="stroke:#000000;stroke-width:0.6;" x="403.686651" xlink:href="#m6348e4cdae" y="307.584"/>
      </g>
     </g>
    </g>
    <g id="xtick_23">
     <g id="line2d_23">
      <g>
       <use style="stroke:#000000;stroke-width:0.6;" x="412.491515" xlink:href="#m6348e4cdae" y="307.584"/>
      </g>
     </g>
    </g>
    <g id="text_3">
     <!-- Execution time (s) -->
     <g transform="translate(190.645156 335.860562)scale(0.1 -0.1)">
      <defs>
       <path d="M 9.8125 72.90625 
L 55.90625 72.90625 
L 55.90625 64.59375 
L 19.671875 64.59375 
L 19.671875 43.015625 
L 54.390625 43.015625 
L 54.390625 34.71875 
L 19.671875 34.71875 
L 19.671875 8.296875 
L 56.78125 8.296875 
L 56.78125 0 
L 9.8125 0 
z
" id="DejaVuSans-69"/>
       <path d="M 54.890625 54.6875 
L 35.109375 28.078125 
L 55.90625 0 
L 45.3125 0 
L 29.390625 21.484375 
L 13.484375 0 
L 2.875 0 
L 24.125 28.609375 
L 4.6875 54.6875 
L 15.28125 54.6875 
L 29.78125 35.203125 
L 44.28125 54.6875 
z
" id="DejaVuSans-120"/>
       <path d="M 56.203125 29.59375 
L 56.203125 25.203125 
L 14.890625 25.203125 
Q 15.484375 15.921875 20.484375 11.0625 
Q 25.484375 6.203125 34.421875 6.203125 
Q 39.59375 6.203125 44.453125 7.46875 
Q 49.3125 8.734375 54.109375 11.28125 
L 54.109375 2.78125 
Q 49.265625 0.734375 44.1875 -0.34375 
Q 39.109375 -1.421875 33.890625 -1.421875 
Q 20.796875 -1.421875 13.15625 6.1875 
Q 5.515625 13.8125 5.515625 26.8125 
Q 5.515625 40.234375 12.765625 48.109375 
Q 20.015625 56 32.328125 56 
Q 43.359375 56 49.78125 48.890625 
Q 56.203125 41.796875 56.203125 29.59375 
z
M 47.21875 32.234375 
Q 47.125 39.59375 43.09375 43.984375 
Q 39.0625 48.390625 32.421875 48.390625 
Q 24.90625 48.390625 20.390625 44.140625 
Q 15.875 39.890625 15.1875 32.171875 
z
" id="DejaVuSans-101"/>
       <path d="M 48.78125 52.59375 
L 48.78125 44.1875 
Q 44.96875 46.296875 41.140625 47.34375 
Q 37.3125 48.390625 33.40625 48.390625 
Q 24.65625 48.390625 19.8125 42.84375 
Q 14.984375 37.3125 14.984375 27.296875 
Q 14.984375 17.28125 19.8125 11.734375 
Q 24.65625 6.203125 33.40625 6.203125 
Q 37.3125 6.203125 41.140625 7.25 
Q 44.96875 8.296875 48.78125 10.40625 
L 48.78125 2.09375 
Q 45.015625 0.34375 40.984375 -0.53125 
Q 36.96875 -1.421875 32.421875 -1.421875 
Q 20.0625 -1.421875 12.78125 6.34375 
Q 5.515625 14.109375 5.515625 27.296875 
Q 5.515625 40.671875 12.859375 48.328125 
Q 20.21875 56 33.015625 56 
Q 37.15625 56 41.109375 55.140625 
Q 45.0625 54.296875 48.78125 52.59375 
z
" id="DejaVuSans-99"/>
       <path d="M 8.5 21.578125 
L 8.5 54.6875 
L 17.484375 54.6875 
L 17.484375 21.921875 
Q 17.484375 14.15625 20.5 10.265625 
Q 23.53125 6.390625 29.59375 6.390625 
Q 36.859375 6.390625 41.078125 11.03125 
Q 45.3125 15.671875 45.3125 23.6875 
L 45.3125 54.6875 
L 54.296875 54.6875 
L 54.296875 0 
L 45.3125 0 
L 45.3125 8.40625 
Q 42.046875 3.421875 37.71875 1 
Q 33.40625 -1.421875 27.6875 -1.421875 
Q 18.265625 -1.421875 13.375 4.4375 
Q 8.5 10.296875 8.5 21.578125 
z
M 31.109375 56 
z
" id="DejaVuSans-117"/>
       <path d="M 18.3125 70.21875 
L 18.3125 54.6875 
L 36.8125 54.6875 
L 36.8125 47.703125 
L 18.3125 47.703125 
L 18.3125 18.015625 
Q 18.3125 11.328125 20.140625 9.421875 
Q 21.96875 7.515625 27.59375 7.515625 
L 36.8125 7.515625 
L 36.8125 0 
L 27.59375 0 
Q 17.1875 0 13.234375 3.875 
Q 9.28125 7.765625 9.28125 18.015625 
L 9.28125 47.703125 
L 2.6875 47.703125 
L 2.6875 54.6875 
L 9.28125 54.6875 
L 9.28125 70.21875 
z
" id="DejaVuSans-116"/>
       <path d="M 9.421875 54.6875 
L 18.40625 54.6875 
L 18.40625 0 
L 9.421875 0 
z
M 9.421875 75.984375 
L 18.40625 75.984375 
L 18.40625 64.59375 
L 9.421875 64.59375 
z
" id="DejaVuSans-105"/>
       <path d="M 30.609375 48.390625 
Q 23.390625 48.390625 19.1875 42.75 
Q 14.984375 37.109375 14.984375 27.296875 
Q 14.984375 17.484375 19.15625 11.84375 
Q 23.34375 6.203125 30.609375 6.203125 
Q 37.796875 6.203125 41.984375 11.859375 
Q 46.1875 17.53125 46.1875 27.296875 
Q 46.1875 37.015625 41.984375 42.703125 
Q 37.796875 48.390625 30.609375 48.390625 
z
M 30.609375 56 
Q 42.328125 56 49.015625 48.375 
Q 55.71875 40.765625 55.71875 27.296875 
Q 55.71875 13.875 49.015625 6.21875 
Q 42.328125 -1.421875 30.609375 -1.421875 
Q 18.84375 -1.421875 12.171875 6.21875 
Q 5.515625 13.875 5.515625 27.296875 
Q 5.515625 40.765625 12.171875 48.375 
Q 18.84375 56 30.609375 56 
z
" id="DejaVuSans-111"/>
       <path d="M 54.890625 33.015625 
L 54.890625 0 
L 45.90625 0 
L 45.90625 32.71875 
Q 45.90625 40.484375 42.875 44.328125 
Q 39.84375 48.1875 33.796875 48.1875 
Q 26.515625 48.1875 22.3125 43.546875 
Q 18.109375 38.921875 18.109375 30.90625 
L 18.109375 0 
L 9.078125 0 
L 9.078125 54.6875 
L 18.109375 54.6875 
L 18.109375 46.1875 
Q 21.34375 51.125 25.703125 53.5625 
Q 30.078125 56 35.796875 56 
Q 45.21875 56 50.046875 50.171875 
Q 54.890625 44.34375 54.890625 33.015625 
z
" id="DejaVuSans-110"/>
       <path id="DejaVuSans-32"/>
       <path d="M 52 44.1875 
Q 55.375 50.25 60.0625 53.125 
Q 64.75 56 71.09375 56 
Q 79.640625 56 84.28125 50.015625 
Q 88.921875 44.046875 88.921875 33.015625 
L 88.921875 0 
L 79.890625 0 
L 79.890625 32.71875 
Q 79.890625 40.578125 77.09375 44.375 
Q 74.3125 48.1875 68.609375 48.1875 
Q 61.625 48.1875 57.5625 43.546875 
Q 53.515625 38.921875 53.515625 30.90625 
L 53.515625 0 
L 44.484375 0 
L 44.484375 32.71875 
Q 44.484375 40.625 41.703125 44.40625 
Q 38.921875 48.1875 33.109375 48.1875 
Q 26.21875 48.1875 22.15625 43.53125 
Q 18.109375 38.875 18.109375 30.90625 
L 18.109375 0 
L 9.078125 0 
L 9.078125 54.6875 
L 18.109375 54.6875 
L 18.109375 46.1875 
Q 21.1875 51.21875 25.484375 53.609375 
Q 29.78125 56 35.6875 56 
Q 41.65625 56 45.828125 52.96875 
Q 50 49.953125 52 44.1875 
z
" id="DejaVuSans-109"/>
       <path d="M 31 75.875 
Q 24.46875 64.65625 21.28125 53.65625 
Q 18.109375 42.671875 18.109375 31.390625 
Q 18.109375 20.125 21.3125 9.0625 
Q 24.515625 -2 31 -13.1875 
L 23.1875 -13.1875 
Q 15.875 -1.703125 12.234375 9.375 
Q 8.59375 20.453125 8.59375 31.390625 
Q 8.59375 42.28125 12.203125 53.3125 
Q 15.828125 64.359375 23.1875 75.875 
z
" id="DejaVuSans-40"/>
       <path d="M 44.28125 53.078125 
L 44.28125 44.578125 
Q 40.484375 46.53125 36.375 47.5 
Q 32.28125 48.484375 27.875 48.484375 
Q 21.1875 48.484375 17.84375 46.4375 
Q 14.5 44.390625 14.5 40.28125 
Q 14.5 37.15625 16.890625 35.375 
Q 19.28125 33.59375 26.515625 31.984375 
L 29.59375 31.296875 
Q 39.15625 29.25 43.1875 25.515625 
Q 47.21875 21.78125 47.21875 15.09375 
Q 47.21875 7.46875 41.1875 3.015625 
Q 35.15625 -1.421875 24.609375 -1.421875 
Q 20.21875 -1.421875 15.453125 -0.5625 
Q 10.6875 0.296875 5.421875 2 
L 5.421875 11.28125 
Q 10.40625 8.6875 15.234375 7.390625 
Q 20.0625 6.109375 24.8125 6.109375 
Q 31.15625 6.109375 34.5625 8.28125 
Q 37.984375 10.453125 37.984375 14.40625 
Q 37.984375 18.0625 35.515625 20.015625 
Q 33.0625 21.96875 24.703125 23.78125 
L 21.578125 24.515625 
Q 13.234375 26.265625 9.515625 29.90625 
Q 5.8125 33.546875 5.8125 39.890625 
Q 5.8125 47.609375 11.28125 51.796875 
Q 16.75 56 26.8125 56 
Q 31.78125 56 36.171875 55.265625 
Q 40.578125 54.546875 44.28125 53.078125 
z
" id="DejaVuSans-115"/>
       <path d="M 8.015625 75.875 
L 15.828125 75.875 
Q 23.140625 64.359375 26.78125 53.3125 
Q 30.421875 42.28125 30.421875 31.390625 
Q 30.421875 20.453125 26.78125 9.375 
Q 23.140625 -1.703125 15.828125 -13.1875 
L 8.015625 -13.1875 
Q 14.5 -2 17.703125 9.0625 
Q 20.90625 20.125 20.90625 31.390625 
Q 20.90625 42.671875 17.703125 53.65625 
Q 14.5 64.65625 8.015625 75.875 
z
" id="DejaVuSans-41"/>
      </defs>
      <use xlink:href="#DejaVuSans-69"/>
      <use x="63.183594" xlink:href="#DejaVuSans-120"/>
      <use x="119.238281" xlink:href="#DejaVuSans-101"/>
      <use x="180.761719" xlink:href="#DejaVuSans-99"/>
      <use x="235.742188" xlink:href="#DejaVuSans-117"/>
      <use x="299.121094" xlink:href="#DejaVuSans-116"/>
      <use x="338.330078" xlink:href="#DejaVuSans-105"/>
      <use x="366.113281" xlink:href="#DejaVuSans-111"/>
      <use x="427.294922" xlink:href="#DejaVuSans-110"/>
      <use x="490.673828" xlink:href="#DejaVuSans-32"/>
      <use x="522.460938" xlink:href="#DejaVuSans-116"/>
      <use x="561.669922" xlink:href="#DejaVuSans-105"/>
      <use x="589.453125" xlink:href="#DejaVuSans-109"/>
      <use x="686.865234" xlink:href="#DejaVuSans-101"/>
      <use x="748.388672" xlink:href="#DejaVuSans-32"/>
      <use x="780.175781" xlink:href="#DejaVuSans-40"/>
      <use x="819.189453" xlink:href="#DejaVuSans-115"/>
      <use x="871.289062" xlink:href="#DejaVuSans-41"/>
     </g>
    </g>
   </g>
   <g id="matplotlib.axis_2">
    <g id="ytick_1">
     <g id="line2d_24">
      <defs>
       <path d="M 0 0 
L -3.5 0 
" id="m37bc4d2611" style="stroke:#000000;stroke-width:0.8;"/>
      </defs>
      <g>
       <use style="stroke:#000000;stroke-width:0.8;" x="57.6" xlink:href="#m37bc4d2611" y="279.28669"/>
      </g>
     </g>
     <g id="text_4">
      <!-- 2000 -->
      <g transform="translate(25.15 283.085909)scale(0.1 -0.1)">
       <use xlink:href="#DejaVuSans-50"/>
       <use x="63.623047" xlink:href="#DejaVuSans-48"/>
       <use x="127.246094" xlink:href="#DejaVuSans-48"/>
       <use x="190.869141" xlink:href="#DejaVuSans-48"/>
      </g>
     </g>
    </g>
    <g id="ytick_2">
     <g id="line2d_25">
      <g>
       <use style="stroke:#000000;stroke-width:0.8;" x="57.6" xlink:href="#m37bc4d2611" y="239.58273"/>
      </g>
     </g>
     <g id="text_5">
      <!-- 3000 -->
      <g transform="translate(25.15 243.381948)scale(0.1 -0.1)">
       <use xlink:href="#DejaVuSans-51"/>
       <use x="63.623047" xlink:href="#DejaVuSans-48"/>
       <use x="127.246094" xlink:href="#DejaVuSans-48"/>
       <use x="190.869141" xlink:href="#DejaVuSans-48"/>
      </g>
     </g>
    </g>
    <g id="ytick_3">
     <g id="line2d_26">
      <g>
       <use style="stroke:#000000;stroke-width:0.8;" x="57.6" xlink:href="#m37bc4d2611" y="199.878769"/>
      </g>
     </g>
     <g id="text_6">
      <!-- 4000 -->
      <g transform="translate(25.15 203.677988)scale(0.1 -0.1)">
       <defs>
        <path d="M 37.796875 64.3125 
L 12.890625 25.390625 
L 37.796875 25.390625 
z
M 35.203125 72.90625 
L 47.609375 72.90625 
L 47.609375 25.390625 
L 58.015625 25.390625 
L 58.015625 17.1875 
L 47.609375 17.1875 
L 47.609375 0 
L 37.796875 0 
L 37.796875 17.1875 
L 4.890625 17.1875 
L 4.890625 26.703125 
z
" id="DejaVuSans-52"/>
       </defs>
       <use xlink:href="#DejaVuSans-52"/>
       <use x="63.623047" xlink:href="#DejaVuSans-48"/>
       <use x="127.246094" xlink:href="#DejaVuSans-48"/>
       <use x="190.869141" xlink:href="#DejaVuSans-48"/>
      </g>
     </g>
    </g>
    <g id="ytick_4">
     <g id="line2d_27">
      <g>
       <use style="stroke:#000000;stroke-width:0.8;" x="57.6" xlink:href="#m37bc4d2611" y="160.174809"/>
      </g>
     </g>
     <g id="text_7">
      <!-- 5000 -->
      <g transform="translate(25.15 163.974027)scale(0.1 -0.1)">
       <defs>
        <path d="M 10.796875 72.90625 
L 49.515625 72.90625 
L 49.515625 64.59375 
L 19.828125 64.59375 
L 19.828125 46.734375 
Q 21.96875 47.46875 24.109375 47.828125 
Q 26.265625 48.1875 28.421875 48.1875 
Q 40.625 48.1875 47.75 41.5 
Q 54.890625 34.8125 54.890625 23.390625 
Q 54.890625 11.625 47.5625 5.09375 
Q 40.234375 -1.421875 26.90625 -1.421875 
Q 22.3125 -1.421875 17.546875 -0.640625 
Q 12.796875 0.140625 7.71875 1.703125 
L 7.71875 11.625 
Q 12.109375 9.234375 16.796875 8.0625 
Q 21.484375 6.890625 26.703125 6.890625 
Q 35.15625 6.890625 40.078125 11.328125 
Q 45.015625 15.765625 45.015625 23.390625 
Q 45.015625 31 40.078125 35.4375 
Q 35.15625 39.890625 26.703125 39.890625 
Q 22.75 39.890625 18.8125 39.015625 
Q 14.890625 38.140625 10.796875 36.28125 
z
" id="DejaVuSans-53"/>
       </defs>
       <use xlink:href="#DejaVuSans-53"/>
       <use x="63.623047" xlink:href="#DejaVuSans-48"/>
       <use x="127.246094" xlink:href="#DejaVuSans-48"/>
       <use x="190.869141" xlink:href="#DejaVuSans-48"/>
      </g>
     </g>
    </g>
    <g id="ytick_5">
     <g id="line2d_28">
      <g>
       <use style="stroke:#000000;stroke-width:0.8;" x="57.6" xlink:href="#m37bc4d2611" y="120.470848"/>
      </g>
     </g>
     <g id="text_8">
      <!-- 6000 -->
      <g transform="translate(25.15 124.270067)scale(0.1 -0.1)">
       <defs>
        <path d="M 33.015625 40.375 
Q 26.375 40.375 22.484375 35.828125 
Q 18.609375 31.296875 18.609375 23.390625 
Q 18.609375 15.53125 22.484375 10.953125 
Q 26.375 6.390625 33.015625 6.390625 
Q 39.65625 6.390625 43.53125 10.953125 
Q 47.40625 15.53125 47.40625 23.390625 
Q 47.40625 31.296875 43.53125 35.828125 
Q 39.65625 40.375 33.015625 40.375 
z
M 52.59375 71.296875 
L 52.59375 62.3125 
Q 48.875 64.0625 45.09375 64.984375 
Q 41.3125 65.921875 37.59375 65.921875 
Q 27.828125 65.921875 22.671875 59.328125 
Q 17.53125 52.734375 16.796875 39.40625 
Q 19.671875 43.65625 24.015625 45.921875 
Q 28.375 48.1875 33.59375 48.1875 
Q 44.578125 48.1875 50.953125 41.515625 
Q 57.328125 34.859375 57.328125 23.390625 
Q 57.328125 12.15625 50.6875 5.359375 
Q 44.046875 -1.421875 33.015625 -1.421875 
Q 20.359375 -1.421875 13.671875 8.265625 
Q 6.984375 17.96875 6.984375 36.375 
Q 6.984375 53.65625 15.1875 63.9375 
Q 23.390625 74.21875 37.203125 74.21875 
Q 40.921875 74.21875 44.703125 73.484375 
Q 48.484375 72.75 52.59375 71.296875 
z
" id="DejaVuSans-54"/>
       </defs>
       <use xlink:href="#DejaVuSans-54"/>
       <use x="63.623047" xlink:href="#DejaVuSans-48"/>
       <use x="127.246094" xlink:href="#DejaVuSans-48"/>
       <use x="190.869141" xlink:href="#DejaVuSans-48"/>
      </g>
     </g>
    </g>
    <g id="ytick_6">
     <g id="line2d_29">
      <g>
       <use style="stroke:#000000;stroke-width:0.8;" x="57.6" xlink:href="#m37bc4d2611" y="80.766888"/>
      </g>
     </g>
     <g id="text_9">
      <!-- 7000 -->
      <g transform="translate(25.15 84.566106)scale(0.1 -0.1)">
       <defs>
        <path d="M 8.203125 72.90625 
L 55.078125 72.90625 
L 55.078125 68.703125 
L 28.609375 0 
L 18.3125 0 
L 43.21875 64.59375 
L 8.203125 64.59375 
z
" id="DejaVuSans-55"/>
       </defs>
       <use xlink:href="#DejaVuSans-55"/>
       <use x="63.623047" xlink:href="#DejaVuSans-48"/>
       <use x="127.246094" xlink:href="#DejaVuSans-48"/>
       <use x="190.869141" xlink:href="#DejaVuSans-48"/>
      </g>
     </g>
    </g>
    <g id="text_10">
     <!-- Memory (MB) -->
     <g transform="translate(19.070312 208.098312)rotate(-90)scale(0.1 -0.1)">
      <defs>
       <path d="M 9.8125 72.90625 
L 24.515625 72.90625 
L 43.109375 23.296875 
L 61.8125 72.90625 
L 76.515625 72.90625 
L 76.515625 0 
L 66.890625 0 
L 66.890625 64.015625 
L 48.09375 14.015625 
L 38.1875 14.015625 
L 19.390625 64.015625 
L 19.390625 0 
L 9.8125 0 
z
" id="DejaVuSans-77"/>
       <path d="M 41.109375 46.296875 
Q 39.59375 47.171875 37.8125 47.578125 
Q 36.03125 48 33.890625 48 
Q 26.265625 48 22.1875 43.046875 
Q 18.109375 38.09375 18.109375 28.8125 
L 18.109375 0 
L 9.078125 0 
L 9.078125 54.6875 
L 18.109375 54.6875 
L 18.109375 46.1875 
Q 20.953125 51.171875 25.484375 53.578125 
Q 30.03125 56 36.53125 56 
Q 37.453125 56 38.578125 55.875 
Q 39.703125 55.765625 41.0625 55.515625 
z
" id="DejaVuSans-114"/>
       <path d="M 32.171875 -5.078125 
Q 28.375 -14.84375 24.75 -17.8125 
Q 21.140625 -20.796875 15.09375 -20.796875 
L 7.90625 -20.796875 
L 7.90625 -13.28125 
L 13.1875 -13.28125 
Q 16.890625 -13.28125 18.9375 -11.515625 
Q 21 -9.765625 23.484375 -3.21875 
L 25.09375 0.875 
L 2.984375 54.6875 
L 12.5 54.6875 
L 29.59375 11.921875 
L 46.6875 54.6875 
L 56.203125 54.6875 
z
" id="DejaVuSans-121"/>
       <path d="M 19.671875 34.8125 
L 19.671875 8.109375 
L 35.5 8.109375 
Q 43.453125 8.109375 47.28125 11.40625 
Q 51.125 14.703125 51.125 21.484375 
Q 51.125 28.328125 47.28125 31.5625 
Q 43.453125 34.8125 35.5 34.8125 
z
M 19.671875 64.796875 
L 19.671875 42.828125 
L 34.28125 42.828125 
Q 41.5 42.828125 45.03125 45.53125 
Q 48.578125 48.25 48.578125 53.8125 
Q 48.578125 59.328125 45.03125 62.0625 
Q 41.5 64.796875 34.28125 64.796875 
z
M 9.8125 72.90625 
L 35.015625 72.90625 
Q 46.296875 72.90625 52.390625 68.21875 
Q 58.5 63.53125 58.5 54.890625 
Q 58.5 48.1875 55.375 44.234375 
Q 52.25 40.28125 46.1875 39.3125 
Q 53.46875 37.75 57.5 32.78125 
Q 61.53125 27.828125 61.53125 20.40625 
Q 61.53125 10.640625 54.890625 5.3125 
Q 48.25 0 35.984375 0 
L 9.8125 0 
z
" id="DejaVuSans-66"/>
      </defs>
      <use xlink:href="#DejaVuSans-77"/>
      <use x="86.279297" xlink:href="#DejaVuSans-101"/>
      <use x="147.802734" xlink:href="#DejaVuSans-109"/>
      <use x="245.214844" xlink:href="#DejaVuSans-111"/>
      <use x="306.396484" xlink:href="#DejaVuSans-114"/>
      <use x="347.509766" xlink:href="#DejaVuSans-121"/>
      <use x="406.689453" xlink:href="#DejaVuSans-32"/>
      <use x="438.476562" xlink:href="#DejaVuSans-40"/>
      <use x="477.490234" xlink:href="#DejaVuSans-77"/>
      <use x="563.769531" xlink:href="#DejaVuSans-66"/>
      <use x="632.373047" xlink:href="#DejaVuSans-41"/>
     </g>
    </g>
   </g>
   <g id="line2d_30">
    <path clip-path="url(#pde144714a3)" d="M 73.832727 295.488 
L 119.675297 294.003212 
L 143.590557 292.293184 
L 145.726195 292.258219 
L 147.773772 291.389789 
L 153.50693 291.375315 
L 154.584897 291.010867 
L 156.110758 290.004854 
L 159.057668 288.448997 
L 160.708067 287.995267 
L 161.944729 287.443147 
L 163.3366 285.882737 
L 164.751072 285.304108 
L 166.22953 284.331271 
L 168.884883 282.997726 
L 171.431747 282.931374 
L 173.940112 282.537978 
L 175.337305 282.201177 
L 176.700703 281.326567 
L 178.200552 280.93187 
L 180.569303 279.469849 
L 181.6803 278.738677 
L 182.687295 278.27096 
L 183.742502 276.68144 
L 185.038457 276.129482 
L 186.068364 275.850413 
L 187.482686 273.710399 
L 190.052268 273.593145 
L 192.126547 273.469385 
L 195.582438 271.96931 
L 196.593312 271.270337 
L 197.583711 270.42874 
L 198.470161 268.919558 
L 200.427945 268.230343 
L 201.432771 267.510066 
L 202.338564 266.722787 
L 205.489275 264.474951 
L 208.752294 264.179457 
L 210.351069 263.649942 
L 211.837433 263.6127 
L 212.44311 263.178322 
L 213.064383 262.399825 
L 215.198855 260.47578 
L 215.919277 258.435944 
L 216.999969 258.621827 
L 219.364249 256.744781 
L 220.755886 256.364558 
L 221.371607 254.868386 
L 222.132036 254.054436 
L 224.938948 251.717805 
L 226.132504 251.223906 
L 227.067274 250.683332 
L 227.76636 249.988425 
L 228.578205 249.961754 
L 229.351609 249.556324 
L 230.183836 247.797508 
L 231.236637 248.486073 
L 231.824855 247.990872 
L 232.426532 246.874273 
L 233.645674 245.594395 
L 234.232094 244.791666 
L 234.84615 243.497477 
L 235.437268 243.219709 
L 238.440586 241.675724 
L 239.666748 240.025869 
L 240.336665 239.482531 
L 241.57573 237.829911 
L 242.540781 237.603534 
L 243.103908 237.16444 
L 243.80205 237.81869 
L 244.332105 236.530681 
L 244.96488 235.822926 
L 245.602886 234.706326 
L 246.358227 236.346261 
L 247.000149 235.439288 
L 247.449585 235.294224 
L 248.773509 233.53118 
L 249.949805 232.732029 
L 250.880094 230.9563 
L 253.255206 228.195863 
L 253.680977 227.232295 
L 254.125537 226.613335 
L 255.011075 226.903137 
L 260.568031 226.899885 
L 261.766068 226.535437 
L 266.775948 226.502261 
L 268.394946 227.445987 
L 270.196816 227.361096 
L 271.824694 224.755479 
L 288.737475 224.431038 
L 289.299191 225.732545 
L 292.226198 225.597076 
L 292.662185 225.526333 
L 306.615212 225.067887 
L 307.647962 226.24905 
L 310.002635 226.218476 
L 310.423552 225.961362 
L 310.934179 225.838578 
L 312.200233 225.325163 
L 312.532447 224.940224 
L 313.136024 223.364364 
L 313.440619 223.100258 
L 314.179222 220.972278 
L 314.422536 220.864456 
L 314.98522 219.52717 
L 315.274068 219.004974 
L 315.549506 217.449605 
L 315.795476 217.147118 
L 316.335248 215.663143 
L 316.570744 215.222097 
L 316.816134 214.027761 
L 317.26475 212.930026 
L 317.589584 211.635349 
L 318.328645 209.608199 
L 320.077563 207.183586 
L 320.613181 205.774095 
L 321.953525 201.109777 
L 322.962438 199.220535 
L 323.251289 198.287704 
L 323.570059 195.685828 
L 324.224839 196.533604 
L 325.296575 195.62533 
L 326.076602 193.559799 
L 326.671827 191.301718 
L 326.901345 191.044278 
L 327.366997 189.384178 
L 327.834793 188.46826 
L 328.517479 186.542589 
L 330.111688 183.533819 
L 330.785448 181.975685 
L 331.100816 181.708326 
L 331.643501 180.665396 
L 331.975199 180.17605 
L 332.533376 178.592872 
L 332.721018 177.946916 
L 333.009765 175.87488 
L 333.4188 175.221443 
L 333.804446 173.044187 
L 334.703732 171.146976 
L 335.415268 170.37108 
L 335.961114 169.95573 
L 336.432799 167.99298 
L 336.668754 167.763838 
L 336.944681 167.104709 
L 337.320463 167.042748 
L 337.906878 163.868423 
L 338.132816 163.748567 
L 338.542195 162.957222 
L 339.169676 163.092528 
L 339.491219 162.73182 
L 340.145128 160.783869 
L 341.257604 158.914466 
L 342.144647 155.19225 
L 342.568245 153.926358 
L 342.838909 151.272766 
L 343.084792 150.906692 
L 343.454073 150.916938 
L 344.063068 150.500611 
L 344.393258 150.302531 
L 344.914156 149.232768 
L 345.191578 148.218461 
L 348.236022 146.367273 
L 348.49066 146.07991 
L 348.790391 144.920214 
L 349.064886 144.597561 
L 350.431117 140.185642 
L 351.327953 137.332994 
L 351.530945 136.968709 
L 352.021339 135.476928 
L 352.96058 134.578736 
L 353.229929 134.256084 
L 353.510165 134.102726 
L 353.961868 133.109723 
L 354.373465 131.748531 
L 354.618371 128.350269 
L 354.834942 127.781561 
L 355.663891 127.342304 
L 356.129568 125.336295 
L 356.554144 125.029579 
L 356.895286 123.953636 
L 357.394699 121.409656 
L 357.56158 120.612944 
L 358.018499 119.824689 
L 358.173892 119.726624 
L 358.326676 119.498458 
L 359.89443 112.713479 
L 360.228328 110.096479 
L 360.666326 109.321884 
L 361.628138 105.71676 
L 361.802203 105.452165 
L 362.891997 102.496249 
L 363.029112 102.496086 
L 363.218184 102.200755 
L 363.746894 100.336882 
L 364.608489 97.104174 
L 364.813775 96.133288 
L 365.416799 94.864957 
L 366.782451 89.876524 
L 367.022523 88.885472 
L 367.548005 88.368967 
L 368.020766 86.458908 
L 368.178573 86.4485 
L 368.345465 86.20895 
L 368.614538 85.41175 
L 368.959582 83.408831 
L 369.541539 82.527716 
L 370.328397 79.295983 
L 370.694429 77.717359 
L 371.377456 75.03791 
L 371.700401 73.360896 
L 372.13426 71.625011 
L 372.373797 70.820818 
L 372.6971 70.40872 
L 372.943378 69.503861 
L 373.184029 69.094365 
L 373.843521 66.816768 
L 376.399294 54.963994 
L 377.196206 53.617601 
L 377.58894 53.568 
L 377.74926 55.816649 
L 378.234327 58.819565 
L 379.084848 58.850789 
L 380.565828 58.850789 
L 380.809126 56.285179 
L 381.229705 56.210208 
L 381.807293 56.20728 
L 382.237883 58.811271 
L 382.357282 58.811271 
L 382.599637 57.805908 
L 384.366752 57.800704 
L 384.646629 58.802001 
L 385.506812 58.704912 
L 385.694868 57.504722 
L 386.925663 57.400966 
L 387.311852 57.306642 
L 390.84236 57.298998 
L 391.216259 57.156537 
L 396.446444 56.788186 
L 396.720848 57.985937 
L 398.487273 57.985286 
L 398.487273 57.985286 
" style="fill:none;stroke:#000000;stroke-linecap:square;stroke-width:1.5;"/>
    <defs>
     <path d="M 0 3 
C 0.795609 3 1.55874 2.683901 2.12132 2.12132 
C 2.683901 1.55874 3 0.795609 3 0 
C 3 -0.795609 2.683901 -1.55874 2.12132 -2.12132 
C 1.55874 -2.683901 0.795609 -3 0 -3 
C -0.795609 -3 -1.55874 -2.683901 -2.12132 -2.12132 
C -2.683901 -1.55874 -3 -0.795609 -3 0 
C -3 0.795609 -2.683901 1.55874 -2.12132 2.12132 
C -1.55874 2.683901 -0.795609 3 0 3 
z
" id="m585ec87ce6" style="stroke:#000000;"/>
    </defs>
    <g clip-path="url(#pde144714a3)">
     <use style="stroke:#000000;" x="73.832727" xlink:href="#m585ec87ce6" y="295.488"/>
     <use style="stroke:#000000;" x="119.675297" xlink:href="#m585ec87ce6" y="294.003212"/>
     <use style="stroke:#000000;" x="143.590557" xlink:href="#m585ec87ce6" y="292.293184"/>
     <use style="stroke:#000000;" x="145.726195" xlink:href="#m585ec87ce6" y="292.258219"/>
     <use style="stroke:#000000;" x="147.773772" xlink:href="#m585ec87ce6" y="291.389789"/>
     <use style="stroke:#000000;" x="149.232678" xlink:href="#m585ec87ce6" y="291.389789"/>
     <use style="stroke:#000000;" x="150.828101" xlink:href="#m585ec87ce6" y="291.381495"/>
     <use style="stroke:#000000;" x="152.32267" xlink:href="#m585ec87ce6" y="291.375315"/>
     <use style="stroke:#000000;" x="153.50693" xlink:href="#m585ec87ce6" y="291.375315"/>
     <use style="stroke:#000000;" x="154.584897" xlink:href="#m585ec87ce6" y="291.010867"/>
     <use style="stroke:#000000;" x="156.110758" xlink:href="#m585ec87ce6" y="290.004854"/>
     <use style="stroke:#000000;" x="157.516233" xlink:href="#m585ec87ce6" y="289.242131"/>
     <use style="stroke:#000000;" x="159.057668" xlink:href="#m585ec87ce6" y="288.448997"/>
     <use style="stroke:#000000;" x="160.708067" xlink:href="#m585ec87ce6" y="287.995267"/>
     <use style="stroke:#000000;" x="161.944729" xlink:href="#m585ec87ce6" y="287.443147"/>
     <use style="stroke:#000000;" x="163.3366" xlink:href="#m585ec87ce6" y="285.882737"/>
     <use style="stroke:#000000;" x="164.751072" xlink:href="#m585ec87ce6" y="285.304108"/>
     <use style="stroke:#000000;" x="166.22953" xlink:href="#m585ec87ce6" y="284.331271"/>
     <use style="stroke:#000000;" x="168.884883" xlink:href="#m585ec87ce6" y="282.997726"/>
     <use style="stroke:#000000;" x="170.13982" xlink:href="#m585ec87ce6" y="282.99366"/>
     <use style="stroke:#000000;" x="171.431747" xlink:href="#m585ec87ce6" y="282.931374"/>
     <use style="stroke:#000000;" x="172.625278" xlink:href="#m585ec87ce6" y="282.781757"/>
     <use style="stroke:#000000;" x="173.940112" xlink:href="#m585ec87ce6" y="282.537978"/>
     <use style="stroke:#000000;" x="175.337305" xlink:href="#m585ec87ce6" y="282.201177"/>
     <use style="stroke:#000000;" x="176.700703" xlink:href="#m585ec87ce6" y="281.326567"/>
     <use style="stroke:#000000;" x="178.200552" xlink:href="#m585ec87ce6" y="280.93187"/>
     <use style="stroke:#000000;" x="179.330113" xlink:href="#m585ec87ce6" y="280.28689"/>
     <use style="stroke:#000000;" x="180.569303" xlink:href="#m585ec87ce6" y="279.469849"/>
     <use style="stroke:#000000;" x="181.6803" xlink:href="#m585ec87ce6" y="278.738677"/>
     <use style="stroke:#000000;" x="182.687295" xlink:href="#m585ec87ce6" y="278.27096"/>
     <use style="stroke:#000000;" x="183.742502" xlink:href="#m585ec87ce6" y="276.68144"/>
     <use style="stroke:#000000;" x="185.038457" xlink:href="#m585ec87ce6" y="276.129482"/>
     <use style="stroke:#000000;" x="186.068364" xlink:href="#m585ec87ce6" y="275.850413"/>
     <use style="stroke:#000000;" x="187.482686" xlink:href="#m585ec87ce6" y="273.710399"/>
     <use style="stroke:#000000;" x="188.868411" xlink:href="#m585ec87ce6" y="273.608757"/>
     <use style="stroke:#000000;" x="190.052268" xlink:href="#m585ec87ce6" y="273.593145"/>
     <use style="stroke:#000000;" x="190.996868" xlink:href="#m585ec87ce6" y="273.580623"/>
     <use style="stroke:#000000;" x="192.126547" xlink:href="#m585ec87ce6" y="273.469385"/>
     <use style="stroke:#000000;" x="193.185965" xlink:href="#m585ec87ce6" y="273.00362"/>
     <use style="stroke:#000000;" x="194.23992" xlink:href="#m585ec87ce6" y="272.593637"/>
     <use style="stroke:#000000;" x="195.582438" xlink:href="#m585ec87ce6" y="271.96931"/>
     <use style="stroke:#000000;" x="196.593312" xlink:href="#m585ec87ce6" y="271.270337"/>
     <use style="stroke:#000000;" x="197.583711" xlink:href="#m585ec87ce6" y="270.42874"/>
     <use style="stroke:#000000;" x="198.470161" xlink:href="#m585ec87ce6" y="268.919558"/>
     <use style="stroke:#000000;" x="199.427895" xlink:href="#m585ec87ce6" y="268.629593"/>
     <use style="stroke:#000000;" x="200.427945" xlink:href="#m585ec87ce6" y="268.230343"/>
     <use style="stroke:#000000;" x="201.432771" xlink:href="#m585ec87ce6" y="267.510066"/>
     <use style="stroke:#000000;" x="202.338564" xlink:href="#m585ec87ce6" y="266.722787"/>
     <use style="stroke:#000000;" x="205.489275" xlink:href="#m585ec87ce6" y="264.474951"/>
     <use style="stroke:#000000;" x="208.752294" xlink:href="#m585ec87ce6" y="264.179457"/>
     <use style="stroke:#000000;" x="209.658175" xlink:href="#m585ec87ce6" y="263.898599"/>
     <use style="stroke:#000000;" x="210.351069" xlink:href="#m585ec87ce6" y="263.649942"/>
     <use style="stroke:#000000;" x="211.320305" xlink:href="#m585ec87ce6" y="263.6127"/>
     <use style="stroke:#000000;" x="211.837433" xlink:href="#m585ec87ce6" y="263.6127"/>
     <use style="stroke:#000000;" x="212.44311" xlink:href="#m585ec87ce6" y="263.178322"/>
     <use style="stroke:#000000;" x="213.064383" xlink:href="#m585ec87ce6" y="262.399825"/>
     <use style="stroke:#000000;" x="213.674258" xlink:href="#m585ec87ce6" y="261.875026"/>
     <use style="stroke:#000000;" x="214.328959" xlink:href="#m585ec87ce6" y="261.369905"/>
     <use style="stroke:#000000;" x="215.198855" xlink:href="#m585ec87ce6" y="260.47578"/>
     <use style="stroke:#000000;" x="215.919277" xlink:href="#m585ec87ce6" y="258.435944"/>
     <use style="stroke:#000000;" x="216.999969" xlink:href="#m585ec87ce6" y="258.621827"/>
     <use style="stroke:#000000;" x="217.944183" xlink:href="#m585ec87ce6" y="257.916187"/>
     <use style="stroke:#000000;" x="218.710363" xlink:href="#m585ec87ce6" y="257.350568"/>
     <use style="stroke:#000000;" x="219.364249" xlink:href="#m585ec87ce6" y="256.744781"/>
     <use style="stroke:#000000;" x="220.755886" xlink:href="#m585ec87ce6" y="256.364558"/>
     <use style="stroke:#000000;" x="221.371607" xlink:href="#m585ec87ce6" y="254.868386"/>
     <use style="stroke:#000000;" x="222.132036" xlink:href="#m585ec87ce6" y="254.054436"/>
     <use style="stroke:#000000;" x="224.071122" xlink:href="#m585ec87ce6" y="252.508662"/>
     <use style="stroke:#000000;" x="224.938948" xlink:href="#m585ec87ce6" y="251.717805"/>
     <use style="stroke:#000000;" x="225.528589" xlink:href="#m585ec87ce6" y="251.496469"/>
     <use style="stroke:#000000;" x="226.132504" xlink:href="#m585ec87ce6" y="251.223906"/>
     <use style="stroke:#000000;" x="227.067274" xlink:href="#m585ec87ce6" y="250.683332"/>
     <use style="stroke:#000000;" x="227.76636" xlink:href="#m585ec87ce6" y="249.988425"/>
     <use style="stroke:#000000;" x="228.578205" xlink:href="#m585ec87ce6" y="249.961754"/>
     <use style="stroke:#000000;" x="229.351609" xlink:href="#m585ec87ce6" y="249.556324"/>
     <use style="stroke:#000000;" x="230.183836" xlink:href="#m585ec87ce6" y="247.797508"/>
     <use style="stroke:#000000;" x="231.236637" xlink:href="#m585ec87ce6" y="248.486073"/>
     <use style="stroke:#000000;" x="231.824855" xlink:href="#m585ec87ce6" y="247.990872"/>
     <use style="stroke:#000000;" x="232.426532" xlink:href="#m585ec87ce6" y="246.874273"/>
     <use style="stroke:#000000;" x="233.083951" xlink:href="#m585ec87ce6" y="246.211728"/>
     <use style="stroke:#000000;" x="233.645674" xlink:href="#m585ec87ce6" y="245.594395"/>
     <use style="stroke:#000000;" x="234.232094" xlink:href="#m585ec87ce6" y="244.791666"/>
     <use style="stroke:#000000;" x="234.84615" xlink:href="#m585ec87ce6" y="243.497477"/>
     <use style="stroke:#000000;" x="235.437268" xlink:href="#m585ec87ce6" y="243.219709"/>
     <use style="stroke:#000000;" x="237.631499" xlink:href="#m585ec87ce6" y="242.019356"/>
     <use style="stroke:#000000;" x="238.440586" xlink:href="#m585ec87ce6" y="241.675724"/>
     <use style="stroke:#000000;" x="239.024539" xlink:href="#m585ec87ce6" y="240.935119"/>
     <use style="stroke:#000000;" x="239.666748" xlink:href="#m585ec87ce6" y="240.025869"/>
     <use style="stroke:#000000;" x="240.336665" xlink:href="#m585ec87ce6" y="239.482531"/>
     <use style="stroke:#000000;" x="240.893862" xlink:href="#m585ec87ce6" y="238.731192"/>
     <use style="stroke:#000000;" x="241.57573" xlink:href="#m585ec87ce6" y="237.829911"/>
     <use style="stroke:#000000;" x="242.540781" xlink:href="#m585ec87ce6" y="237.603534"/>
     <use style="stroke:#000000;" x="243.103908" xlink:href="#m585ec87ce6" y="237.16444"/>
     <use style="stroke:#000000;" x="243.80205" xlink:href="#m585ec87ce6" y="237.81869"/>
     <use style="stroke:#000000;" x="244.332105" xlink:href="#m585ec87ce6" y="236.530681"/>
     <use style="stroke:#000000;" x="244.96488" xlink:href="#m585ec87ce6" y="235.822926"/>
     <use style="stroke:#000000;" x="245.602886" xlink:href="#m585ec87ce6" y="234.706326"/>
     <use style="stroke:#000000;" x="246.358227" xlink:href="#m585ec87ce6" y="236.346261"/>
     <use style="stroke:#000000;" x="247.000149" xlink:href="#m585ec87ce6" y="235.439288"/>
     <use style="stroke:#000000;" x="247.449585" xlink:href="#m585ec87ce6" y="235.294224"/>
     <use style="stroke:#000000;" x="248.137561" xlink:href="#m585ec87ce6" y="234.374729"/>
     <use style="stroke:#000000;" x="248.773509" xlink:href="#m585ec87ce6" y="233.53118"/>
     <use style="stroke:#000000;" x="249.526127" xlink:href="#m585ec87ce6" y="233.006544"/>
     <use style="stroke:#000000;" x="249.949805" xlink:href="#m585ec87ce6" y="232.732029"/>
     <use style="stroke:#000000;" x="250.393152" xlink:href="#m585ec87ce6" y="231.783586"/>
     <use style="stroke:#000000;" x="250.880094" xlink:href="#m585ec87ce6" y="230.9563"/>
     <use style="stroke:#000000;" x="251.532802" xlink:href="#m585ec87ce6" y="230.149181"/>
     <use style="stroke:#000000;" x="252.069034" xlink:href="#m585ec87ce6" y="229.342711"/>
     <use style="stroke:#000000;" x="252.686935" xlink:href="#m585ec87ce6" y="228.569255"/>
     <use style="stroke:#000000;" x="253.255206" xlink:href="#m585ec87ce6" y="228.195863"/>
     <use style="stroke:#000000;" x="253.680977" xlink:href="#m585ec87ce6" y="227.232295"/>
     <use style="stroke:#000000;" x="254.125537" xlink:href="#m585ec87ce6" y="226.613335"/>
     <use style="stroke:#000000;" x="255.011075" xlink:href="#m585ec87ce6" y="226.903137"/>
     <use style="stroke:#000000;" x="255.482774" xlink:href="#m585ec87ce6" y="226.903137"/>
     <use style="stroke:#000000;" x="256.012911" xlink:href="#m585ec87ce6" y="226.903137"/>
     <use style="stroke:#000000;" x="256.58256" xlink:href="#m585ec87ce6" y="226.903137"/>
     <use style="stroke:#000000;" x="257.105557" xlink:href="#m585ec87ce6" y="226.899885"/>
     <use style="stroke:#000000;" x="257.617693" xlink:href="#m585ec87ce6" y="226.899885"/>
     <use style="stroke:#000000;" x="258.032412" xlink:href="#m585ec87ce6" y="226.899885"/>
     <use style="stroke:#000000;" x="258.448428" xlink:href="#m585ec87ce6" y="226.899885"/>
     <use style="stroke:#000000;" x="258.90472" xlink:href="#m585ec87ce6" y="226.899885"/>
     <use style="stroke:#000000;" x="259.50659" xlink:href="#m585ec87ce6" y="226.899885"/>
     <use style="stroke:#000000;" x="260.115225" xlink:href="#m585ec87ce6" y="226.899885"/>
     <use style="stroke:#000000;" x="260.568031" xlink:href="#m585ec87ce6" y="226.899885"/>
     <use style="stroke:#000000;" x="261.766068" xlink:href="#m585ec87ce6" y="226.535437"/>
     <use style="stroke:#000000;" x="262.694017" xlink:href="#m585ec87ce6" y="226.535437"/>
     <use style="stroke:#000000;" x="263.432643" xlink:href="#m585ec87ce6" y="226.535437"/>
     <use style="stroke:#000000;" x="264.16731" xlink:href="#m585ec87ce6" y="226.5208"/>
     <use style="stroke:#000000;" x="265.34812" xlink:href="#m585ec87ce6" y="226.516572"/>
     <use style="stroke:#000000;" x="265.777579" xlink:href="#m585ec87ce6" y="226.510717"/>
     <use style="stroke:#000000;" x="266.299264" xlink:href="#m585ec87ce6" y="226.507139"/>
     <use style="stroke:#000000;" x="266.775948" xlink:href="#m585ec87ce6" y="226.502261"/>
     <use style="stroke:#000000;" x="268.394946" xlink:href="#m585ec87ce6" y="227.445987"/>
     <use style="stroke:#000000;" x="269.48785" xlink:href="#m585ec87ce6" y="227.365975"/>
     <use style="stroke:#000000;" x="270.196816" xlink:href="#m585ec87ce6" y="227.361096"/>
     <use style="stroke:#000000;" x="271.824694" xlink:href="#m585ec87ce6" y="224.755479"/>
     <use style="stroke:#000000;" x="272.451386" xlink:href="#m585ec87ce6" y="224.746698"/>
     <use style="stroke:#000000;" x="274.381953" xlink:href="#m585ec87ce6" y="224.739867"/>
     <use style="stroke:#000000;" x="274.8395" xlink:href="#m585ec87ce6" y="224.738729"/>
     <use style="stroke:#000000;" x="275.676154" xlink:href="#m585ec87ce6" y="224.657252"/>
     <use style="stroke:#000000;" x="276.249842" xlink:href="#m585ec87ce6" y="224.589599"/>
     <use style="stroke:#000000;" x="283.396394" xlink:href="#m585ec87ce6" y="224.496089"/>
     <use style="stroke:#000000;" x="284.685263" xlink:href="#m585ec87ce6" y="224.484705"/>
     <use style="stroke:#000000;" x="285.129105" xlink:href="#m585ec87ce6" y="224.482103"/>
     <use style="stroke:#000000;" x="285.468777" xlink:href="#m585ec87ce6" y="224.476085"/>
     <use style="stroke:#000000;" x="286.329805" xlink:href="#m585ec87ce6" y="224.467629"/>
     <use style="stroke:#000000;" x="286.740866" xlink:href="#m585ec87ce6" y="224.456733"/>
     <use style="stroke:#000000;" x="288.002852" xlink:href="#m585ec87ce6" y="224.445024"/>
     <use style="stroke:#000000;" x="288.385501" xlink:href="#m585ec87ce6" y="224.437543"/>
     <use style="stroke:#000000;" x="288.737475" xlink:href="#m585ec87ce6" y="224.431038"/>
     <use style="stroke:#000000;" x="289.299191" xlink:href="#m585ec87ce6" y="225.732545"/>
     <use style="stroke:#000000;" x="289.614146" xlink:href="#m585ec87ce6" y="225.727178"/>
     <use style="stroke:#000000;" x="289.94509" xlink:href="#m585ec87ce6" y="225.71303"/>
     <use style="stroke:#000000;" x="290.30804" xlink:href="#m585ec87ce6" y="225.704736"/>
     <use style="stroke:#000000;" x="290.622335" xlink:href="#m585ec87ce6" y="225.700182"/>
     <use style="stroke:#000000;" x="291.100228" xlink:href="#m585ec87ce6" y="225.691888"/>
     <use style="stroke:#000000;" x="291.760145" xlink:href="#m585ec87ce6" y="225.603419"/>
     <use style="stroke:#000000;" x="292.226198" xlink:href="#m585ec87ce6" y="225.597076"/>
     <use style="stroke:#000000;" x="292.662185" xlink:href="#m585ec87ce6" y="225.526333"/>
     <use style="stroke:#000000;" x="295.514018" xlink:href="#m585ec87ce6" y="225.436726"/>
     <use style="stroke:#000000;" x="296.435937" xlink:href="#m585ec87ce6" y="225.424691"/>
     <use style="stroke:#000000;" x="296.900044" xlink:href="#m585ec87ce6" y="225.301257"/>
     <use style="stroke:#000000;" x="297.191193" xlink:href="#m585ec87ce6" y="225.296053"/>
     <use style="stroke:#000000;" x="297.467163" xlink:href="#m585ec87ce6" y="225.291337"/>
     <use style="stroke:#000000;" x="297.764239" xlink:href="#m585ec87ce6" y="225.283368"/>
     <use style="stroke:#000000;" x="298.036024" xlink:href="#m585ec87ce6" y="225.277188"/>
     <use style="stroke:#000000;" x="298.32745" xlink:href="#m585ec87ce6" y="225.269382"/>
     <use style="stroke:#000000;" x="298.627132" xlink:href="#m585ec87ce6" y="225.258649"/>
     <use style="stroke:#000000;" x="298.924425" xlink:href="#m585ec87ce6" y="225.25068"/>
     <use style="stroke:#000000;" x="299.22476" xlink:href="#m585ec87ce6" y="225.242874"/>
     <use style="stroke:#000000;" x="299.639971" xlink:href="#m585ec87ce6" y="225.23767"/>
     <use style="stroke:#000000;" x="299.954154" xlink:href="#m585ec87ce6" y="225.231327"/>
     <use style="stroke:#000000;" x="300.291208" xlink:href="#m585ec87ce6" y="225.223359"/>
     <use style="stroke:#000000;" x="301.17414" xlink:href="#m585ec87ce6" y="225.21539"/>
     <use style="stroke:#000000;" x="302.011818" xlink:href="#m585ec87ce6" y="225.205957"/>
     <use style="stroke:#000000;" x="302.241005" xlink:href="#m585ec87ce6" y="225.205469"/>
     <use style="stroke:#000000;" x="302.538997" xlink:href="#m585ec87ce6" y="225.194899"/>
     <use style="stroke:#000000;" x="302.789789" xlink:href="#m585ec87ce6" y="225.193923"/>
     <use style="stroke:#000000;" x="303.174655" xlink:href="#m585ec87ce6" y="225.179124"/>
     <use style="stroke:#000000;" x="303.642179" xlink:href="#m585ec87ce6" y="225.166439"/>
     <use style="stroke:#000000;" x="304.097363" xlink:href="#m585ec87ce6" y="225.162048"/>
     <use style="stroke:#000000;" x="304.477772" xlink:href="#m585ec87ce6" y="225.162048"/>
     <use style="stroke:#000000;" x="304.904148" xlink:href="#m585ec87ce6" y="225.08106"/>
     <use style="stroke:#000000;" x="305.453283" xlink:href="#m585ec87ce6" y="225.074392"/>
     <use style="stroke:#000000;" x="306.016343" xlink:href="#m585ec87ce6" y="225.070001"/>
     <use style="stroke:#000000;" x="306.615212" xlink:href="#m585ec87ce6" y="225.067887"/>
     <use style="stroke:#000000;" x="307.647962" xlink:href="#m585ec87ce6" y="226.24905"/>
     <use style="stroke:#000000;" x="308.186859" xlink:href="#m585ec87ce6" y="226.24352"/>
     <use style="stroke:#000000;" x="308.524113" xlink:href="#m585ec87ce6" y="226.239455"/>
     <use style="stroke:#000000;" x="308.89341" xlink:href="#m585ec87ce6" y="226.239292"/>
     <use style="stroke:#000000;" x="309.276687" xlink:href="#m585ec87ce6" y="226.232136"/>
     <use style="stroke:#000000;" x="309.683784" xlink:href="#m585ec87ce6" y="226.228233"/>
     <use style="stroke:#000000;" x="310.002635" xlink:href="#m585ec87ce6" y="226.218476"/>
     <use style="stroke:#000000;" x="310.423552" xlink:href="#m585ec87ce6" y="225.961362"/>
     <use style="stroke:#000000;" x="310.934179" xlink:href="#m585ec87ce6" y="225.838578"/>
     <use style="stroke:#000000;" x="312.200233" xlink:href="#m585ec87ce6" y="225.325163"/>
     <use style="stroke:#000000;" x="312.532447" xlink:href="#m585ec87ce6" y="224.940224"/>
     <use style="stroke:#000000;" x="312.820539" xlink:href="#m585ec87ce6" y="224.07033"/>
     <use style="stroke:#000000;" x="313.136024" xlink:href="#m585ec87ce6" y="223.364364"/>
     <use style="stroke:#000000;" x="313.440619" xlink:href="#m585ec87ce6" y="223.100258"/>
     <use style="stroke:#000000;" x="313.796157" xlink:href="#m585ec87ce6" y="221.972436"/>
     <use style="stroke:#000000;" x="314.179222" xlink:href="#m585ec87ce6" y="220.972278"/>
     <use style="stroke:#000000;" x="314.422536" xlink:href="#m585ec87ce6" y="220.864456"/>
     <use style="stroke:#000000;" x="314.730054" xlink:href="#m585ec87ce6" y="219.974884"/>
     <use style="stroke:#000000;" x="314.98522" xlink:href="#m585ec87ce6" y="219.52717"/>
     <use style="stroke:#000000;" x="315.274068" xlink:href="#m585ec87ce6" y="219.004974"/>
     <use style="stroke:#000000;" x="315.549506" xlink:href="#m585ec87ce6" y="217.449605"/>
     <use style="stroke:#000000;" x="315.795476" xlink:href="#m585ec87ce6" y="217.147118"/>
     <use style="stroke:#000000;" x="316.073445" xlink:href="#m585ec87ce6" y="216.237868"/>
     <use style="stroke:#000000;" x="316.335248" xlink:href="#m585ec87ce6" y="215.663143"/>
     <use style="stroke:#000000;" x="316.570744" xlink:href="#m585ec87ce6" y="215.222097"/>
     <use style="stroke:#000000;" x="316.816134" xlink:href="#m585ec87ce6" y="214.027761"/>
     <use style="stroke:#000000;" x="317.056257" xlink:href="#m585ec87ce6" y="213.557118"/>
     <use style="stroke:#000000;" x="317.26475" xlink:href="#m585ec87ce6" y="212.930026"/>
     <use style="stroke:#000000;" x="317.589584" xlink:href="#m585ec87ce6" y="211.635349"/>
     <use style="stroke:#000000;" x="317.966407" xlink:href="#m585ec87ce6" y="210.593396"/>
     <use style="stroke:#000000;" x="318.328645" xlink:href="#m585ec87ce6" y="209.608199"/>
     <use style="stroke:#000000;" x="318.771401" xlink:href="#m585ec87ce6" y="209.03201"/>
     <use style="stroke:#000000;" x="319.23015" xlink:href="#m585ec87ce6" y="208.574539"/>
     <use style="stroke:#000000;" x="319.492256" xlink:href="#m585ec87ce6" y="207.997211"/>
     <use style="stroke:#000000;" x="319.790932" xlink:href="#m585ec87ce6" y="207.693098"/>
     <use style="stroke:#000000;" x="320.077563" xlink:href="#m585ec87ce6" y="207.183586"/>
     <use style="stroke:#000000;" x="320.33621" xlink:href="#m585ec87ce6" y="206.589671"/>
     <use style="stroke:#000000;" x="320.613181" xlink:href="#m585ec87ce6" y="205.774095"/>
     <use style="stroke:#000000;" x="320.865024" xlink:href="#m585ec87ce6" y="204.91656"/>
     <use style="stroke:#000000;" x="321.101264" xlink:href="#m585ec87ce6" y="203.986494"/>
     <use style="stroke:#000000;" x="321.356292" xlink:href="#m585ec87ce6" y="203.273535"/>
     <use style="stroke:#000000;" x="321.667997" xlink:href="#m585ec87ce6" y="202.041307"/>
     <use style="stroke:#000000;" x="321.953525" xlink:href="#m585ec87ce6" y="201.109777"/>
     <use style="stroke:#000000;" x="322.308418" xlink:href="#m585ec87ce6" y="200.500575"/>
     <use style="stroke:#000000;" x="322.689271" xlink:href="#m585ec87ce6" y="199.870069"/>
     <use style="stroke:#000000;" x="322.962438" xlink:href="#m585ec87ce6" y="199.220535"/>
     <use style="stroke:#000000;" x="323.251289" xlink:href="#m585ec87ce6" y="198.287704"/>
     <use style="stroke:#000000;" x="323.570059" xlink:href="#m585ec87ce6" y="195.685828"/>
     <use style="stroke:#000000;" x="324.224839" xlink:href="#m585ec87ce6" y="196.533604"/>
     <use style="stroke:#000000;" x="324.462481" xlink:href="#m585ec87ce6" y="196.335687"/>
     <use style="stroke:#000000;" x="324.872962" xlink:href="#m585ec87ce6" y="196.130939"/>
     <use style="stroke:#000000;" x="325.091723" xlink:href="#m585ec87ce6" y="195.867482"/>
     <use style="stroke:#000000;" x="325.296575" xlink:href="#m585ec87ce6" y="195.62533"/>
     <use style="stroke:#000000;" x="325.478345" xlink:href="#m585ec87ce6" y="195.189326"/>
     <use style="stroke:#000000;" x="325.720984" xlink:href="#m585ec87ce6" y="194.407576"/>
     <use style="stroke:#000000;" x="326.076602" xlink:href="#m585ec87ce6" y="193.559799"/>
     <use style="stroke:#000000;" x="326.671827" xlink:href="#m585ec87ce6" y="191.301718"/>
     <use style="stroke:#000000;" x="326.901345" xlink:href="#m585ec87ce6" y="191.044278"/>
     <use style="stroke:#000000;" x="327.366997" xlink:href="#m585ec87ce6" y="189.384178"/>
     <use style="stroke:#000000;" x="327.593143" xlink:href="#m585ec87ce6" y="189.018103"/>
     <use style="stroke:#000000;" x="327.834793" xlink:href="#m585ec87ce6" y="188.46826"/>
     <use style="stroke:#000000;" x="328.119563" xlink:href="#m585ec87ce6" y="187.572508"/>
     <use style="stroke:#000000;" x="328.517479" xlink:href="#m585ec87ce6" y="186.542589"/>
     <use style="stroke:#000000;" x="329.382808" xlink:href="#m585ec87ce6" y="184.997791"/>
     <use style="stroke:#000000;" x="329.748604" xlink:href="#m585ec87ce6" y="184.45738"/>
     <use style="stroke:#000000;" x="330.111688" xlink:href="#m585ec87ce6" y="183.533819"/>
     <use style="stroke:#000000;" x="330.468772" xlink:href="#m585ec87ce6" y="182.63823"/>
     <use style="stroke:#000000;" x="330.785448" xlink:href="#m585ec87ce6" y="181.975685"/>
     <use style="stroke:#000000;" x="331.100816" xlink:href="#m585ec87ce6" y="181.708326"/>
     <use style="stroke:#000000;" x="331.353897" xlink:href="#m585ec87ce6" y="181.105954"/>
     <use style="stroke:#000000;" x="331.643501" xlink:href="#m585ec87ce6" y="180.665396"/>
     <use style="stroke:#000000;" x="331.975199" xlink:href="#m585ec87ce6" y="180.17605"/>
     <use style="stroke:#000000;" x="332.334264" xlink:href="#m585ec87ce6" y="179.335267"/>
     <use style="stroke:#000000;" x="332.533376" xlink:href="#m585ec87ce6" y="178.592872"/>
     <use style="stroke:#000000;" x="332.721018" xlink:href="#m585ec87ce6" y="177.946916"/>
     <use style="stroke:#000000;" x="333.009765" xlink:href="#m585ec87ce6" y="175.87488"/>
     <use style="stroke:#000000;" x="333.203733" xlink:href="#m585ec87ce6" y="175.576459"/>
     <use style="stroke:#000000;" x="333.4188" xlink:href="#m585ec87ce6" y="175.221443"/>
     <use style="stroke:#000000;" x="333.804446" xlink:href="#m585ec87ce6" y="173.044187"/>
     <use style="stroke:#000000;" x="334.703732" xlink:href="#m585ec87ce6" y="171.146976"/>
     <use style="stroke:#000000;" x="335.045039" xlink:href="#m585ec87ce6" y="170.746912"/>
     <use style="stroke:#000000;" x="335.415268" xlink:href="#m585ec87ce6" y="170.37108"/>
     <use style="stroke:#000000;" x="335.961114" xlink:href="#m585ec87ce6" y="169.95573"/>
     <use style="stroke:#000000;" x="336.432799" xlink:href="#m585ec87ce6" y="167.99298"/>
     <use style="stroke:#000000;" x="336.668754" xlink:href="#m585ec87ce6" y="167.763838"/>
     <use style="stroke:#000000;" x="336.944681" xlink:href="#m585ec87ce6" y="167.104709"/>
     <use style="stroke:#000000;" x="337.320463" xlink:href="#m585ec87ce6" y="167.042748"/>
     <use style="stroke:#000000;" x="337.644123" xlink:href="#m585ec87ce6" y="165.170093"/>
     <use style="stroke:#000000;" x="337.906878" xlink:href="#m585ec87ce6" y="163.868423"/>
     <use style="stroke:#000000;" x="338.132816" xlink:href="#m585ec87ce6" y="163.748567"/>
     <use style="stroke:#000000;" x="338.542195" xlink:href="#m585ec87ce6" y="162.957222"/>
     <use style="stroke:#000000;" x="339.169676" xlink:href="#m585ec87ce6" y="163.092528"/>
     <use style="stroke:#000000;" x="339.491219" xlink:href="#m585ec87ce6" y="162.73182"/>
     <use style="stroke:#000000;" x="340.145128" xlink:href="#m585ec87ce6" y="160.783869"/>
     <use style="stroke:#000000;" x="340.802959" xlink:href="#m585ec87ce6" y="159.762568"/>
     <use style="stroke:#000000;" x="340.994468" xlink:href="#m585ec87ce6" y="159.516025"/>
     <use style="stroke:#000000;" x="341.257604" xlink:href="#m585ec87ce6" y="158.914466"/>
     <use style="stroke:#000000;" x="341.4607" xlink:href="#m585ec87ce6" y="158.016438"/>
     <use style="stroke:#000000;" x="341.69848" xlink:href="#m585ec87ce6" y="157.240868"/>
     <use style="stroke:#000000;" x="341.919574" xlink:href="#m585ec87ce6" y="155.965869"/>
     <use style="stroke:#000000;" x="342.144647" xlink:href="#m585ec87ce6" y="155.19225"/>
     <use style="stroke:#000000;" x="342.363098" xlink:href="#m585ec87ce6" y="154.670541"/>
     <use style="stroke:#000000;" x="342.568245" xlink:href="#m585ec87ce6" y="153.926358"/>
     <use style="stroke:#000000;" x="342.838909" xlink:href="#m585ec87ce6" y="151.272766"/>
     <use style="stroke:#000000;" x="343.084792" xlink:href="#m585ec87ce6" y="150.906692"/>
     <use style="stroke:#000000;" x="343.454073" xlink:href="#m585ec87ce6" y="150.916938"/>
     <use style="stroke:#000000;" x="343.730276" xlink:href="#m585ec87ce6" y="150.781632"/>
     <use style="stroke:#000000;" x="344.063068" xlink:href="#m585ec87ce6" y="150.500611"/>
     <use style="stroke:#000000;" x="344.393258" xlink:href="#m585ec87ce6" y="150.302531"/>
     <use style="stroke:#000000;" x="344.672442" xlink:href="#m585ec87ce6" y="149.80912"/>
     <use style="stroke:#000000;" x="344.914156" xlink:href="#m585ec87ce6" y="149.232768"/>
     <use style="stroke:#000000;" x="345.191578" xlink:href="#m585ec87ce6" y="148.218461"/>
     <use style="stroke:#000000;" x="348.236022" xlink:href="#m585ec87ce6" y="146.367273"/>
     <use style="stroke:#000000;" x="348.49066" xlink:href="#m585ec87ce6" y="146.07991"/>
     <use style="stroke:#000000;" x="348.790391" xlink:href="#m585ec87ce6" y="144.920214"/>
     <use style="stroke:#000000;" x="349.064886" xlink:href="#m585ec87ce6" y="144.597561"/>
     <use style="stroke:#000000;" x="349.347359" xlink:href="#m585ec87ce6" y="143.745719"/>
     <use style="stroke:#000000;" x="349.57235" xlink:href="#m585ec87ce6" y="143.294265"/>
     <use style="stroke:#000000;" x="349.774567" xlink:href="#m585ec87ce6" y="142.64587"/>
     <use style="stroke:#000000;" x="349.960865" xlink:href="#m585ec87ce6" y="141.895181"/>
     <use style="stroke:#000000;" x="350.197013" xlink:href="#m585ec87ce6" y="140.964953"/>
     <use style="stroke:#000000;" x="350.431117" xlink:href="#m585ec87ce6" y="140.185642"/>
     <use style="stroke:#000000;" x="351.144228" xlink:href="#m585ec87ce6" y="137.606371"/>
     <use style="stroke:#000000;" x="351.327953" xlink:href="#m585ec87ce6" y="137.332994"/>
     <use style="stroke:#000000;" x="351.530945" xlink:href="#m585ec87ce6" y="136.968709"/>
     <use style="stroke:#000000;" x="352.021339" xlink:href="#m585ec87ce6" y="135.476928"/>
     <use style="stroke:#000000;" x="352.256025" xlink:href="#m585ec87ce6" y="135.277058"/>
     <use style="stroke:#000000;" x="352.96058" xlink:href="#m585ec87ce6" y="134.578736"/>
     <use style="stroke:#000000;" x="353.229929" xlink:href="#m585ec87ce6" y="134.256084"/>
     <use style="stroke:#000000;" x="353.510165" xlink:href="#m585ec87ce6" y="134.102726"/>
     <use style="stroke:#000000;" x="353.73467" xlink:href="#m585ec87ce6" y="133.649646"/>
     <use style="stroke:#000000;" x="353.961868" xlink:href="#m585ec87ce6" y="133.109723"/>
     <use style="stroke:#000000;" x="354.200267" xlink:href="#m585ec87ce6" y="132.451407"/>
     <use style="stroke:#000000;" x="354.373465" xlink:href="#m585ec87ce6" y="131.748531"/>
     <use style="stroke:#000000;" x="354.618371" xlink:href="#m585ec87ce6" y="128.350269"/>
     <use style="stroke:#000000;" x="354.834942" xlink:href="#m585ec87ce6" y="127.781561"/>
     <use style="stroke:#000000;" x="355.663891" xlink:href="#m585ec87ce6" y="127.342304"/>
     <use style="stroke:#000000;" x="356.129568" xlink:href="#m585ec87ce6" y="125.336295"/>
     <use style="stroke:#000000;" x="356.554144" xlink:href="#m585ec87ce6" y="125.029579"/>
     <use style="stroke:#000000;" x="356.726135" xlink:href="#m585ec87ce6" y="124.626426"/>
     <use style="stroke:#000000;" x="356.895286" xlink:href="#m585ec87ce6" y="123.953636"/>
     <use style="stroke:#000000;" x="357.051628" xlink:href="#m585ec87ce6" y="123.296947"/>
     <use style="stroke:#000000;" x="357.230013" xlink:href="#m585ec87ce6" y="122.501048"/>
     <use style="stroke:#000000;" x="357.394699" xlink:href="#m585ec87ce6" y="121.409656"/>
     <use style="stroke:#000000;" x="357.56158" xlink:href="#m585ec87ce6" y="120.612944"/>
     <use style="stroke:#000000;" x="357.843114" xlink:href="#m585ec87ce6" y="120.094325"/>
     <use style="stroke:#000000;" x="358.018499" xlink:href="#m585ec87ce6" y="119.824689"/>
     <use style="stroke:#000000;" x="358.173892" xlink:href="#m585ec87ce6" y="119.726624"/>
     <use style="stroke:#000000;" x="358.326676" xlink:href="#m585ec87ce6" y="119.498458"/>
     <use style="stroke:#000000;" x="358.497754" xlink:href="#m585ec87ce6" y="118.775742"/>
     <use style="stroke:#000000;" x="358.654933" xlink:href="#m585ec87ce6" y="118.116288"/>
     <use style="stroke:#000000;" x="358.834329" xlink:href="#m585ec87ce6" y="117.363648"/>
     <use style="stroke:#000000;" x="359.018027" xlink:href="#m585ec87ce6" y="116.618001"/>
     <use style="stroke:#000000;" x="359.184269" xlink:href="#m585ec87ce6" y="115.820151"/>
     <use style="stroke:#000000;" x="359.37415" xlink:href="#m585ec87ce6" y="115.010266"/>
     <use style="stroke:#000000;" x="359.546203" xlink:href="#m585ec87ce6" y="114.237136"/>
     <use style="stroke:#000000;" x="359.723379" xlink:href="#m585ec87ce6" y="113.418144"/>
     <use style="stroke:#000000;" x="359.89443" xlink:href="#m585ec87ce6" y="112.713479"/>
     <use style="stroke:#000000;" x="360.228328" xlink:href="#m585ec87ce6" y="110.096479"/>
     <use style="stroke:#000000;" x="360.367077" xlink:href="#m585ec87ce6" y="109.899049"/>
     <use style="stroke:#000000;" x="360.505737" xlink:href="#m585ec87ce6" y="109.621282"/>
     <use style="stroke:#000000;" x="360.666326" xlink:href="#m585ec87ce6" y="109.321884"/>
     <use style="stroke:#000000;" x="360.844369" xlink:href="#m585ec87ce6" y="108.564691"/>
     <use style="stroke:#000000;" x="361.021126" xlink:href="#m585ec87ce6" y="107.64422"/>
     <use style="stroke:#000000;" x="361.201078" xlink:href="#m585ec87ce6" y="106.851574"/>
     <use style="stroke:#000000;" x="361.348266" xlink:href="#m585ec87ce6" y="106.116823"/>
     <use style="stroke:#000000;" x="361.628138" xlink:href="#m585ec87ce6" y="105.71676"/>
     <use style="stroke:#000000;" x="361.802203" xlink:href="#m585ec87ce6" y="105.452165"/>
     <use style="stroke:#000000;" x="362.044907" xlink:href="#m585ec87ce6" y="104.763438"/>
     <use style="stroke:#000000;" x="362.321426" xlink:href="#m585ec87ce6" y="103.869475"/>
     <use style="stroke:#000000;" x="362.891997" xlink:href="#m585ec87ce6" y="102.496249"/>
     <use style="stroke:#000000;" x="363.029112" xlink:href="#m585ec87ce6" y="102.496086"/>
     <use style="stroke:#000000;" x="363.218184" xlink:href="#m585ec87ce6" y="102.200755"/>
     <use style="stroke:#000000;" x="363.474141" xlink:href="#m585ec87ce6" y="101.141563"/>
     <use style="stroke:#000000;" x="363.746894" xlink:href="#m585ec87ce6" y="100.336882"/>
     <use style="stroke:#000000;" x="363.994529" xlink:href="#m585ec87ce6" y="99.484226"/>
     <use style="stroke:#000000;" x="364.230088" xlink:href="#m585ec87ce6" y="98.722317"/>
     <use style="stroke:#000000;" x="364.395268" xlink:href="#m585ec87ce6" y="98.029199"/>
     <use style="stroke:#000000;" x="364.608489" xlink:href="#m585ec87ce6" y="97.104174"/>
     <use style="stroke:#000000;" x="364.813775" xlink:href="#m585ec87ce6" y="96.133288"/>
     <use style="stroke:#000000;" x="365.416799" xlink:href="#m585ec87ce6" y="94.864957"/>
     <use style="stroke:#000000;" x="365.679203" xlink:href="#m585ec87ce6" y="93.97197"/>
     <use style="stroke:#000000;" x="365.936737" xlink:href="#m585ec87ce6" y="93.06581"/>
     <use style="stroke:#000000;" x="366.170537" xlink:href="#m585ec87ce6" y="92.390744"/>
     <use style="stroke:#000000;" x="366.369243" xlink:href="#m585ec87ce6" y="91.515971"/>
     <use style="stroke:#000000;" x="366.58743" xlink:href="#m585ec87ce6" y="90.804313"/>
     <use style="stroke:#000000;" x="366.782451" xlink:href="#m585ec87ce6" y="89.876524"/>
     <use style="stroke:#000000;" x="367.022523" xlink:href="#m585ec87ce6" y="88.885472"/>
     <use style="stroke:#000000;" x="367.329596" xlink:href="#m585ec87ce6" y="88.647548"/>
     <use style="stroke:#000000;" x="367.548005" xlink:href="#m585ec87ce6" y="88.368967"/>
     <use style="stroke:#000000;" x="368.020766" xlink:href="#m585ec87ce6" y="86.458908"/>
     <use style="stroke:#000000;" x="368.178573" xlink:href="#m585ec87ce6" y="86.4485"/>
     <use style="stroke:#000000;" x="368.345465" xlink:href="#m585ec87ce6" y="86.20895"/>
     <use style="stroke:#000000;" x="368.614538" xlink:href="#m585ec87ce6" y="85.41175"/>
     <use style="stroke:#000000;" x="368.959582" xlink:href="#m585ec87ce6" y="83.408831"/>
     <use style="stroke:#000000;" x="369.116037" xlink:href="#m585ec87ce6" y="83.1779"/>
     <use style="stroke:#000000;" x="369.318345" xlink:href="#m585ec87ce6" y="82.78239"/>
     <use style="stroke:#000000;" x="369.541539" xlink:href="#m585ec87ce6" y="82.527716"/>
     <use style="stroke:#000000;" x="369.745211" xlink:href="#m585ec87ce6" y="81.575532"/>
     <use style="stroke:#000000;" x="369.986075" xlink:href="#m585ec87ce6" y="80.905344"/>
     <use style="stroke:#000000;" x="370.155574" xlink:href="#m585ec87ce6" y="80.1784"/>
     <use style="stroke:#000000;" x="370.328397" xlink:href="#m585ec87ce6" y="79.295983"/>
     <use style="stroke:#000000;" x="370.53088" xlink:href="#m585ec87ce6" y="78.578146"/>
     <use style="stroke:#000000;" x="370.694429" xlink:href="#m585ec87ce6" y="77.717359"/>
     <use style="stroke:#000000;" x="370.917158" xlink:href="#m585ec87ce6" y="76.670526"/>
     <use style="stroke:#000000;" x="371.160263" xlink:href="#m585ec87ce6" y="75.749567"/>
     <use style="stroke:#000000;" x="371.377456" xlink:href="#m585ec87ce6" y="75.03791"/>
     <use style="stroke:#000000;" x="371.551654" xlink:href="#m585ec87ce6" y="74.366421"/>
     <use style="stroke:#000000;" x="371.700401" xlink:href="#m585ec87ce6" y="73.360896"/>
     <use style="stroke:#000000;" x="371.896416" xlink:href="#m585ec87ce6" y="72.446604"/>
     <use style="stroke:#000000;" x="372.13426" xlink:href="#m585ec87ce6" y="71.625011"/>
     <use style="stroke:#000000;" x="372.373797" xlink:href="#m585ec87ce6" y="70.820818"/>
     <use style="stroke:#000000;" x="372.6971" xlink:href="#m585ec87ce6" y="70.40872"/>
     <use style="stroke:#000000;" x="372.943378" xlink:href="#m585ec87ce6" y="69.503861"/>
     <use style="stroke:#000000;" x="373.184029" xlink:href="#m585ec87ce6" y="69.094365"/>
     <use style="stroke:#000000;" x="373.385119" xlink:href="#m585ec87ce6" y="68.496547"/>
     <use style="stroke:#000000;" x="373.533543" xlink:href="#m585ec87ce6" y="68.176821"/>
     <use style="stroke:#000000;" x="373.697321" xlink:href="#m585ec87ce6" y="67.57575"/>
     <use style="stroke:#000000;" x="373.843521" xlink:href="#m585ec87ce6" y="66.816768"/>
     <use style="stroke:#000000;" x="374.033605" xlink:href="#m585ec87ce6" y="65.933864"/>
     <use style="stroke:#000000;" x="374.219563" xlink:href="#m585ec87ce6" y="65.180086"/>
     <use style="stroke:#000000;" x="374.413711" xlink:href="#m585ec87ce6" y="64.219934"/>
     <use style="stroke:#000000;" x="374.588404" xlink:href="#m585ec87ce6" y="63.498356"/>
     <use style="stroke:#000000;" x="374.779802" xlink:href="#m585ec87ce6" y="62.628624"/>
     <use style="stroke:#000000;" x="374.954955" xlink:href="#m585ec87ce6" y="61.846549"/>
     <use style="stroke:#000000;" x="375.129946" xlink:href="#m585ec87ce6" y="60.933559"/>
     <use style="stroke:#000000;" x="375.325072" xlink:href="#m585ec87ce6" y="60.023008"/>
     <use style="stroke:#000000;" x="375.534626" xlink:href="#m585ec87ce6" y="59.061554"/>
     <use style="stroke:#000000;" x="375.743815" xlink:href="#m585ec87ce6" y="57.839735"/>
     <use style="stroke:#000000;" x="375.924798" xlink:href="#m585ec87ce6" y="57.280459"/>
     <use style="stroke:#000000;" x="376.158481" xlink:href="#m585ec87ce6" y="55.876171"/>
     <use style="stroke:#000000;" x="376.399294" xlink:href="#m585ec87ce6" y="54.963994"/>
     <use style="stroke:#000000;" x="376.863556" xlink:href="#m585ec87ce6" y="54.10028"/>
     <use style="stroke:#000000;" x="377.196206" xlink:href="#m585ec87ce6" y="53.617601"/>
     <use style="stroke:#000000;" x="377.401028" xlink:href="#m585ec87ce6" y="53.595647"/>
     <use style="stroke:#000000;" x="377.58894" xlink:href="#m585ec87ce6" y="53.568"/>
     <use style="stroke:#000000;" x="377.74926" xlink:href="#m585ec87ce6" y="55.816649"/>
     <use style="stroke:#000000;" x="378.234327" xlink:href="#m585ec87ce6" y="58.819565"/>
     <use style="stroke:#000000;" x="378.437331" xlink:href="#m585ec87ce6" y="58.850789"/>
     <use style="stroke:#000000;" x="378.592276" xlink:href="#m585ec87ce6" y="58.850789"/>
     <use style="stroke:#000000;" x="378.79201" xlink:href="#m585ec87ce6" y="58.850789"/>
     <use style="stroke:#000000;" x="378.931739" xlink:href="#m585ec87ce6" y="58.850789"/>
     <use style="stroke:#000000;" x="379.084848" xlink:href="#m585ec87ce6" y="58.850789"/>
     <use style="stroke:#000000;" x="379.342543" xlink:href="#m585ec87ce6" y="58.850789"/>
     <use style="stroke:#000000;" x="379.606078" xlink:href="#m585ec87ce6" y="58.850789"/>
     <use style="stroke:#000000;" x="379.788878" xlink:href="#m585ec87ce6" y="58.850789"/>
     <use style="stroke:#000000;" x="379.987632" xlink:href="#m585ec87ce6" y="58.850789"/>
     <use style="stroke:#000000;" x="380.183403" xlink:href="#m585ec87ce6" y="58.850789"/>
     <use style="stroke:#000000;" x="380.381327" xlink:href="#m585ec87ce6" y="58.850789"/>
     <use style="stroke:#000000;" x="380.565828" xlink:href="#m585ec87ce6" y="58.850789"/>
     <use style="stroke:#000000;" x="380.809126" xlink:href="#m585ec87ce6" y="56.285179"/>
     <use style="stroke:#000000;" x="381.003907" xlink:href="#m585ec87ce6" y="56.211346"/>
     <use style="stroke:#000000;" x="381.229705" xlink:href="#m585ec87ce6" y="56.210208"/>
     <use style="stroke:#000000;" x="381.482562" xlink:href="#m585ec87ce6" y="56.208907"/>
     <use style="stroke:#000000;" x="381.682663" xlink:href="#m585ec87ce6" y="56.20728"/>
     <use style="stroke:#000000;" x="381.807293" xlink:href="#m585ec87ce6" y="56.20728"/>
     <use style="stroke:#000000;" x="382.042012" xlink:href="#m585ec87ce6" y="57.767853"/>
     <use style="stroke:#000000;" x="382.237883" xlink:href="#m585ec87ce6" y="58.811271"/>
     <use style="stroke:#000000;" x="382.357282" xlink:href="#m585ec87ce6" y="58.811271"/>
     <use style="stroke:#000000;" x="382.599637" xlink:href="#m585ec87ce6" y="57.805908"/>
     <use style="stroke:#000000;" x="382.823089" xlink:href="#m585ec87ce6" y="57.804119"/>
     <use style="stroke:#000000;" x="383.906623" xlink:href="#m585ec87ce6" y="57.801842"/>
     <use style="stroke:#000000;" x="384.156624" xlink:href="#m585ec87ce6" y="57.800704"/>
     <use style="stroke:#000000;" x="384.366752" xlink:href="#m585ec87ce6" y="57.800704"/>
     <use style="stroke:#000000;" x="384.646629" xlink:href="#m585ec87ce6" y="58.802001"/>
     <use style="stroke:#000000;" x="384.843553" xlink:href="#m585ec87ce6" y="58.802001"/>
     <use style="stroke:#000000;" x="385.17684" xlink:href="#m585ec87ce6" y="58.799074"/>
     <use style="stroke:#000000;" x="385.506812" xlink:href="#m585ec87ce6" y="58.704912"/>
     <use style="stroke:#000000;" x="385.694868" xlink:href="#m585ec87ce6" y="57.504722"/>
     <use style="stroke:#000000;" x="385.854753" xlink:href="#m585ec87ce6" y="57.502445"/>
     <use style="stroke:#000000;" x="385.998643" xlink:href="#m585ec87ce6" y="57.499681"/>
     <use style="stroke:#000000;" x="386.509377" xlink:href="#m585ec87ce6" y="57.497079"/>
     <use style="stroke:#000000;" x="386.731867" xlink:href="#m585ec87ce6" y="57.401941"/>
     <use style="stroke:#000000;" x="386.925663" xlink:href="#m585ec87ce6" y="57.400966"/>
     <use style="stroke:#000000;" x="387.133366" xlink:href="#m585ec87ce6" y="57.306642"/>
     <use style="stroke:#000000;" x="387.311852" xlink:href="#m585ec87ce6" y="57.306642"/>
     <use style="stroke:#000000;" x="387.529481" xlink:href="#m585ec87ce6" y="57.306317"/>
     <use style="stroke:#000000;" x="387.731757" xlink:href="#m585ec87ce6" y="57.306317"/>
     <use style="stroke:#000000;" x="387.907402" xlink:href="#m585ec87ce6" y="57.306317"/>
     <use style="stroke:#000000;" x="388.041675" xlink:href="#m585ec87ce6" y="57.306317"/>
     <use style="stroke:#000000;" x="388.181939" xlink:href="#m585ec87ce6" y="57.306317"/>
     <use style="stroke:#000000;" x="388.37327" xlink:href="#m585ec87ce6" y="57.306317"/>
     <use style="stroke:#000000;" x="388.547071" xlink:href="#m585ec87ce6" y="57.306317"/>
     <use style="stroke:#000000;" x="388.723726" xlink:href="#m585ec87ce6" y="57.306317"/>
     <use style="stroke:#000000;" x="388.88782" xlink:href="#m585ec87ce6" y="57.306317"/>
     <use style="stroke:#000000;" x="389.073551" xlink:href="#m585ec87ce6" y="57.305829"/>
     <use style="stroke:#000000;" x="389.346956" xlink:href="#m585ec87ce6" y="57.30469"/>
     <use style="stroke:#000000;" x="389.528949" xlink:href="#m585ec87ce6" y="57.30469"/>
     <use style="stroke:#000000;" x="389.699145" xlink:href="#m585ec87ce6" y="57.30404"/>
     <use style="stroke:#000000;" x="389.802843" xlink:href="#m585ec87ce6" y="57.30404"/>
     <use style="stroke:#000000;" x="389.93378" xlink:href="#m585ec87ce6" y="57.302251"/>
     <use style="stroke:#000000;" x="390.112027" xlink:href="#m585ec87ce6" y="57.302251"/>
     <use style="stroke:#000000;" x="390.284751" xlink:href="#m585ec87ce6" y="57.302251"/>
     <use style="stroke:#000000;" x="390.426948" xlink:href="#m585ec87ce6" y="57.302251"/>
     <use style="stroke:#000000;" x="390.614952" xlink:href="#m585ec87ce6" y="57.302251"/>
     <use style="stroke:#000000;" x="390.84236" xlink:href="#m585ec87ce6" y="57.298998"/>
     <use style="stroke:#000000;" x="391.04489" xlink:href="#m585ec87ce6" y="57.156699"/>
     <use style="stroke:#000000;" x="391.216259" xlink:href="#m585ec87ce6" y="57.156537"/>
     <use style="stroke:#000000;" x="394.221803" xlink:href="#m585ec87ce6" y="57.002854"/>
     <use style="stroke:#000000;" x="394.474027" xlink:href="#m585ec87ce6" y="56.996349"/>
     <use style="stroke:#000000;" x="395.603665" xlink:href="#m585ec87ce6" y="56.980899"/>
     <use style="stroke:#000000;" x="395.773678" xlink:href="#m585ec87ce6" y="56.980736"/>
     <use style="stroke:#000000;" x="395.965843" xlink:href="#m585ec87ce6" y="56.968377"/>
     <use style="stroke:#000000;" x="396.21226" xlink:href="#m585ec87ce6" y="56.807538"/>
     <use style="stroke:#000000;" x="396.313141" xlink:href="#m585ec87ce6" y="56.802009"/>
     <use style="stroke:#000000;" x="396.446444" xlink:href="#m585ec87ce6" y="56.788186"/>
     <use style="stroke:#000000;" x="396.720848" xlink:href="#m585ec87ce6" y="57.985937"/>
     <use style="stroke:#000000;" x="396.919824" xlink:href="#m585ec87ce6" y="57.985937"/>
     <use style="stroke:#000000;" x="397.080316" xlink:href="#m585ec87ce6" y="57.985937"/>
     <use style="stroke:#000000;" x="397.195501" xlink:href="#m585ec87ce6" y="57.985774"/>
     <use style="stroke:#000000;" x="397.293483" xlink:href="#m585ec87ce6" y="57.985774"/>
     <use style="stroke:#000000;" x="397.415629" xlink:href="#m585ec87ce6" y="57.985774"/>
     <use style="stroke:#000000;" x="397.559581" xlink:href="#m585ec87ce6" y="57.985611"/>
     <use style="stroke:#000000;" x="397.707094" xlink:href="#m585ec87ce6" y="57.985611"/>
     <use style="stroke:#000000;" x="397.865329" xlink:href="#m585ec87ce6" y="57.985611"/>
     <use style="stroke:#000000;" x="398.005445" xlink:href="#m585ec87ce6" y="57.985449"/>
     <use style="stroke:#000000;" x="398.161167" xlink:href="#m585ec87ce6" y="57.985449"/>
     <use style="stroke:#000000;" x="398.333648" xlink:href="#m585ec87ce6" y="57.985449"/>
     <use style="stroke:#000000;" x="398.487273" xlink:href="#m585ec87ce6" y="57.985286"/>
    </g>
   </g>
   <g id="patch_3">
    <path d="M 57.6 307.584 
L 57.6 41.472 
" style="fill:none;stroke:#000000;stroke-linecap:square;stroke-linejoin:miter;stroke-width:0.8;"/>
   </g>
   <g id="patch_4">
    <path d="M 414.72 307.584 
L 414.72 41.472 
" style="fill:none;stroke:#000000;stroke-linecap:square;stroke-linejoin:miter;stroke-width:0.8;"/>
   </g>
   <g id="patch_5">
    <path d="M 57.6 307.584 
L 414.72 307.584 
" style="fill:none;stroke:#000000;stroke-linecap:square;stroke-linejoin:miter;stroke-width:0.8;"/>
   </g>
   <g id="patch_6">
    <path d="M 57.6 41.472 
L 414.72 41.472 
" style="fill:none;stroke:#000000;stroke-linecap:square;stroke-linejoin:miter;stroke-width:0.8;"/>
   </g>
   <g id="legend_1">
    <g id="patch_7">
     <path d="M 64.6 64.150125 
L 118.617188 64.150125 
Q 120.617188 64.150125 120.617188 62.150125 
L 120.617188 48.472 
Q 120.617188 46.472 118.617188 46.472 
L 64.6 46.472 
Q 62.6 46.472 62.6 48.472 
L 62.6 62.150125 
Q 62.6 64.150125 64.6 64.150125 
z
" style="fill:#ffffff;opacity:0.8;stroke:#cccccc;stroke-linejoin:miter;"/>
    </g>
    <g id="line2d_31">
     <path d="M 66.6 54.570438 
L 86.6 54.570438 
" style="fill:none;stroke:#000000;stroke-linecap:square;stroke-width:1.5;"/>
    </g>
    <g id="line2d_32">
     <g>
      <use style="stroke:#000000;" x="76.6" xlink:href="#m585ec87ce6" y="54.570438"/>
     </g>
    </g>
    <g id="text_11">
     <!-- RAM -->
     <g transform="translate(94.6 58.070438)scale(0.1 -0.1)">
      <defs>
       <path d="M 44.390625 34.1875 
Q 47.5625 33.109375 50.5625 29.59375 
Q 53.5625 26.078125 56.59375 19.921875 
L 66.609375 0 
L 56 0 
L 46.6875 18.703125 
Q 43.0625 26.03125 39.671875 28.421875 
Q 36.28125 30.8125 30.421875 30.8125 
L 19.671875 30.8125 
L 19.671875 0 
L 9.8125 0 
L 9.8125 72.90625 
L 32.078125 72.90625 
Q 44.578125 72.90625 50.734375 67.671875 
Q 56.890625 62.453125 56.890625 51.90625 
Q 56.890625 45.015625 53.6875 40.46875 
Q 50.484375 35.9375 44.390625 34.1875 
z
M 19.671875 64.796875 
L 19.671875 38.921875 
L 32.078125 38.921875 
Q 39.203125 38.921875 42.84375 42.21875 
Q 46.484375 45.515625 46.484375 51.90625 
Q 46.484375 58.296875 42.84375 61.546875 
Q 39.203125 64.796875 32.078125 64.796875 
z
" id="DejaVuSans-82"/>
       <path d="M 34.1875 63.1875 
L 20.796875 26.90625 
L 47.609375 26.90625 
z
M 28.609375 72.90625 
L 39.796875 72.90625 
L 67.578125 0 
L 57.328125 0 
L 50.6875 18.703125 
L 17.828125 18.703125 
L 11.1875 0 
L 0.78125 0 
z
" id="DejaVuSans-65"/>
      </defs>
      <use xlink:href="#DejaVuSans-82"/>
      <use x="65.482422" xlink:href="#DejaVuSans-65"/>
      <use x="133.890625" xlink:href="#DejaVuSans-77"/>
     </g>
    </g>
   </g>
  </g>
 </g>
 <defs>
  <clipPath id="pde144714a3">
   <rect height="266.112" width="357.12" x="57.6" y="41.472"/>
  </clipPath>
 </defs>
</svg>
