<?xml version="1.0" encoding="utf-8" standalone="no"?>
<!DOCTYPE svg PUBLIC "-//W3C//DTD SVG 1.1//EN"
  "http://www.w3.org/Graphics/SVG/1.1/DTD/svg11.dtd">
<!-- Created with matplotlib (https://matplotlib.org/) -->
<svg height="345.6pt" version="1.1" viewBox="0 0 460.8 345.6" width="460.8pt" xmlns="http://www.w3.org/2000/svg" xmlns:xlink="http://www.w3.org/1999/xlink">
 <metadata>
  <rdf:RDF xmlns:cc="http://creativecommons.org/ns#" xmlns:dc="http://purl.org/dc/elements/1.1/" xmlns:rdf="http://www.w3.org/1999/02/22-rdf-syntax-ns#">
   <cc:Work>
    <dc:type rdf:resource="http://purl.org/dc/dcmitype/StillImage"/>
    <dc:date>2022-08-04T10:03:11.661585</dc:date>
    <dc:format>image/svg+xml</dc:format>
    <dc:creator>
     <cc:Agent>
      <dc:title>Matplotlib v3.3.2, https://matplotlib.org/</dc:title>
     </cc:Agent>
    </dc:creator>
   </cc:Work>
  </rdf:RDF>
 </metadata>
 <defs>
  <style type="text/css">*{stroke-linecap:butt;stroke-linejoin:round;}</style>
 </defs>
 <g id="figure_1">
  <g id="patch_1">
   <path d="M 0 345.6 
L 460.8 345.6 
L 460.8 0 
L 0 0 
z
" style="fill:#ffffff;"/>
  </g>
  <g id="axes_1">
   <g id="patch_2">
    <path d="M 57.6 307.584 
L 414.72 307.584 
L 414.72 41.472 
L 57.6 41.472 
z
" style="fill:#ffffff;"/>
   </g>
   <g id="matplotlib.axis_1">
    <g id="xtick_1">
     <g id="line2d_1">
      <defs>
       <path d="M 0 0 
L 0 3.5 
" id="m9e43d702d5" style="stroke:#000000;stroke-width:0.8;"/>
      </defs>
      <g>
       <use style="stroke:#000000;stroke-width:0.8;" x="77.493704" xlink:href="#m9e43d702d5" y="307.584"/>
      </g>
     </g>
     <g id="text_1">
      <!-- $\mathdefault{10^{2}}$ -->
      <g transform="translate(68.693704 322.182437)scale(0.1 -0.1)">
       <defs>
        <path d="M 12.40625 8.296875 
L 28.515625 8.296875 
L 28.515625 63.921875 
L 10.984375 60.40625 
L 10.984375 69.390625 
L 28.421875 72.90625 
L 38.28125 72.90625 
L 38.28125 8.296875 
L 54.390625 8.296875 
L 54.390625 0 
L 12.40625 0 
z
" id="DejaVuSans-49"/>
        <path d="M 31.78125 66.40625 
Q 24.171875 66.40625 20.328125 58.90625 
Q 16.5 51.421875 16.5 36.375 
Q 16.5 21.390625 20.328125 13.890625 
Q 24.171875 6.390625 31.78125 6.390625 
Q 39.453125 6.390625 43.28125 13.890625 
Q 47.125 21.390625 47.125 36.375 
Q 47.125 51.421875 43.28125 58.90625 
Q 39.453125 66.40625 31.78125 66.40625 
z
M 31.78125 74.21875 
Q 44.046875 74.21875 50.515625 64.515625 
Q 56.984375 54.828125 56.984375 36.375 
Q 56.984375 17.96875 50.515625 8.265625 
Q 44.046875 -1.421875 31.78125 -1.421875 
Q 19.53125 -1.421875 13.0625 8.265625 
Q 6.59375 17.96875 6.59375 36.375 
Q 6.59375 54.828125 13.0625 64.515625 
Q 19.53125 74.21875 31.78125 74.21875 
z
" id="DejaVuSans-48"/>
        <path d="M 19.1875 8.296875 
L 53.609375 8.296875 
L 53.609375 0 
L 7.328125 0 
L 7.328125 8.296875 
Q 12.9375 14.109375 22.625 23.890625 
Q 32.328125 33.6875 34.8125 36.53125 
Q 39.546875 41.84375 41.421875 45.53125 
Q 43.3125 49.21875 43.3125 52.78125 
Q 43.3125 58.59375 39.234375 62.25 
Q 35.15625 65.921875 28.609375 65.921875 
Q 23.96875 65.921875 18.8125 64.3125 
Q 13.671875 62.703125 7.8125 59.421875 
L 7.8125 69.390625 
Q 13.765625 71.78125 18.9375 73 
Q 24.125 74.21875 28.421875 74.21875 
Q 39.75 74.21875 46.484375 68.546875 
Q 53.21875 62.890625 53.21875 53.421875 
Q 53.21875 48.921875 51.53125 44.890625 
Q 49.859375 40.875 45.40625 35.40625 
Q 44.1875 33.984375 37.640625 27.21875 
Q 31.109375 20.453125 19.1875 8.296875 
z
" id="DejaVuSans-50"/>
       </defs>
       <use transform="translate(0 0.765625)" xlink:href="#DejaVuSans-49"/>
       <use transform="translate(63.623047 0.765625)" xlink:href="#DejaVuSans-48"/>
       <use transform="translate(128.203125 39.046875)scale(0.7)" xlink:href="#DejaVuSans-50"/>
      </g>
     </g>
    </g>
    <g id="xtick_2">
     <g id="line2d_2">
      <g>
       <use style="stroke:#000000;stroke-width:0.8;" x="190.461139" xlink:href="#m9e43d702d5" y="307.584"/>
      </g>
     </g>
     <g id="text_2">
      <!-- $\mathdefault{10^{3}}$ -->
      <g transform="translate(181.661139 322.182437)scale(0.1 -0.1)">
       <defs>
        <path d="M 40.578125 39.3125 
Q 47.65625 37.796875 51.625 33 
Q 55.609375 28.21875 55.609375 21.1875 
Q 55.609375 10.40625 48.1875 4.484375 
Q 40.765625 -1.421875 27.09375 -1.421875 
Q 22.515625 -1.421875 17.65625 -0.515625 
Q 12.796875 0.390625 7.625 2.203125 
L 7.625 11.71875 
Q 11.71875 9.328125 16.59375 8.109375 
Q 21.484375 6.890625 26.8125 6.890625 
Q 36.078125 6.890625 40.9375 10.546875 
Q 45.796875 14.203125 45.796875 21.1875 
Q 45.796875 27.640625 41.28125 31.265625 
Q 36.765625 34.90625 28.71875 34.90625 
L 20.21875 34.90625 
L 20.21875 43.015625 
L 29.109375 43.015625 
Q 36.375 43.015625 40.234375 45.921875 
Q 44.09375 48.828125 44.09375 54.296875 
Q 44.09375 59.90625 40.109375 62.90625 
Q 36.140625 65.921875 28.71875 65.921875 
Q 24.65625 65.921875 20.015625 65.03125 
Q 15.375 64.15625 9.8125 62.3125 
L 9.8125 71.09375 
Q 15.4375 72.65625 20.34375 73.4375 
Q 25.25 74.21875 29.59375 74.21875 
Q 40.828125 74.21875 47.359375 69.109375 
Q 53.90625 64.015625 53.90625 55.328125 
Q 53.90625 49.265625 50.4375 45.09375 
Q 46.96875 40.921875 40.578125 39.3125 
z
" id="DejaVuSans-51"/>
       </defs>
       <use transform="translate(0 0.765625)" xlink:href="#DejaVuSans-49"/>
       <use transform="translate(63.623047 0.765625)" xlink:href="#DejaVuSans-48"/>
       <use transform="translate(128.203125 39.046875)scale(0.7)" xlink:href="#DejaVuSans-51"/>
      </g>
     </g>
    </g>
    <g id="xtick_3">
     <g id="line2d_3">
      <g>
       <use style="stroke:#000000;stroke-width:0.8;" x="303.428574" xlink:href="#m9e43d702d5" y="307.584"/>
      </g>
     </g>
     <g id="text_3">
      <!-- $\mathdefault{10^{4}}$ -->
      <g transform="translate(294.628574 322.182437)scale(0.1 -0.1)">
       <defs>
        <path d="M 37.796875 64.3125 
L 12.890625 25.390625 
L 37.796875 25.390625 
z
M 35.203125 72.90625 
L 47.609375 72.90625 
L 47.609375 25.390625 
L 58.015625 25.390625 
L 58.015625 17.1875 
L 47.609375 17.1875 
L 47.609375 0 
L 37.796875 0 
L 37.796875 17.1875 
L 4.890625 17.1875 
L 4.890625 26.703125 
z
" id="DejaVuSans-52"/>
       </defs>
       <use transform="translate(0 0.684375)" xlink:href="#DejaVuSans-49"/>
       <use transform="translate(63.623047 0.684375)" xlink:href="#DejaVuSans-48"/>
       <use transform="translate(128.203125 38.965625)scale(0.7)" xlink:href="#DejaVuSans-52"/>
      </g>
     </g>
    </g>
    <g id="xtick_4">
     <g id="line2d_4">
      <defs>
       <path d="M 0 0 
L 0 2 
" id="m6b66ca6ff5" style="stroke:#000000;stroke-width:0.6;"/>
      </defs>
      <g>
       <use style="stroke:#000000;stroke-width:0.6;" x="59.994827" xlink:href="#m6b66ca6ff5" y="307.584"/>
      </g>
     </g>
    </g>
    <g id="xtick_5">
     <g id="line2d_5">
      <g>
       <use style="stroke:#000000;stroke-width:0.6;" x="66.546028" xlink:href="#m6b66ca6ff5" y="307.584"/>
      </g>
     </g>
    </g>
    <g id="xtick_6">
     <g id="line2d_6">
      <g>
       <use style="stroke:#000000;stroke-width:0.6;" x="72.324597" xlink:href="#m6b66ca6ff5" y="307.584"/>
      </g>
     </g>
    </g>
    <g id="xtick_7">
     <g id="line2d_7">
      <g>
       <use style="stroke:#000000;stroke-width:0.6;" x="111.50029" xlink:href="#m6b66ca6ff5" y="307.584"/>
      </g>
     </g>
    </g>
    <g id="xtick_8">
     <g id="line2d_8">
      <g>
       <use style="stroke:#000000;stroke-width:0.6;" x="131.392868" xlink:href="#m6b66ca6ff5" y="307.584"/>
      </g>
     </g>
    </g>
    <g id="xtick_9">
     <g id="line2d_9">
      <g>
       <use style="stroke:#000000;stroke-width:0.6;" x="145.506877" xlink:href="#m6b66ca6ff5" y="307.584"/>
      </g>
     </g>
    </g>
    <g id="xtick_10">
     <g id="line2d_10">
      <g>
       <use style="stroke:#000000;stroke-width:0.6;" x="156.454552" xlink:href="#m6b66ca6ff5" y="307.584"/>
      </g>
     </g>
    </g>
    <g id="xtick_11">
     <g id="line2d_11">
      <g>
       <use style="stroke:#000000;stroke-width:0.6;" x="165.399455" xlink:href="#m6b66ca6ff5" y="307.584"/>
      </g>
     </g>
    </g>
    <g id="xtick_12">
     <g id="line2d_12">
      <g>
       <use style="stroke:#000000;stroke-width:0.6;" x="172.962262" xlink:href="#m6b66ca6ff5" y="307.584"/>
      </g>
     </g>
    </g>
    <g id="xtick_13">
     <g id="line2d_13">
      <g>
       <use style="stroke:#000000;stroke-width:0.6;" x="179.513463" xlink:href="#m6b66ca6ff5" y="307.584"/>
      </g>
     </g>
    </g>
    <g id="xtick_14">
     <g id="line2d_14">
      <g>
       <use style="stroke:#000000;stroke-width:0.6;" x="185.292032" xlink:href="#m6b66ca6ff5" y="307.584"/>
      </g>
     </g>
    </g>
    <g id="xtick_15">
     <g id="line2d_15">
      <g>
       <use style="stroke:#000000;stroke-width:0.6;" x="224.467725" xlink:href="#m6b66ca6ff5" y="307.584"/>
      </g>
     </g>
    </g>
    <g id="xtick_16">
     <g id="line2d_16">
      <g>
       <use style="stroke:#000000;stroke-width:0.6;" x="244.360303" xlink:href="#m6b66ca6ff5" y="307.584"/>
      </g>
     </g>
    </g>
    <g id="xtick_17">
     <g id="line2d_17">
      <g>
       <use style="stroke:#000000;stroke-width:0.6;" x="258.474312" xlink:href="#m6b66ca6ff5" y="307.584"/>
      </g>
     </g>
    </g>
    <g id="xtick_18">
     <g id="line2d_18">
      <g>
       <use style="stroke:#000000;stroke-width:0.6;" x="269.421987" xlink:href="#m6b66ca6ff5" y="307.584"/>
      </g>
     </g>
    </g>
    <g id="xtick_19">
     <g id="line2d_19">
      <g>
       <use style="stroke:#000000;stroke-width:0.6;" x="278.36689" xlink:href="#m6b66ca6ff5" y="307.584"/>
      </g>
     </g>
    </g>
    <g id="xtick_20">
     <g id="line2d_20">
      <g>
       <use style="stroke:#000000;stroke-width:0.6;" x="285.929697" xlink:href="#m6b66ca6ff5" y="307.584"/>
      </g>
     </g>
    </g>
    <g id="xtick_21">
     <g id="line2d_21">
      <g>
       <use style="stroke:#000000;stroke-width:0.6;" x="292.480898" xlink:href="#m6b66ca6ff5" y="307.584"/>
      </g>
     </g>
    </g>
    <g id="xtick_22">
     <g id="line2d_22">
      <g>
       <use style="stroke:#000000;stroke-width:0.6;" x="298.259467" xlink:href="#m6b66ca6ff5" y="307.584"/>
      </g>
     </g>
    </g>
    <g id="xtick_23">
     <g id="line2d_23">
      <g>
       <use style="stroke:#000000;stroke-width:0.6;" x="337.43516" xlink:href="#m6b66ca6ff5" y="307.584"/>
      </g>
     </g>
    </g>
    <g id="xtick_24">
     <g id="line2d_24">
      <g>
       <use style="stroke:#000000;stroke-width:0.6;" x="357.327738" xlink:href="#m6b66ca6ff5" y="307.584"/>
      </g>
     </g>
    </g>
    <g id="xtick_25">
     <g id="line2d_25">
      <g>
       <use style="stroke:#000000;stroke-width:0.6;" x="371.441747" xlink:href="#m6b66ca6ff5" y="307.584"/>
      </g>
     </g>
    </g>
    <g id="xtick_26">
     <g id="line2d_26">
      <g>
       <use style="stroke:#000000;stroke-width:0.6;" x="382.389422" xlink:href="#m6b66ca6ff5" y="307.584"/>
      </g>
     </g>
    </g>
    <g id="xtick_27">
     <g id="line2d_27">
      <g>
       <use style="stroke:#000000;stroke-width:0.6;" x="391.334325" xlink:href="#m6b66ca6ff5" y="307.584"/>
      </g>
     </g>
    </g>
    <g id="xtick_28">
     <g id="line2d_28">
      <g>
       <use style="stroke:#000000;stroke-width:0.6;" x="398.897132" xlink:href="#m6b66ca6ff5" y="307.584"/>
      </g>
     </g>
    </g>
    <g id="xtick_29">
     <g id="line2d_29">
      <g>
       <use style="stroke:#000000;stroke-width:0.6;" x="405.448333" xlink:href="#m6b66ca6ff5" y="307.584"/>
      </g>
     </g>
    </g>
    <g id="xtick_30">
     <g id="line2d_30">
      <g>
       <use style="stroke:#000000;stroke-width:0.6;" x="411.226902" xlink:href="#m6b66ca6ff5" y="307.584"/>
      </g>
     </g>
    </g>
    <g id="text_4">
     <!-- Execution time (s) -->
     <g transform="translate(190.645156 335.860562)scale(0.1 -0.1)">
      <defs>
       <path d="M 9.8125 72.90625 
L 55.90625 72.90625 
L 55.90625 64.59375 
L 19.671875 64.59375 
L 19.671875 43.015625 
L 54.390625 43.015625 
L 54.390625 34.71875 
L 19.671875 34.71875 
L 19.671875 8.296875 
L 56.78125 8.296875 
L 56.78125 0 
L 9.8125 0 
z
" id="DejaVuSans-69"/>
       <path d="M 54.890625 54.6875 
L 35.109375 28.078125 
L 55.90625 0 
L 45.3125 0 
L 29.390625 21.484375 
L 13.484375 0 
L 2.875 0 
L 24.125 28.609375 
L 4.6875 54.6875 
L 15.28125 54.6875 
L 29.78125 35.203125 
L 44.28125 54.6875 
z
" id="DejaVuSans-120"/>
       <path d="M 56.203125 29.59375 
L 56.203125 25.203125 
L 14.890625 25.203125 
Q 15.484375 15.921875 20.484375 11.0625 
Q 25.484375 6.203125 34.421875 6.203125 
Q 39.59375 6.203125 44.453125 7.46875 
Q 49.3125 8.734375 54.109375 11.28125 
L 54.109375 2.78125 
Q 49.265625 0.734375 44.1875 -0.34375 
Q 39.109375 -1.421875 33.890625 -1.421875 
Q 20.796875 -1.421875 13.15625 6.1875 
Q 5.515625 13.8125 5.515625 26.8125 
Q 5.515625 40.234375 12.765625 48.109375 
Q 20.015625 56 32.328125 56 
Q 43.359375 56 49.78125 48.890625 
Q 56.203125 41.796875 56.203125 29.59375 
z
M 47.21875 32.234375 
Q 47.125 39.59375 43.09375 43.984375 
Q 39.0625 48.390625 32.421875 48.390625 
Q 24.90625 48.390625 20.390625 44.140625 
Q 15.875 39.890625 15.1875 32.171875 
z
" id="DejaVuSans-101"/>
       <path d="M 48.78125 52.59375 
L 48.78125 44.1875 
Q 44.96875 46.296875 41.140625 47.34375 
Q 37.3125 48.390625 33.40625 48.390625 
Q 24.65625 48.390625 19.8125 42.84375 
Q 14.984375 37.3125 14.984375 27.296875 
Q 14.984375 17.28125 19.8125 11.734375 
Q 24.65625 6.203125 33.40625 6.203125 
Q 37.3125 6.203125 41.140625 7.25 
Q 44.96875 8.296875 48.78125 10.40625 
L 48.78125 2.09375 
Q 45.015625 0.34375 40.984375 -0.53125 
Q 36.96875 -1.421875 32.421875 -1.421875 
Q 20.0625 -1.421875 12.78125 6.34375 
Q 5.515625 14.109375 5.515625 27.296875 
Q 5.515625 40.671875 12.859375 48.328125 
Q 20.21875 56 33.015625 56 
Q 37.15625 56 41.109375 55.140625 
Q 45.0625 54.296875 48.78125 52.59375 
z
" id="DejaVuSans-99"/>
       <path d="M 8.5 21.578125 
L 8.5 54.6875 
L 17.484375 54.6875 
L 17.484375 21.921875 
Q 17.484375 14.15625 20.5 10.265625 
Q 23.53125 6.390625 29.59375 6.390625 
Q 36.859375 6.390625 41.078125 11.03125 
Q 45.3125 15.671875 45.3125 23.6875 
L 45.3125 54.6875 
L 54.296875 54.6875 
L 54.296875 0 
L 45.3125 0 
L 45.3125 8.40625 
Q 42.046875 3.421875 37.71875 1 
Q 33.40625 -1.421875 27.6875 -1.421875 
Q 18.265625 -1.421875 13.375 4.4375 
Q 8.5 10.296875 8.5 21.578125 
z
M 31.109375 56 
z
" id="DejaVuSans-117"/>
       <path d="M 18.3125 70.21875 
L 18.3125 54.6875 
L 36.8125 54.6875 
L 36.8125 47.703125 
L 18.3125 47.703125 
L 18.3125 18.015625 
Q 18.3125 11.328125 20.140625 9.421875 
Q 21.96875 7.515625 27.59375 7.515625 
L 36.8125 7.515625 
L 36.8125 0 
L 27.59375 0 
Q 17.1875 0 13.234375 3.875 
Q 9.28125 7.765625 9.28125 18.015625 
L 9.28125 47.703125 
L 2.6875 47.703125 
L 2.6875 54.6875 
L 9.28125 54.6875 
L 9.28125 70.21875 
z
" id="DejaVuSans-116"/>
       <path d="M 9.421875 54.6875 
L 18.40625 54.6875 
L 18.40625 0 
L 9.421875 0 
z
M 9.421875 75.984375 
L 18.40625 75.984375 
L 18.40625 64.59375 
L 9.421875 64.59375 
z
" id="DejaVuSans-105"/>
       <path d="M 30.609375 48.390625 
Q 23.390625 48.390625 19.1875 42.75 
Q 14.984375 37.109375 14.984375 27.296875 
Q 14.984375 17.484375 19.15625 11.84375 
Q 23.34375 6.203125 30.609375 6.203125 
Q 37.796875 6.203125 41.984375 11.859375 
Q 46.1875 17.53125 46.1875 27.296875 
Q 46.1875 37.015625 41.984375 42.703125 
Q 37.796875 48.390625 30.609375 48.390625 
z
M 30.609375 56 
Q 42.328125 56 49.015625 48.375 
Q 55.71875 40.765625 55.71875 27.296875 
Q 55.71875 13.875 49.015625 6.21875 
Q 42.328125 -1.421875 30.609375 -1.421875 
Q 18.84375 -1.421875 12.171875 6.21875 
Q 5.515625 13.875 5.515625 27.296875 
Q 5.515625 40.765625 12.171875 48.375 
Q 18.84375 56 30.609375 56 
z
" id="DejaVuSans-111"/>
       <path d="M 54.890625 33.015625 
L 54.890625 0 
L 45.90625 0 
L 45.90625 32.71875 
Q 45.90625 40.484375 42.875 44.328125 
Q 39.84375 48.1875 33.796875 48.1875 
Q 26.515625 48.1875 22.3125 43.546875 
Q 18.109375 38.921875 18.109375 30.90625 
L 18.109375 0 
L 9.078125 0 
L 9.078125 54.6875 
L 18.109375 54.6875 
L 18.109375 46.1875 
Q 21.34375 51.125 25.703125 53.5625 
Q 30.078125 56 35.796875 56 
Q 45.21875 56 50.046875 50.171875 
Q 54.890625 44.34375 54.890625 33.015625 
z
" id="DejaVuSans-110"/>
       <path id="DejaVuSans-32"/>
       <path d="M 52 44.1875 
Q 55.375 50.25 60.0625 53.125 
Q 64.75 56 71.09375 56 
Q 79.640625 56 84.28125 50.015625 
Q 88.921875 44.046875 88.921875 33.015625 
L 88.921875 0 
L 79.890625 0 
L 79.890625 32.71875 
Q 79.890625 40.578125 77.09375 44.375 
Q 74.3125 48.1875 68.609375 48.1875 
Q 61.625 48.1875 57.5625 43.546875 
Q 53.515625 38.921875 53.515625 30.90625 
L 53.515625 0 
L 44.484375 0 
L 44.484375 32.71875 
Q 44.484375 40.625 41.703125 44.40625 
Q 38.921875 48.1875 33.109375 48.1875 
Q 26.21875 48.1875 22.15625 43.53125 
Q 18.109375 38.875 18.109375 30.90625 
L 18.109375 0 
L 9.078125 0 
L 9.078125 54.6875 
L 18.109375 54.6875 
L 18.109375 46.1875 
Q 21.1875 51.21875 25.484375 53.609375 
Q 29.78125 56 35.6875 56 
Q 41.65625 56 45.828125 52.96875 
Q 50 49.953125 52 44.1875 
z
" id="DejaVuSans-109"/>
       <path d="M 31 75.875 
Q 24.46875 64.65625 21.28125 53.65625 
Q 18.109375 42.671875 18.109375 31.390625 
Q 18.109375 20.125 21.3125 9.0625 
Q 24.515625 -2 31 -13.1875 
L 23.1875 -13.1875 
Q 15.875 -1.703125 12.234375 9.375 
Q 8.59375 20.453125 8.59375 31.390625 
Q 8.59375 42.28125 12.203125 53.3125 
Q 15.828125 64.359375 23.1875 75.875 
z
" id="DejaVuSans-40"/>
       <path d="M 44.28125 53.078125 
L 44.28125 44.578125 
Q 40.484375 46.53125 36.375 47.5 
Q 32.28125 48.484375 27.875 48.484375 
Q 21.1875 48.484375 17.84375 46.4375 
Q 14.5 44.390625 14.5 40.28125 
Q 14.5 37.15625 16.890625 35.375 
Q 19.28125 33.59375 26.515625 31.984375 
L 29.59375 31.296875 
Q 39.15625 29.25 43.1875 25.515625 
Q 47.21875 21.78125 47.21875 15.09375 
Q 47.21875 7.46875 41.1875 3.015625 
Q 35.15625 -1.421875 24.609375 -1.421875 
Q 20.21875 -1.421875 15.453125 -0.5625 
Q 10.6875 0.296875 5.421875 2 
L 5.421875 11.28125 
Q 10.40625 8.6875 15.234375 7.390625 
Q 20.0625 6.109375 24.8125 6.109375 
Q 31.15625 6.109375 34.5625 8.28125 
Q 37.984375 10.453125 37.984375 14.40625 
Q 37.984375 18.0625 35.515625 20.015625 
Q 33.0625 21.96875 24.703125 23.78125 
L 21.578125 24.515625 
Q 13.234375 26.265625 9.515625 29.90625 
Q 5.8125 33.546875 5.8125 39.890625 
Q 5.8125 47.609375 11.28125 51.796875 
Q 16.75 56 26.8125 56 
Q 31.78125 56 36.171875 55.265625 
Q 40.578125 54.546875 44.28125 53.078125 
z
" id="DejaVuSans-115"/>
       <path d="M 8.015625 75.875 
L 15.828125 75.875 
Q 23.140625 64.359375 26.78125 53.3125 
Q 30.421875 42.28125 30.421875 31.390625 
Q 30.421875 20.453125 26.78125 9.375 
Q 23.140625 -1.703125 15.828125 -13.1875 
L 8.015625 -13.1875 
Q 14.5 -2 17.703125 9.0625 
Q 20.90625 20.125 20.90625 31.390625 
Q 20.90625 42.671875 17.703125 53.65625 
Q 14.5 64.65625 8.015625 75.875 
z
" id="DejaVuSans-41"/>
      </defs>
      <use xlink:href="#DejaVuSans-69"/>
      <use x="63.183594" xlink:href="#DejaVuSans-120"/>
      <use x="119.238281" xlink:href="#DejaVuSans-101"/>
      <use x="180.761719" xlink:href="#DejaVuSans-99"/>
      <use x="235.742188" xlink:href="#DejaVuSans-117"/>
      <use x="299.121094" xlink:href="#DejaVuSans-116"/>
      <use x="338.330078" xlink:href="#DejaVuSans-105"/>
      <use x="366.113281" xlink:href="#DejaVuSans-111"/>
      <use x="427.294922" xlink:href="#DejaVuSans-110"/>
      <use x="490.673828" xlink:href="#DejaVuSans-32"/>
      <use x="522.460938" xlink:href="#DejaVuSans-116"/>
      <use x="561.669922" xlink:href="#DejaVuSans-105"/>
      <use x="589.453125" xlink:href="#DejaVuSans-109"/>
      <use x="686.865234" xlink:href="#DejaVuSans-101"/>
      <use x="748.388672" xlink:href="#DejaVuSans-32"/>
      <use x="780.175781" xlink:href="#DejaVuSans-40"/>
      <use x="819.189453" xlink:href="#DejaVuSans-115"/>
      <use x="871.289062" xlink:href="#DejaVuSans-41"/>
     </g>
    </g>
   </g>
   <g id="matplotlib.axis_2">
    <g id="ytick_1">
     <g id="line2d_31">
      <defs>
       <path d="M 0 0 
L -3.5 0 
" id="m8b17167a81" style="stroke:#000000;stroke-width:0.8;"/>
      </defs>
      <g>
       <use style="stroke:#000000;stroke-width:0.8;" x="57.6" xlink:href="#m8b17167a81" y="276.097426"/>
      </g>
     </g>
     <g id="text_5">
      <!-- 2000 -->
      <g transform="translate(25.15 279.896645)scale(0.1 -0.1)">
       <use xlink:href="#DejaVuSans-50"/>
       <use x="63.623047" xlink:href="#DejaVuSans-48"/>
       <use x="127.246094" xlink:href="#DejaVuSans-48"/>
       <use x="190.869141" xlink:href="#DejaVuSans-48"/>
      </g>
     </g>
    </g>
    <g id="ytick_2">
     <g id="line2d_32">
      <g>
       <use style="stroke:#000000;stroke-width:0.8;" x="57.6" xlink:href="#m8b17167a81" y="228.692926"/>
      </g>
     </g>
     <g id="text_6">
      <!-- 2500 -->
      <g transform="translate(25.15 232.492144)scale(0.1 -0.1)">
       <defs>
        <path d="M 10.796875 72.90625 
L 49.515625 72.90625 
L 49.515625 64.59375 
L 19.828125 64.59375 
L 19.828125 46.734375 
Q 21.96875 47.46875 24.109375 47.828125 
Q 26.265625 48.1875 28.421875 48.1875 
Q 40.625 48.1875 47.75 41.5 
Q 54.890625 34.8125 54.890625 23.390625 
Q 54.890625 11.625 47.5625 5.09375 
Q 40.234375 -1.421875 26.90625 -1.421875 
Q 22.3125 -1.421875 17.546875 -0.640625 
Q 12.796875 0.140625 7.71875 1.703125 
L 7.71875 11.625 
Q 12.109375 9.234375 16.796875 8.0625 
Q 21.484375 6.890625 26.703125 6.890625 
Q 35.15625 6.890625 40.078125 11.328125 
Q 45.015625 15.765625 45.015625 23.390625 
Q 45.015625 31 40.078125 35.4375 
Q 35.15625 39.890625 26.703125 39.890625 
Q 22.75 39.890625 18.8125 39.015625 
Q 14.890625 38.140625 10.796875 36.28125 
z
" id="DejaVuSans-53"/>
       </defs>
       <use xlink:href="#DejaVuSans-50"/>
       <use x="63.623047" xlink:href="#DejaVuSans-53"/>
       <use x="127.246094" xlink:href="#DejaVuSans-48"/>
       <use x="190.869141" xlink:href="#DejaVuSans-48"/>
      </g>
     </g>
    </g>
    <g id="ytick_3">
     <g id="line2d_33">
      <g>
       <use style="stroke:#000000;stroke-width:0.8;" x="57.6" xlink:href="#m8b17167a81" y="181.288425"/>
      </g>
     </g>
     <g id="text_7">
      <!-- 3000 -->
      <g transform="translate(25.15 185.087644)scale(0.1 -0.1)">
       <use xlink:href="#DejaVuSans-51"/>
       <use x="63.623047" xlink:href="#DejaVuSans-48"/>
       <use x="127.246094" xlink:href="#DejaVuSans-48"/>
       <use x="190.869141" xlink:href="#DejaVuSans-48"/>
      </g>
     </g>
    </g>
    <g id="ytick_4">
     <g id="line2d_34">
      <g>
       <use style="stroke:#000000;stroke-width:0.8;" x="57.6" xlink:href="#m8b17167a81" y="133.883924"/>
      </g>
     </g>
     <g id="text_8">
      <!-- 3500 -->
      <g transform="translate(25.15 137.683143)scale(0.1 -0.1)">
       <use xlink:href="#DejaVuSans-51"/>
       <use x="63.623047" xlink:href="#DejaVuSans-53"/>
       <use x="127.246094" xlink:href="#DejaVuSans-48"/>
       <use x="190.869141" xlink:href="#DejaVuSans-48"/>
      </g>
     </g>
    </g>
    <g id="ytick_5">
     <g id="line2d_35">
      <g>
       <use style="stroke:#000000;stroke-width:0.8;" x="57.6" xlink:href="#m8b17167a81" y="86.479423"/>
      </g>
     </g>
     <g id="text_9">
      <!-- 4000 -->
      <g transform="translate(25.15 90.278642)scale(0.1 -0.1)">
       <use xlink:href="#DejaVuSans-52"/>
       <use x="63.623047" xlink:href="#DejaVuSans-48"/>
       <use x="127.246094" xlink:href="#DejaVuSans-48"/>
       <use x="190.869141" xlink:href="#DejaVuSans-48"/>
      </g>
     </g>
    </g>
    <g id="text_10">
     <!-- Memory (MB) -->
     <g transform="translate(19.070312 208.098312)rotate(-90)scale(0.1 -0.1)">
      <defs>
       <path d="M 9.8125 72.90625 
L 24.515625 72.90625 
L 43.109375 23.296875 
L 61.8125 72.90625 
L 76.515625 72.90625 
L 76.515625 0 
L 66.890625 0 
L 66.890625 64.015625 
L 48.09375 14.015625 
L 38.1875 14.015625 
L 19.390625 64.015625 
L 19.390625 0 
L 9.8125 0 
z
" id="DejaVuSans-77"/>
       <path d="M 41.109375 46.296875 
Q 39.59375 47.171875 37.8125 47.578125 
Q 36.03125 48 33.890625 48 
Q 26.265625 48 22.1875 43.046875 
Q 18.109375 38.09375 18.109375 28.8125 
L 18.109375 0 
L 9.078125 0 
L 9.078125 54.6875 
L 18.109375 54.6875 
L 18.109375 46.1875 
Q 20.953125 51.171875 25.484375 53.578125 
Q 30.03125 56 36.53125 56 
Q 37.453125 56 38.578125 55.875 
Q 39.703125 55.765625 41.0625 55.515625 
z
" id="DejaVuSans-114"/>
       <path d="M 32.171875 -5.078125 
Q 28.375 -14.84375 24.75 -17.8125 
Q 21.140625 -20.796875 15.09375 -20.796875 
L 7.90625 -20.796875 
L 7.90625 -13.28125 
L 13.1875 -13.28125 
Q 16.890625 -13.28125 18.9375 -11.515625 
Q 21 -9.765625 23.484375 -3.21875 
L 25.09375 0.875 
L 2.984375 54.6875 
L 12.5 54.6875 
L 29.59375 11.921875 
L 46.6875 54.6875 
L 56.203125 54.6875 
z
" id="DejaVuSans-121"/>
       <path d="M 19.671875 34.8125 
L 19.671875 8.109375 
L 35.5 8.109375 
Q 43.453125 8.109375 47.28125 11.40625 
Q 51.125 14.703125 51.125 21.484375 
Q 51.125 28.328125 47.28125 31.5625 
Q 43.453125 34.8125 35.5 34.8125 
z
M 19.671875 64.796875 
L 19.671875 42.828125 
L 34.28125 42.828125 
Q 41.5 42.828125 45.03125 45.53125 
Q 48.578125 48.25 48.578125 53.8125 
Q 48.578125 59.328125 45.03125 62.0625 
Q 41.5 64.796875 34.28125 64.796875 
z
M 9.8125 72.90625 
L 35.015625 72.90625 
Q 46.296875 72.90625 52.390625 68.21875 
Q 58.5 63.53125 58.5 54.890625 
Q 58.5 48.1875 55.375 44.234375 
Q 52.25 40.28125 46.1875 39.3125 
Q 53.46875 37.75 57.5 32.78125 
Q 61.53125 27.828125 61.53125 20.40625 
Q 61.53125 10.640625 54.890625 5.3125 
Q 48.25 0 35.984375 0 
L 9.8125 0 
z
" id="DejaVuSans-66"/>
      </defs>
      <use xlink:href="#DejaVuSans-77"/>
      <use x="86.279297" xlink:href="#DejaVuSans-101"/>
      <use x="147.802734" xlink:href="#DejaVuSans-109"/>
      <use x="245.214844" xlink:href="#DejaVuSans-111"/>
      <use x="306.396484" xlink:href="#DejaVuSans-114"/>
      <use x="347.509766" xlink:href="#DejaVuSans-121"/>
      <use x="406.689453" xlink:href="#DejaVuSans-32"/>
      <use x="438.476562" xlink:href="#DejaVuSans-40"/>
      <use x="477.490234" xlink:href="#DejaVuSans-77"/>
      <use x="563.769531" xlink:href="#DejaVuSans-66"/>
      <use x="632.373047" xlink:href="#DejaVuSans-41"/>
     </g>
    </g>
   </g>
   <g id="line2d_36">
    <path clip-path="url(#p38df790082)" d="M 73.832727 295.488 
L 78.424489 294.921027 
L 81.886249 294.915202 
L 85.818743 294.502399 
L 91.856404 292.171208 
L 96.583958 291.35065 
L 105.344651 286.650211 
L 109.777021 285.948097 
L 114.477923 283.08333 
L 118.408161 282.511697 
L 122.168056 281.742788 
L 126.740309 277.547188 
L 131.556975 278.723463 
L 135.515243 275.307256 
L 139.355621 273.727887 
L 143.024187 272.692967 
L 146.193026 272.67821 
L 149.467082 271.692609 
L 152.450007 271.677464 
L 155.593755 270.348573 
L 158.768793 269.322196 
L 161.663241 268.215045 
L 164.5449 266.641501 
L 170.19784 259.972578 
L 172.780666 258.025842 
L 175.333968 254.647304 
L 177.846141 249.92939 
L 180.461384 243.724919 
L 182.901534 241.023253 
L 185.135458 236.455626 
L 187.417386 230.962201 
L 189.676621 227.546771 
L 191.931347 225.36043 
L 194.584605 220.284857 
L 196.716019 217.365334 
L 198.948563 217.211941 
L 201.353999 213.953788 
L 203.34313 210.877377 
L 205.311672 208.303086 
L 207.207322 206.324118 
L 209.200632 203.87526 
L 211.213716 201.900175 
L 213.100876 201.248544 
L 214.977822 200.43187 
L 218.330989 195.165623 
L 219.994854 193.73421 
L 221.693626 193.056561 
L 223.376772 191.255839 
L 224.956533 190.523434 
L 226.562853 188.143701 
L 228.119698 186.442006 
L 229.713664 183.765971 
L 231.31392 181.700403 
L 233.091073 176.182513 
L 236.147517 174.785274 
L 237.653649 173.708802 
L 239.05384 173.154644 
L 240.430744 172.17681 
L 242.364967 168.759438 
L 243.997207 167.989364 
L 245.318661 164.247731 
L 246.555527 163.382515 
L 249.023201 159.293319 
L 250.245158 157.508519 
L 251.443624 156.13225 
L 252.643563 149.285857 
L 253.86747 148.537142 
L 256.224724 148.366662 
L 257.382293 147.114273 
L 258.499595 147.089808 
L 259.631254 145.916251 
L 260.751721 144.519401 
L 261.820298 143.841751 
L 262.915649 141.713273 
L 263.991928 140.012354 
L 266.12728 135.785687 
L 267.164351 134.138746 
L 268.200496 133.355081 
L 269.244366 131.675521 
L 270.280831 130.7272 
L 271.301345 129.576944 
L 272.29734 127.072166 
L 275.239856 122.301826 
L 276.20969 121.030797 
L 277.222598 118.934162 
L 278.186257 116.589767 
L 279.116178 114.811957 
L 280.044747 113.327342 
L 281.88882 109.242807 
L 282.791303 107.054136 
L 283.869947 103.860058 
L 284.791724 104.237911 
L 285.671699 104.221212 
L 286.735554 107.100348 
L 289.323035 106.988507 
L 291.015894 106.800551 
L 292.687976 106.636284 
L 295.857269 106.52755 
L 296.645331 102.333115 
L 297.414084 102.319911 
L 298.180919 102.129626 
L 299.733985 102.07021 
L 307.139973 102.069433 
L 307.84564 101.741288 
L 308.547379 101.741288 
L 309.951155 101.372756 
L 312.695537 101.34363 
L 313.354524 101.165383 
L 317.253119 100.99335 
L 317.874806 100.803841 
L 318.504803 100.749862 
L 320.404043 100.028719 
L 325.266116 99.698243 
L 325.84494 99.5332 
L 326.993325 99.532423 
L 328.120352 99.337089 
L 328.707857 100.523461 
L 329.884451 100.598022 
L 331.5461 100.598022 
L 332.158693 105.200212 
L 350.995838 105.151281 
L 351.45088 104.967597 
L 359.220959 104.840611 
L 359.638922 104.618093 
L 362.926249 104.463923 
L 363.33327 104.220047 
L 363.732457 104.217329 
L 364.12745 103.919862 
L 364.536251 103.792876 
L 364.938612 103.792099 
L 365.342378 103.229398 
L 366.516738 100.73161 
L 366.903207 99.843093 
L 367.297817 98.199648 
L 367.682845 95.683609 
L 368.44466 92.71166 
L 369.222222 90.940064 
L 369.986857 89.189826 
L 370.366294 86.968535 
L 370.769648 88.378589 
L 371.147309 88.004231 
L 371.51786 87.942486 
L 372.288461 81.055317 
L 372.646203 80.428928 
L 373.790356 73.55807 
L 374.151387 72.726639 
L 375.257697 67.15477 
L 375.616155 63.140135 
L 375.97021 61.985607 
L 376.322544 59.765481 
L 376.699383 59.158121 
L 377.063831 56.880909 
L 379.501054 56.872754 
L 379.852955 54.72214 
L 380.22982 53.570718 
L 380.570817 53.568 
L 380.925235 56.817221 
L 383.240422 56.806348 
L 383.574166 56.604801 
L 384.553418 56.572957 
L 384.873023 56.298402 
L 385.520255 56.294519 
L 385.8389 56.014139 
L 386.513474 56.015692 
L 387.146225 55.990062 
L 387.461716 56.605577 
L 387.78163 56.243647 
L 388.095402 56.241705 
L 388.724751 55.601336 
L 389.961715 55.403284 
L 390.271332 55.368722 
L 390.582719 54.751653 
L 395.842212 54.338074 
L 396.139945 53.922164 
L 396.725262 53.858865 
L 397.018046 54.793982 
L 397.313537 54.793982 
L 397.608394 55.241347 
L 397.911505 55.390469 
L 398.487273 55.390469 
L 398.487273 55.390469 
" style="fill:none;stroke:#000000;stroke-linecap:square;stroke-width:1.5;"/>
    <defs>
     <path d="M 0 3 
C 0.795609 3 1.55874 2.683901 2.12132 2.12132 
C 2.683901 1.55874 3 0.795609 3 0 
C 3 -0.795609 2.683901 -1.55874 2.12132 -2.12132 
C 1.55874 -2.683901 0.795609 -3 0 -3 
C -0.795609 -3 -1.55874 -2.683901 -2.12132 -2.12132 
C -2.683901 -1.55874 -3 -0.795609 -3 0 
C -3 0.795609 -2.683901 1.55874 -2.12132 2.12132 
C -1.55874 2.683901 -0.795609 3 0 3 
z
" id="mee4157d22a" style="stroke:#000000;"/>
    </defs>
    <g clip-path="url(#p38df790082)">
     <use style="stroke:#000000;" x="73.832727" xlink:href="#mee4157d22a" y="295.488"/>
     <use style="stroke:#000000;" x="78.424489" xlink:href="#mee4157d22a" y="294.921027"/>
     <use style="stroke:#000000;" x="81.886249" xlink:href="#mee4157d22a" y="294.915202"/>
     <use style="stroke:#000000;" x="85.818743" xlink:href="#mee4157d22a" y="294.502399"/>
     <use style="stroke:#000000;" x="91.856404" xlink:href="#mee4157d22a" y="292.171208"/>
     <use style="stroke:#000000;" x="96.583958" xlink:href="#mee4157d22a" y="291.35065"/>
     <use style="stroke:#000000;" x="100.830443" xlink:href="#mee4157d22a" y="289.079263"/>
     <use style="stroke:#000000;" x="105.344651" xlink:href="#mee4157d22a" y="286.650211"/>
     <use style="stroke:#000000;" x="109.777021" xlink:href="#mee4157d22a" y="285.948097"/>
     <use style="stroke:#000000;" x="114.477923" xlink:href="#mee4157d22a" y="283.08333"/>
     <use style="stroke:#000000;" x="118.408161" xlink:href="#mee4157d22a" y="282.511697"/>
     <use style="stroke:#000000;" x="122.168056" xlink:href="#mee4157d22a" y="281.742788"/>
     <use style="stroke:#000000;" x="126.740309" xlink:href="#mee4157d22a" y="277.547188"/>
     <use style="stroke:#000000;" x="131.556975" xlink:href="#mee4157d22a" y="278.723463"/>
     <use style="stroke:#000000;" x="135.515243" xlink:href="#mee4157d22a" y="275.307256"/>
     <use style="stroke:#000000;" x="139.355621" xlink:href="#mee4157d22a" y="273.727887"/>
     <use style="stroke:#000000;" x="143.024187" xlink:href="#mee4157d22a" y="272.692967"/>
     <use style="stroke:#000000;" x="146.193026" xlink:href="#mee4157d22a" y="272.67821"/>
     <use style="stroke:#000000;" x="149.467082" xlink:href="#mee4157d22a" y="271.692609"/>
     <use style="stroke:#000000;" x="152.450007" xlink:href="#mee4157d22a" y="271.677464"/>
     <use style="stroke:#000000;" x="155.593755" xlink:href="#mee4157d22a" y="270.348573"/>
     <use style="stroke:#000000;" x="158.768793" xlink:href="#mee4157d22a" y="269.322196"/>
     <use style="stroke:#000000;" x="161.663241" xlink:href="#mee4157d22a" y="268.215045"/>
     <use style="stroke:#000000;" x="164.5449" xlink:href="#mee4157d22a" y="266.641501"/>
     <use style="stroke:#000000;" x="167.391339" xlink:href="#mee4157d22a" y="263.328204"/>
     <use style="stroke:#000000;" x="170.19784" xlink:href="#mee4157d22a" y="259.972578"/>
     <use style="stroke:#000000;" x="172.780666" xlink:href="#mee4157d22a" y="258.025842"/>
     <use style="stroke:#000000;" x="175.333968" xlink:href="#mee4157d22a" y="254.647304"/>
     <use style="stroke:#000000;" x="177.846141" xlink:href="#mee4157d22a" y="249.92939"/>
     <use style="stroke:#000000;" x="180.461384" xlink:href="#mee4157d22a" y="243.724919"/>
     <use style="stroke:#000000;" x="182.901534" xlink:href="#mee4157d22a" y="241.023253"/>
     <use style="stroke:#000000;" x="185.135458" xlink:href="#mee4157d22a" y="236.455626"/>
     <use style="stroke:#000000;" x="187.417386" xlink:href="#mee4157d22a" y="230.962201"/>
     <use style="stroke:#000000;" x="189.676621" xlink:href="#mee4157d22a" y="227.546771"/>
     <use style="stroke:#000000;" x="191.931347" xlink:href="#mee4157d22a" y="225.36043"/>
     <use style="stroke:#000000;" x="194.584605" xlink:href="#mee4157d22a" y="220.284857"/>
     <use style="stroke:#000000;" x="196.716019" xlink:href="#mee4157d22a" y="217.365334"/>
     <use style="stroke:#000000;" x="198.948563" xlink:href="#mee4157d22a" y="217.211941"/>
     <use style="stroke:#000000;" x="201.353999" xlink:href="#mee4157d22a" y="213.953788"/>
     <use style="stroke:#000000;" x="203.34313" xlink:href="#mee4157d22a" y="210.877377"/>
     <use style="stroke:#000000;" x="205.311672" xlink:href="#mee4157d22a" y="208.303086"/>
     <use style="stroke:#000000;" x="207.207322" xlink:href="#mee4157d22a" y="206.324118"/>
     <use style="stroke:#000000;" x="209.200632" xlink:href="#mee4157d22a" y="203.87526"/>
     <use style="stroke:#000000;" x="211.213716" xlink:href="#mee4157d22a" y="201.900175"/>
     <use style="stroke:#000000;" x="213.100876" xlink:href="#mee4157d22a" y="201.248544"/>
     <use style="stroke:#000000;" x="214.977822" xlink:href="#mee4157d22a" y="200.43187"/>
     <use style="stroke:#000000;" x="216.657116" xlink:href="#mee4157d22a" y="197.73836"/>
     <use style="stroke:#000000;" x="218.330989" xlink:href="#mee4157d22a" y="195.165623"/>
     <use style="stroke:#000000;" x="219.994854" xlink:href="#mee4157d22a" y="193.73421"/>
     <use style="stroke:#000000;" x="221.693626" xlink:href="#mee4157d22a" y="193.056561"/>
     <use style="stroke:#000000;" x="223.376772" xlink:href="#mee4157d22a" y="191.255839"/>
     <use style="stroke:#000000;" x="224.956533" xlink:href="#mee4157d22a" y="190.523434"/>
     <use style="stroke:#000000;" x="226.562853" xlink:href="#mee4157d22a" y="188.143701"/>
     <use style="stroke:#000000;" x="228.119698" xlink:href="#mee4157d22a" y="186.442006"/>
     <use style="stroke:#000000;" x="229.713664" xlink:href="#mee4157d22a" y="183.765971"/>
     <use style="stroke:#000000;" x="231.31392" xlink:href="#mee4157d22a" y="181.700403"/>
     <use style="stroke:#000000;" x="233.091073" xlink:href="#mee4157d22a" y="176.182513"/>
     <use style="stroke:#000000;" x="234.622059" xlink:href="#mee4157d22a" y="175.493602"/>
     <use style="stroke:#000000;" x="236.147517" xlink:href="#mee4157d22a" y="174.785274"/>
     <use style="stroke:#000000;" x="237.653649" xlink:href="#mee4157d22a" y="173.708802"/>
     <use style="stroke:#000000;" x="239.05384" xlink:href="#mee4157d22a" y="173.154644"/>
     <use style="stroke:#000000;" x="240.430744" xlink:href="#mee4157d22a" y="172.17681"/>
     <use style="stroke:#000000;" x="242.364967" xlink:href="#mee4157d22a" y="168.759438"/>
     <use style="stroke:#000000;" x="243.997207" xlink:href="#mee4157d22a" y="167.989364"/>
     <use style="stroke:#000000;" x="245.318661" xlink:href="#mee4157d22a" y="164.247731"/>
     <use style="stroke:#000000;" x="246.555527" xlink:href="#mee4157d22a" y="163.382515"/>
     <use style="stroke:#000000;" x="247.79928" xlink:href="#mee4157d22a" y="161.267239"/>
     <use style="stroke:#000000;" x="249.023201" xlink:href="#mee4157d22a" y="159.293319"/>
     <use style="stroke:#000000;" x="250.245158" xlink:href="#mee4157d22a" y="157.508519"/>
     <use style="stroke:#000000;" x="251.443624" xlink:href="#mee4157d22a" y="156.13225"/>
     <use style="stroke:#000000;" x="252.643563" xlink:href="#mee4157d22a" y="149.285857"/>
     <use style="stroke:#000000;" x="253.86747" xlink:href="#mee4157d22a" y="148.537142"/>
     <use style="stroke:#000000;" x="255.037309" xlink:href="#mee4157d22a" y="148.398506"/>
     <use style="stroke:#000000;" x="256.224724" xlink:href="#mee4157d22a" y="148.366662"/>
     <use style="stroke:#000000;" x="257.382293" xlink:href="#mee4157d22a" y="147.114273"/>
     <use style="stroke:#000000;" x="258.499595" xlink:href="#mee4157d22a" y="147.089808"/>
     <use style="stroke:#000000;" x="259.631254" xlink:href="#mee4157d22a" y="145.916251"/>
     <use style="stroke:#000000;" x="260.751721" xlink:href="#mee4157d22a" y="144.519401"/>
     <use style="stroke:#000000;" x="261.820298" xlink:href="#mee4157d22a" y="143.841751"/>
     <use style="stroke:#000000;" x="262.915649" xlink:href="#mee4157d22a" y="141.713273"/>
     <use style="stroke:#000000;" x="263.991928" xlink:href="#mee4157d22a" y="140.012354"/>
     <use style="stroke:#000000;" x="265.053687" xlink:href="#mee4157d22a" y="137.801547"/>
     <use style="stroke:#000000;" x="266.12728" xlink:href="#mee4157d22a" y="135.785687"/>
     <use style="stroke:#000000;" x="267.164351" xlink:href="#mee4157d22a" y="134.138746"/>
     <use style="stroke:#000000;" x="268.200496" xlink:href="#mee4157d22a" y="133.355081"/>
     <use style="stroke:#000000;" x="269.244366" xlink:href="#mee4157d22a" y="131.675521"/>
     <use style="stroke:#000000;" x="270.280831" xlink:href="#mee4157d22a" y="130.7272"/>
     <use style="stroke:#000000;" x="271.301345" xlink:href="#mee4157d22a" y="129.576944"/>
     <use style="stroke:#000000;" x="272.29734" xlink:href="#mee4157d22a" y="127.072166"/>
     <use style="stroke:#000000;" x="273.284077" xlink:href="#mee4157d22a" y="125.469496"/>
     <use style="stroke:#000000;" x="274.260582" xlink:href="#mee4157d22a" y="123.817508"/>
     <use style="stroke:#000000;" x="275.239856" xlink:href="#mee4157d22a" y="122.301826"/>
     <use style="stroke:#000000;" x="276.20969" xlink:href="#mee4157d22a" y="121.030797"/>
     <use style="stroke:#000000;" x="277.222598" xlink:href="#mee4157d22a" y="118.934162"/>
     <use style="stroke:#000000;" x="278.186257" xlink:href="#mee4157d22a" y="116.589767"/>
     <use style="stroke:#000000;" x="279.116178" xlink:href="#mee4157d22a" y="114.811957"/>
     <use style="stroke:#000000;" x="280.044747" xlink:href="#mee4157d22a" y="113.327342"/>
     <use style="stroke:#000000;" x="280.973198" xlink:href="#mee4157d22a" y="111.346044"/>
     <use style="stroke:#000000;" x="281.88882" xlink:href="#mee4157d22a" y="109.242807"/>
     <use style="stroke:#000000;" x="282.791303" xlink:href="#mee4157d22a" y="107.054136"/>
     <use style="stroke:#000000;" x="283.869947" xlink:href="#mee4157d22a" y="103.860058"/>
     <use style="stroke:#000000;" x="284.791724" xlink:href="#mee4157d22a" y="104.237911"/>
     <use style="stroke:#000000;" x="285.671699" xlink:href="#mee4157d22a" y="104.221212"/>
     <use style="stroke:#000000;" x="286.735554" xlink:href="#mee4157d22a" y="107.100348"/>
     <use style="stroke:#000000;" x="287.606976" xlink:href="#mee4157d22a" y="107.088698"/>
     <use style="stroke:#000000;" x="288.48373" xlink:href="#mee4157d22a" y="107.073941"/>
     <use style="stroke:#000000;" x="289.323035" xlink:href="#mee4157d22a" y="106.988507"/>
     <use style="stroke:#000000;" x="290.16454" xlink:href="#mee4157d22a" y="106.844822"/>
     <use style="stroke:#000000;" x="291.015894" xlink:href="#mee4157d22a" y="106.800551"/>
     <use style="stroke:#000000;" x="291.873061" xlink:href="#mee4157d22a" y="106.670458"/>
     <use style="stroke:#000000;" x="292.687976" xlink:href="#mee4157d22a" y="106.636284"/>
     <use style="stroke:#000000;" x="293.486037" xlink:href="#mee4157d22a" y="106.616091"/>
     <use style="stroke:#000000;" x="294.282851" xlink:href="#mee4157d22a" y="106.579587"/>
     <use style="stroke:#000000;" x="295.070235" xlink:href="#mee4157d22a" y="106.549297"/>
     <use style="stroke:#000000;" x="295.857269" xlink:href="#mee4157d22a" y="106.52755"/>
     <use style="stroke:#000000;" x="296.645331" xlink:href="#mee4157d22a" y="102.333115"/>
     <use style="stroke:#000000;" x="297.414084" xlink:href="#mee4157d22a" y="102.319911"/>
     <use style="stroke:#000000;" x="298.180919" xlink:href="#mee4157d22a" y="102.129626"/>
     <use style="stroke:#000000;" x="298.961077" xlink:href="#mee4157d22a" y="102.07021"/>
     <use style="stroke:#000000;" x="299.733985" xlink:href="#mee4157d22a" y="102.07021"/>
     <use style="stroke:#000000;" x="300.488499" xlink:href="#mee4157d22a" y="102.07021"/>
     <use style="stroke:#000000;" x="301.257892" xlink:href="#mee4157d22a" y="102.069822"/>
     <use style="stroke:#000000;" x="302.016792" xlink:href="#mee4157d22a" y="102.069822"/>
     <use style="stroke:#000000;" x="302.764094" xlink:href="#mee4157d22a" y="102.069822"/>
     <use style="stroke:#000000;" x="303.498494" xlink:href="#mee4157d22a" y="102.069822"/>
     <use style="stroke:#000000;" x="304.219252" xlink:href="#mee4157d22a" y="102.069822"/>
     <use style="stroke:#000000;" x="304.939516" xlink:href="#mee4157d22a" y="102.069822"/>
     <use style="stroke:#000000;" x="305.664057" xlink:href="#mee4157d22a" y="102.069822"/>
     <use style="stroke:#000000;" x="306.401208" xlink:href="#mee4157d22a" y="102.069433"/>
     <use style="stroke:#000000;" x="307.139973" xlink:href="#mee4157d22a" y="102.069433"/>
     <use style="stroke:#000000;" x="307.84564" xlink:href="#mee4157d22a" y="101.741288"/>
     <use style="stroke:#000000;" x="308.547379" xlink:href="#mee4157d22a" y="101.741288"/>
     <use style="stroke:#000000;" x="309.254863" xlink:href="#mee4157d22a" y="101.557216"/>
     <use style="stroke:#000000;" x="309.951155" xlink:href="#mee4157d22a" y="101.372756"/>
     <use style="stroke:#000000;" x="310.656534" xlink:href="#mee4157d22a" y="101.358775"/>
     <use style="stroke:#000000;" x="311.3522" xlink:href="#mee4157d22a" y="101.34363"/>
     <use style="stroke:#000000;" x="312.033712" xlink:href="#mee4157d22a" y="101.34363"/>
     <use style="stroke:#000000;" x="312.695537" xlink:href="#mee4157d22a" y="101.34363"/>
     <use style="stroke:#000000;" x="313.354524" xlink:href="#mee4157d22a" y="101.165383"/>
     <use style="stroke:#000000;" x="314.02552" xlink:href="#mee4157d22a" y="101.128879"/>
     <use style="stroke:#000000;" x="314.665921" xlink:href="#mee4157d22a" y="101.115676"/>
     <use style="stroke:#000000;" x="315.319782" xlink:href="#mee4157d22a" y="101.062474"/>
     <use style="stroke:#000000;" x="315.976663" xlink:href="#mee4157d22a" y="101.02597"/>
     <use style="stroke:#000000;" x="316.61605" xlink:href="#mee4157d22a" y="101.004611"/>
     <use style="stroke:#000000;" x="317.253119" xlink:href="#mee4157d22a" y="100.99335"/>
     <use style="stroke:#000000;" x="317.874806" xlink:href="#mee4157d22a" y="100.803841"/>
     <use style="stroke:#000000;" x="318.504803" xlink:href="#mee4157d22a" y="100.749862"/>
     <use style="stroke:#000000;" x="319.153563" xlink:href="#mee4157d22a" y="100.480744"/>
     <use style="stroke:#000000;" x="319.775983" xlink:href="#mee4157d22a" y="100.258226"/>
     <use style="stroke:#000000;" x="320.404043" xlink:href="#mee4157d22a" y="100.028719"/>
     <use style="stroke:#000000;" x="321.025401" xlink:href="#mee4157d22a" y="99.999594"/>
     <use style="stroke:#000000;" x="321.629715" xlink:href="#mee4157d22a" y="99.983672"/>
     <use style="stroke:#000000;" x="322.229679" xlink:href="#mee4157d22a" y="99.956488"/>
     <use style="stroke:#000000;" x="322.839509" xlink:href="#mee4157d22a" y="99.912218"/>
     <use style="stroke:#000000;" x="323.439004" xlink:href="#mee4157d22a" y="99.899791"/>
     <use style="stroke:#000000;" x="324.063481" xlink:href="#mee4157d22a" y="99.833773"/>
     <use style="stroke:#000000;" x="324.665363" xlink:href="#mee4157d22a" y="99.770474"/>
     <use style="stroke:#000000;" x="325.266116" xlink:href="#mee4157d22a" y="99.698243"/>
     <use style="stroke:#000000;" x="325.84494" xlink:href="#mee4157d22a" y="99.5332"/>
     <use style="stroke:#000000;" x="326.417557" xlink:href="#mee4157d22a" y="99.532812"/>
     <use style="stroke:#000000;" x="326.993325" xlink:href="#mee4157d22a" y="99.532423"/>
     <use style="stroke:#000000;" x="327.553597" xlink:href="#mee4157d22a" y="99.384467"/>
     <use style="stroke:#000000;" x="328.120352" xlink:href="#mee4157d22a" y="99.337089"/>
     <use style="stroke:#000000;" x="328.707857" xlink:href="#mee4157d22a" y="100.523461"/>
     <use style="stroke:#000000;" x="329.2757" xlink:href="#mee4157d22a" y="100.598022"/>
     <use style="stroke:#000000;" x="329.884451" xlink:href="#mee4157d22a" y="100.598022"/>
     <use style="stroke:#000000;" x="330.445816" xlink:href="#mee4157d22a" y="100.598022"/>
     <use style="stroke:#000000;" x="330.998045" xlink:href="#mee4157d22a" y="100.598022"/>
     <use style="stroke:#000000;" x="331.5461" xlink:href="#mee4157d22a" y="100.598022"/>
     <use style="stroke:#000000;" x="332.158693" xlink:href="#mee4157d22a" y="105.200212"/>
     <use style="stroke:#000000;" x="332.703953" xlink:href="#mee4157d22a" y="105.200212"/>
     <use style="stroke:#000000;" x="333.262537" xlink:href="#mee4157d22a" y="105.200212"/>
     <use style="stroke:#000000;" x="333.813475" xlink:href="#mee4157d22a" y="105.200212"/>
     <use style="stroke:#000000;" x="334.379972" xlink:href="#mee4157d22a" y="105.200212"/>
     <use style="stroke:#000000;" x="334.920531" xlink:href="#mee4157d22a" y="105.200212"/>
     <use style="stroke:#000000;" x="335.449777" xlink:href="#mee4157d22a" y="105.199435"/>
     <use style="stroke:#000000;" x="335.976191" xlink:href="#mee4157d22a" y="105.197105"/>
     <use style="stroke:#000000;" x="336.49069" xlink:href="#mee4157d22a" y="105.196717"/>
     <use style="stroke:#000000;" x="337.016914" xlink:href="#mee4157d22a" y="105.194387"/>
     <use style="stroke:#000000;" x="337.531616" xlink:href="#mee4157d22a" y="105.192833"/>
     <use style="stroke:#000000;" x="338.045132" xlink:href="#mee4157d22a" y="105.190892"/>
     <use style="stroke:#000000;" x="338.553899" xlink:href="#mee4157d22a" y="105.189338"/>
     <use style="stroke:#000000;" x="339.071129" xlink:href="#mee4157d22a" y="105.183125"/>
     <use style="stroke:#000000;" x="339.569579" xlink:href="#mee4157d22a" y="105.182736"/>
     <use style="stroke:#000000;" x="340.069401" xlink:href="#mee4157d22a" y="105.181571"/>
     <use style="stroke:#000000;" x="340.566553" xlink:href="#mee4157d22a" y="105.180406"/>
     <use style="stroke:#000000;" x="341.060339" xlink:href="#mee4157d22a" y="105.179241"/>
     <use style="stroke:#000000;" x="341.55345" xlink:href="#mee4157d22a" y="105.178076"/>
     <use style="stroke:#000000;" x="342.04191" xlink:href="#mee4157d22a" y="105.176911"/>
     <use style="stroke:#000000;" x="342.530878" xlink:href="#mee4157d22a" y="105.175746"/>
     <use style="stroke:#000000;" x="343.014709" xlink:href="#mee4157d22a" y="105.174581"/>
     <use style="stroke:#000000;" x="343.499156" xlink:href="#mee4157d22a" y="105.173028"/>
     <use style="stroke:#000000;" x="343.981443" xlink:href="#mee4157d22a" y="105.171475"/>
     <use style="stroke:#000000;" x="344.46573" xlink:href="#mee4157d22a" y="105.17031"/>
     <use style="stroke:#000000;" x="344.944263" xlink:href="#mee4157d22a" y="105.168368"/>
     <use style="stroke:#000000;" x="345.430385" xlink:href="#mee4157d22a" y="105.167591"/>
     <use style="stroke:#000000;" x="345.905499" xlink:href="#mee4157d22a" y="105.166426"/>
     <use style="stroke:#000000;" x="346.377619" xlink:href="#mee4157d22a" y="105.164873"/>
     <use style="stroke:#000000;" x="346.845795" xlink:href="#mee4157d22a" y="105.162931"/>
     <use style="stroke:#000000;" x="347.319221" xlink:href="#mee4157d22a" y="105.16099"/>
     <use style="stroke:#000000;" x="347.792267" xlink:href="#mee4157d22a" y="105.159048"/>
     <use style="stroke:#000000;" x="348.253253" xlink:href="#mee4157d22a" y="105.158271"/>
     <use style="stroke:#000000;" x="348.710897" xlink:href="#mee4157d22a" y="105.157883"/>
     <use style="stroke:#000000;" x="349.170065" xlink:href="#mee4157d22a" y="105.157106"/>
     <use style="stroke:#000000;" x="349.62618" xlink:href="#mee4157d22a" y="105.156329"/>
     <use style="stroke:#000000;" x="350.088796" xlink:href="#mee4157d22a" y="105.155164"/>
     <use style="stroke:#000000;" x="350.547395" xlink:href="#mee4157d22a" y="105.152058"/>
     <use style="stroke:#000000;" x="350.995838" xlink:href="#mee4157d22a" y="105.151281"/>
     <use style="stroke:#000000;" x="351.45088" xlink:href="#mee4157d22a" y="104.967597"/>
     <use style="stroke:#000000;" x="351.899641" xlink:href="#mee4157d22a" y="104.957501"/>
     <use style="stroke:#000000;" x="352.343537" xlink:href="#mee4157d22a" y="104.948569"/>
     <use style="stroke:#000000;" x="352.785512" xlink:href="#mee4157d22a" y="104.942355"/>
     <use style="stroke:#000000;" x="353.225798" xlink:href="#mee4157d22a" y="104.934977"/>
     <use style="stroke:#000000;" x="353.664373" xlink:href="#mee4157d22a" y="104.92721"/>
     <use style="stroke:#000000;" x="354.110447" xlink:href="#mee4157d22a" y="104.921385"/>
     <use style="stroke:#000000;" x="354.547199" xlink:href="#mee4157d22a" y="104.909735"/>
     <use style="stroke:#000000;" x="354.984395" xlink:href="#mee4157d22a" y="104.903522"/>
     <use style="stroke:#000000;" x="355.417076" xlink:href="#mee4157d22a" y="104.894978"/>
     <use style="stroke:#000000;" x="355.847359" xlink:href="#mee4157d22a" y="104.890706"/>
     <use style="stroke:#000000;" x="356.272486" xlink:href="#mee4157d22a" y="104.886823"/>
     <use style="stroke:#000000;" x="356.696447" xlink:href="#mee4157d22a" y="104.880221"/>
     <use style="stroke:#000000;" x="357.120267" xlink:href="#mee4157d22a" y="104.874396"/>
     <use style="stroke:#000000;" x="357.540527" xlink:href="#mee4157d22a" y="104.867018"/>
     <use style="stroke:#000000;" x="357.959499" xlink:href="#mee4157d22a" y="104.858086"/>
     <use style="stroke:#000000;" x="358.386466" xlink:href="#mee4157d22a" y="104.845659"/>
     <use style="stroke:#000000;" x="358.807724" xlink:href="#mee4157d22a" y="104.842941"/>
     <use style="stroke:#000000;" x="359.220959" xlink:href="#mee4157d22a" y="104.840611"/>
     <use style="stroke:#000000;" x="359.638922" xlink:href="#mee4157d22a" y="104.618093"/>
     <use style="stroke:#000000;" x="360.059096" xlink:href="#mee4157d22a" y="104.599453"/>
     <use style="stroke:#000000;" x="360.476993" xlink:href="#mee4157d22a" y="104.588191"/>
     <use style="stroke:#000000;" x="360.89271" xlink:href="#mee4157d22a" y="104.569163"/>
     <use style="stroke:#000000;" x="361.300704" xlink:href="#mee4157d22a" y="104.559454"/>
     <use style="stroke:#000000;" x="361.710441" xlink:href="#mee4157d22a" y="104.523727"/>
     <use style="stroke:#000000;" x="362.119756" xlink:href="#mee4157d22a" y="104.515572"/>
     <use style="stroke:#000000;" x="362.523716" xlink:href="#mee4157d22a" y="104.500815"/>
     <use style="stroke:#000000;" x="362.926249" xlink:href="#mee4157d22a" y="104.463923"/>
     <use style="stroke:#000000;" x="363.33327" xlink:href="#mee4157d22a" y="104.220047"/>
     <use style="stroke:#000000;" x="363.732457" xlink:href="#mee4157d22a" y="104.217329"/>
     <use style="stroke:#000000;" x="364.12745" xlink:href="#mee4157d22a" y="103.919862"/>
     <use style="stroke:#000000;" x="364.536251" xlink:href="#mee4157d22a" y="103.792876"/>
     <use style="stroke:#000000;" x="364.938612" xlink:href="#mee4157d22a" y="103.792099"/>
     <use style="stroke:#000000;" x="365.342378" xlink:href="#mee4157d22a" y="103.229398"/>
     <use style="stroke:#000000;" x="365.738344" xlink:href="#mee4157d22a" y="102.462431"/>
     <use style="stroke:#000000;" x="366.128699" xlink:href="#mee4157d22a" y="101.540517"/>
     <use style="stroke:#000000;" x="366.516738" xlink:href="#mee4157d22a" y="100.73161"/>
     <use style="stroke:#000000;" x="366.903207" xlink:href="#mee4157d22a" y="99.843093"/>
     <use style="stroke:#000000;" x="367.297817" xlink:href="#mee4157d22a" y="98.199648"/>
     <use style="stroke:#000000;" x="367.682845" xlink:href="#mee4157d22a" y="95.683609"/>
     <use style="stroke:#000000;" x="368.064875" xlink:href="#mee4157d22a" y="93.997058"/>
     <use style="stroke:#000000;" x="368.44466" xlink:href="#mee4157d22a" y="92.71166"/>
     <use style="stroke:#000000;" x="368.852007" xlink:href="#mee4157d22a" y="91.645285"/>
     <use style="stroke:#000000;" x="369.222222" xlink:href="#mee4157d22a" y="90.940064"/>
     <use style="stroke:#000000;" x="369.605802" xlink:href="#mee4157d22a" y="90.159505"/>
     <use style="stroke:#000000;" x="369.986857" xlink:href="#mee4157d22a" y="89.189826"/>
     <use style="stroke:#000000;" x="370.366294" xlink:href="#mee4157d22a" y="86.968535"/>
     <use style="stroke:#000000;" x="370.769648" xlink:href="#mee4157d22a" y="88.378589"/>
     <use style="stroke:#000000;" x="371.147309" xlink:href="#mee4157d22a" y="88.004231"/>
     <use style="stroke:#000000;" x="371.51786" xlink:href="#mee4157d22a" y="87.942486"/>
     <use style="stroke:#000000;" x="371.893909" xlink:href="#mee4157d22a" y="84.415603"/>
     <use style="stroke:#000000;" x="372.288461" xlink:href="#mee4157d22a" y="81.055317"/>
     <use style="stroke:#000000;" x="372.646203" xlink:href="#mee4157d22a" y="80.428928"/>
     <use style="stroke:#000000;" x="373.043741" xlink:href="#mee4157d22a" y="77.980071"/>
     <use style="stroke:#000000;" x="373.420042" xlink:href="#mee4157d22a" y="75.481118"/>
     <use style="stroke:#000000;" x="373.790356" xlink:href="#mee4157d22a" y="73.55807"/>
     <use style="stroke:#000000;" x="374.151387" xlink:href="#mee4157d22a" y="72.726639"/>
     <use style="stroke:#000000;" x="374.515929" xlink:href="#mee4157d22a" y="71.007856"/>
     <use style="stroke:#000000;" x="374.876358" xlink:href="#mee4157d22a" y="68.986171"/>
     <use style="stroke:#000000;" x="375.257697" xlink:href="#mee4157d22a" y="67.15477"/>
     <use style="stroke:#000000;" x="375.616155" xlink:href="#mee4157d22a" y="63.140135"/>
     <use style="stroke:#000000;" x="375.97021" xlink:href="#mee4157d22a" y="61.985607"/>
     <use style="stroke:#000000;" x="376.322544" xlink:href="#mee4157d22a" y="59.765481"/>
     <use style="stroke:#000000;" x="376.699383" xlink:href="#mee4157d22a" y="59.158121"/>
     <use style="stroke:#000000;" x="377.063831" xlink:href="#mee4157d22a" y="56.880909"/>
     <use style="stroke:#000000;" x="377.418154" xlink:href="#mee4157d22a" y="56.878967"/>
     <use style="stroke:#000000;" x="377.772367" xlink:href="#mee4157d22a" y="56.87586"/>
     <use style="stroke:#000000;" x="378.123544" xlink:href="#mee4157d22a" y="56.87353"/>
     <use style="stroke:#000000;" x="378.468195" xlink:href="#mee4157d22a" y="56.873142"/>
     <use style="stroke:#000000;" x="378.813424" xlink:href="#mee4157d22a" y="56.873142"/>
     <use style="stroke:#000000;" x="379.157206" xlink:href="#mee4157d22a" y="56.873142"/>
     <use style="stroke:#000000;" x="379.501054" xlink:href="#mee4157d22a" y="56.872754"/>
     <use style="stroke:#000000;" x="379.852955" xlink:href="#mee4157d22a" y="54.72214"/>
     <use style="stroke:#000000;" x="380.22982" xlink:href="#mee4157d22a" y="53.570718"/>
     <use style="stroke:#000000;" x="380.570817" xlink:href="#mee4157d22a" y="53.568"/>
     <use style="stroke:#000000;" x="380.925235" xlink:href="#mee4157d22a" y="56.817221"/>
     <use style="stroke:#000000;" x="381.258979" xlink:href="#mee4157d22a" y="56.814891"/>
     <use style="stroke:#000000;" x="381.587295" xlink:href="#mee4157d22a" y="56.81295"/>
     <use style="stroke:#000000;" x="381.919638" xlink:href="#mee4157d22a" y="56.81062"/>
     <use style="stroke:#000000;" x="382.256418" xlink:href="#mee4157d22a" y="56.809066"/>
     <use style="stroke:#000000;" x="382.583952" xlink:href="#mee4157d22a" y="56.809066"/>
     <use style="stroke:#000000;" x="382.912152" xlink:href="#mee4157d22a" y="56.807513"/>
     <use style="stroke:#000000;" x="383.240422" xlink:href="#mee4157d22a" y="56.806348"/>
     <use style="stroke:#000000;" x="383.574166" xlink:href="#mee4157d22a" y="56.604801"/>
     <use style="stroke:#000000;" x="383.903838" xlink:href="#mee4157d22a" y="56.593927"/>
     <use style="stroke:#000000;" x="384.226217" xlink:href="#mee4157d22a" y="56.588879"/>
     <use style="stroke:#000000;" x="384.553418" xlink:href="#mee4157d22a" y="56.572957"/>
     <use style="stroke:#000000;" x="384.873023" xlink:href="#mee4157d22a" y="56.298402"/>
     <use style="stroke:#000000;" x="385.19438" xlink:href="#mee4157d22a" y="56.29646"/>
     <use style="stroke:#000000;" x="385.520255" xlink:href="#mee4157d22a" y="56.294519"/>
     <use style="stroke:#000000;" x="385.8389" xlink:href="#mee4157d22a" y="56.014139"/>
     <use style="stroke:#000000;" x="386.174159" xlink:href="#mee4157d22a" y="56.049866"/>
     <use style="stroke:#000000;" x="386.513474" xlink:href="#mee4157d22a" y="56.015692"/>
     <use style="stroke:#000000;" x="386.827837" xlink:href="#mee4157d22a" y="56.005207"/>
     <use style="stroke:#000000;" x="387.146225" xlink:href="#mee4157d22a" y="55.990062"/>
     <use style="stroke:#000000;" x="387.461716" xlink:href="#mee4157d22a" y="56.605577"/>
     <use style="stroke:#000000;" x="387.78163" xlink:href="#mee4157d22a" y="56.243647"/>
     <use style="stroke:#000000;" x="388.095402" xlink:href="#mee4157d22a" y="56.241705"/>
     <use style="stroke:#000000;" x="388.41192" xlink:href="#mee4157d22a" y="55.949675"/>
     <use style="stroke:#000000;" x="388.724751" xlink:href="#mee4157d22a" y="55.601336"/>
     <use style="stroke:#000000;" x="389.036455" xlink:href="#mee4157d22a" y="55.528717"/>
     <use style="stroke:#000000;" x="389.352143" xlink:href="#mee4157d22a" y="55.433574"/>
     <use style="stroke:#000000;" x="389.657257" xlink:href="#mee4157d22a" y="55.420759"/>
     <use style="stroke:#000000;" x="389.961715" xlink:href="#mee4157d22a" y="55.403284"/>
     <use style="stroke:#000000;" x="390.271332" xlink:href="#mee4157d22a" y="55.368722"/>
     <use style="stroke:#000000;" x="390.582719" xlink:href="#mee4157d22a" y="54.751653"/>
     <use style="stroke:#000000;" x="390.883629" xlink:href="#mee4157d22a" y="54.725246"/>
     <use style="stroke:#000000;" x="391.18185" xlink:href="#mee4157d22a" y="54.691461"/>
     <use style="stroke:#000000;" x="391.475334" xlink:href="#mee4157d22a" y="54.666996"/>
     <use style="stroke:#000000;" x="391.77212" xlink:href="#mee4157d22a" y="54.63554"/>
     <use style="stroke:#000000;" x="392.063407" xlink:href="#mee4157d22a" y="54.626997"/>
     <use style="stroke:#000000;" x="392.363471" xlink:href="#mee4157d22a" y="54.61224"/>
     <use style="stroke:#000000;" x="392.65336" xlink:href="#mee4157d22a" y="54.596706"/>
     <use style="stroke:#000000;" x="392.945236" xlink:href="#mee4157d22a" y="54.582338"/>
     <use style="stroke:#000000;" x="393.239141" xlink:href="#mee4157d22a" y="54.560979"/>
     <use style="stroke:#000000;" x="393.526607" xlink:href="#mee4157d22a" y="54.543116"/>
     <use style="stroke:#000000;" x="393.817396" xlink:href="#mee4157d22a" y="54.518651"/>
     <use style="stroke:#000000;" x="394.107295" xlink:href="#mee4157d22a" y="54.50234"/>
     <use style="stroke:#000000;" x="394.394304" xlink:href="#mee4157d22a" y="54.477098"/>
     <use style="stroke:#000000;" x="394.683472" xlink:href="#mee4157d22a" y="54.451468"/>
     <use style="stroke:#000000;" x="394.971074" xlink:href="#mee4157d22a" y="54.431275"/>
     <use style="stroke:#000000;" x="395.259304" xlink:href="#mee4157d22a" y="54.389334"/>
     <use style="stroke:#000000;" x="395.547624" xlink:href="#mee4157d22a" y="54.369141"/>
     <use style="stroke:#000000;" x="395.842212" xlink:href="#mee4157d22a" y="54.338074"/>
     <use style="stroke:#000000;" x="396.139945" xlink:href="#mee4157d22a" y="53.922164"/>
     <use style="stroke:#000000;" x="396.432927" xlink:href="#mee4157d22a" y="53.877117"/>
     <use style="stroke:#000000;" x="396.725262" xlink:href="#mee4157d22a" y="53.858865"/>
     <use style="stroke:#000000;" x="397.018046" xlink:href="#mee4157d22a" y="54.793982"/>
     <use style="stroke:#000000;" x="397.313537" xlink:href="#mee4157d22a" y="54.793982"/>
     <use style="stroke:#000000;" x="397.608394" xlink:href="#mee4157d22a" y="55.241347"/>
     <use style="stroke:#000000;" x="397.911505" xlink:href="#mee4157d22a" y="55.390469"/>
     <use style="stroke:#000000;" x="398.199194" xlink:href="#mee4157d22a" y="55.390469"/>
     <use style="stroke:#000000;" x="398.487273" xlink:href="#mee4157d22a" y="55.390469"/>
    </g>
   </g>
   <g id="patch_3">
    <path d="M 57.6 307.584 
L 57.6 41.472 
" style="fill:none;stroke:#000000;stroke-linecap:square;stroke-linejoin:miter;stroke-width:0.8;"/>
   </g>
   <g id="patch_4">
    <path d="M 414.72 307.584 
L 414.72 41.472 
" style="fill:none;stroke:#000000;stroke-linecap:square;stroke-linejoin:miter;stroke-width:0.8;"/>
   </g>
   <g id="patch_5">
    <path d="M 57.6 307.584 
L 414.72 307.584 
" style="fill:none;stroke:#000000;stroke-linecap:square;stroke-linejoin:miter;stroke-width:0.8;"/>
   </g>
   <g id="patch_6">
    <path d="M 57.6 41.472 
L 414.72 41.472 
" style="fill:none;stroke:#000000;stroke-linecap:square;stroke-linejoin:miter;stroke-width:0.8;"/>
   </g>
   <g id="legend_1">
    <g id="patch_7">
     <path d="M 64.6 64.150125 
L 118.617188 64.150125 
Q 120.617188 64.150125 120.617188 62.150125 
L 120.617188 48.472 
Q 120.617188 46.472 118.617188 46.472 
L 64.6 46.472 
Q 62.6 46.472 62.6 48.472 
L 62.6 62.150125 
Q 62.6 64.150125 64.6 64.150125 
z
" style="fill:#ffffff;opacity:0.8;stroke:#cccccc;stroke-linejoin:miter;"/>
    </g>
    <g id="line2d_37">
     <path d="M 66.6 54.570438 
L 86.6 54.570438 
" style="fill:none;stroke:#000000;stroke-linecap:square;stroke-width:1.5;"/>
    </g>
    <g id="line2d_38">
     <g>
      <use style="stroke:#000000;" x="76.6" xlink:href="#mee4157d22a" y="54.570438"/>
     </g>
    </g>
    <g id="text_11">
     <!-- RAM -->
     <g transform="translate(94.6 58.070438)scale(0.1 -0.1)">
      <defs>
       <path d="M 44.390625 34.1875 
Q 47.5625 33.109375 50.5625 29.59375 
Q 53.5625 26.078125 56.59375 19.921875 
L 66.609375 0 
L 56 0 
L 46.6875 18.703125 
Q 43.0625 26.03125 39.671875 28.421875 
Q 36.28125 30.8125 30.421875 30.8125 
L 19.671875 30.8125 
L 19.671875 0 
L 9.8125 0 
L 9.8125 72.90625 
L 32.078125 72.90625 
Q 44.578125 72.90625 50.734375 67.671875 
Q 56.890625 62.453125 56.890625 51.90625 
Q 56.890625 45.015625 53.6875 40.46875 
Q 50.484375 35.9375 44.390625 34.1875 
z
M 19.671875 64.796875 
L 19.671875 38.921875 
L 32.078125 38.921875 
Q 39.203125 38.921875 42.84375 42.21875 
Q 46.484375 45.515625 46.484375 51.90625 
Q 46.484375 58.296875 42.84375 61.546875 
Q 39.203125 64.796875 32.078125 64.796875 
z
" id="DejaVuSans-82"/>
       <path d="M 34.1875 63.1875 
L 20.796875 26.90625 
L 47.609375 26.90625 
z
M 28.609375 72.90625 
L 39.796875 72.90625 
L 67.578125 0 
L 57.328125 0 
L 50.6875 18.703125 
L 17.828125 18.703125 
L 11.1875 0 
L 0.78125 0 
z
" id="DejaVuSans-65"/>
      </defs>
      <use xlink:href="#DejaVuSans-82"/>
      <use x="65.482422" xlink:href="#DejaVuSans-65"/>
      <use x="133.890625" xlink:href="#DejaVuSans-77"/>
     </g>
    </g>
   </g>
  </g>
 </g>
 <defs>
  <clipPath id="p38df790082">
   <rect height="266.112" width="357.12" x="57.6" y="41.472"/>
  </clipPath>
 </defs>
</svg>
