<?xml version="1.0" encoding="utf-8" standalone="no"?>
<!DOCTYPE svg PUBLIC "-//W3C//DTD SVG 1.1//EN"
  "http://www.w3.org/Graphics/SVG/1.1/DTD/svg11.dtd">
<!-- Created with matplotlib (https://matplotlib.org/) -->
<svg height="345.6pt" version="1.1" viewBox="0 0 460.8 345.6" width="460.8pt" xmlns="http://www.w3.org/2000/svg" xmlns:xlink="http://www.w3.org/1999/xlink">
 <metadata>
  <rdf:RDF xmlns:cc="http://creativecommons.org/ns#" xmlns:dc="http://purl.org/dc/elements/1.1/" xmlns:rdf="http://www.w3.org/1999/02/22-rdf-syntax-ns#">
   <cc:Work>
    <dc:type rdf:resource="http://purl.org/dc/dcmitype/StillImage"/>
    <dc:date>2022-04-03T16:45:36.273194</dc:date>
    <dc:format>image/svg+xml</dc:format>
    <dc:creator>
     <cc:Agent>
      <dc:title>Matplotlib v3.3.2, https://matplotlib.org/</dc:title>
     </cc:Agent>
    </dc:creator>
   </cc:Work>
  </rdf:RDF>
 </metadata>
 <defs>
  <style type="text/css">*{stroke-linecap:butt;stroke-linejoin:round;}</style>
 </defs>
 <g id="figure_1">
  <g id="patch_1">
   <path d="M 0 345.6 
L 460.8 345.6 
L 460.8 0 
L 0 0 
z
" style="fill:#ffffff;"/>
  </g>
  <g id="axes_1">
   <g id="patch_2">
    <path d="M 57.6 307.584 
L 414.72 307.584 
L 414.72 41.472 
L 57.6 41.472 
z
" style="fill:#ffffff;"/>
   </g>
   <g id="matplotlib.axis_1">
    <g id="xtick_1">
     <g id="line2d_1">
      <defs>
       <path d="M 0 0 
L 0 3.5 
" id="m8cf171731f" style="stroke:#000000;stroke-width:0.8;"/>
      </defs>
      <g>
       <use style="stroke:#000000;stroke-width:0.8;" x="101.318267" xlink:href="#m8cf171731f" y="307.584"/>
      </g>
     </g>
     <g id="text_1">
      <!-- $\mathdefault{10^{2}}$ -->
      <g transform="translate(92.518267 322.182437)scale(0.1 -0.1)">
       <defs>
        <path d="M 12.40625 8.296875 
L 28.515625 8.296875 
L 28.515625 63.921875 
L 10.984375 60.40625 
L 10.984375 69.390625 
L 28.421875 72.90625 
L 38.28125 72.90625 
L 38.28125 8.296875 
L 54.390625 8.296875 
L 54.390625 0 
L 12.40625 0 
z
" id="DejaVuSans-49"/>
        <path d="M 31.78125 66.40625 
Q 24.171875 66.40625 20.328125 58.90625 
Q 16.5 51.421875 16.5 36.375 
Q 16.5 21.390625 20.328125 13.890625 
Q 24.171875 6.390625 31.78125 6.390625 
Q 39.453125 6.390625 43.28125 13.890625 
Q 47.125 21.390625 47.125 36.375 
Q 47.125 51.421875 43.28125 58.90625 
Q 39.453125 66.40625 31.78125 66.40625 
z
M 31.78125 74.21875 
Q 44.046875 74.21875 50.515625 64.515625 
Q 56.984375 54.828125 56.984375 36.375 
Q 56.984375 17.96875 50.515625 8.265625 
Q 44.046875 -1.421875 31.78125 -1.421875 
Q 19.53125 -1.421875 13.0625 8.265625 
Q 6.59375 17.96875 6.59375 36.375 
Q 6.59375 54.828125 13.0625 64.515625 
Q 19.53125 74.21875 31.78125 74.21875 
z
" id="DejaVuSans-48"/>
        <path d="M 19.1875 8.296875 
L 53.609375 8.296875 
L 53.609375 0 
L 7.328125 0 
L 7.328125 8.296875 
Q 12.9375 14.109375 22.625 23.890625 
Q 32.328125 33.6875 34.8125 36.53125 
Q 39.546875 41.84375 41.421875 45.53125 
Q 43.3125 49.21875 43.3125 52.78125 
Q 43.3125 58.59375 39.234375 62.25 
Q 35.15625 65.921875 28.609375 65.921875 
Q 23.96875 65.921875 18.8125 64.3125 
Q 13.671875 62.703125 7.8125 59.421875 
L 7.8125 69.390625 
Q 13.765625 71.78125 18.9375 73 
Q 24.125 74.21875 28.421875 74.21875 
Q 39.75 74.21875 46.484375 68.546875 
Q 53.21875 62.890625 53.21875 53.421875 
Q 53.21875 48.921875 51.53125 44.890625 
Q 49.859375 40.875 45.40625 35.40625 
Q 44.1875 33.984375 37.640625 27.21875 
Q 31.109375 20.453125 19.1875 8.296875 
z
" id="DejaVuSans-50"/>
       </defs>
       <use transform="translate(0 0.765625)" xlink:href="#DejaVuSans-49"/>
       <use transform="translate(63.623047 0.765625)" xlink:href="#DejaVuSans-48"/>
       <use transform="translate(128.203125 39.046875)scale(0.7)" xlink:href="#DejaVuSans-50"/>
      </g>
     </g>
    </g>
    <g id="xtick_2">
     <g id="line2d_2">
      <g>
       <use style="stroke:#000000;stroke-width:0.8;" x="254.457785" xlink:href="#m8cf171731f" y="307.584"/>
      </g>
     </g>
     <g id="text_2">
      <!-- $\mathdefault{10^{3}}$ -->
      <g transform="translate(245.657785 322.182437)scale(0.1 -0.1)">
       <defs>
        <path d="M 40.578125 39.3125 
Q 47.65625 37.796875 51.625 33 
Q 55.609375 28.21875 55.609375 21.1875 
Q 55.609375 10.40625 48.1875 4.484375 
Q 40.765625 -1.421875 27.09375 -1.421875 
Q 22.515625 -1.421875 17.65625 -0.515625 
Q 12.796875 0.390625 7.625 2.203125 
L 7.625 11.71875 
Q 11.71875 9.328125 16.59375 8.109375 
Q 21.484375 6.890625 26.8125 6.890625 
Q 36.078125 6.890625 40.9375 10.546875 
Q 45.796875 14.203125 45.796875 21.1875 
Q 45.796875 27.640625 41.28125 31.265625 
Q 36.765625 34.90625 28.71875 34.90625 
L 20.21875 34.90625 
L 20.21875 43.015625 
L 29.109375 43.015625 
Q 36.375 43.015625 40.234375 45.921875 
Q 44.09375 48.828125 44.09375 54.296875 
Q 44.09375 59.90625 40.109375 62.90625 
Q 36.140625 65.921875 28.71875 65.921875 
Q 24.65625 65.921875 20.015625 65.03125 
Q 15.375 64.15625 9.8125 62.3125 
L 9.8125 71.09375 
Q 15.4375 72.65625 20.34375 73.4375 
Q 25.25 74.21875 29.59375 74.21875 
Q 40.828125 74.21875 47.359375 69.109375 
Q 53.90625 64.015625 53.90625 55.328125 
Q 53.90625 49.265625 50.4375 45.09375 
Q 46.96875 40.921875 40.578125 39.3125 
z
" id="DejaVuSans-51"/>
       </defs>
       <use transform="translate(0 0.765625)" xlink:href="#DejaVuSans-49"/>
       <use transform="translate(63.623047 0.765625)" xlink:href="#DejaVuSans-48"/>
       <use transform="translate(128.203125 39.046875)scale(0.7)" xlink:href="#DejaVuSans-51"/>
      </g>
     </g>
    </g>
    <g id="xtick_3">
     <g id="line2d_3">
      <g>
       <use style="stroke:#000000;stroke-width:0.8;" x="407.597304" xlink:href="#m8cf171731f" y="307.584"/>
      </g>
     </g>
     <g id="text_3">
      <!-- $\mathdefault{10^{4}}$ -->
      <g transform="translate(398.797304 322.182437)scale(0.1 -0.1)">
       <defs>
        <path d="M 37.796875 64.3125 
L 12.890625 25.390625 
L 37.796875 25.390625 
z
M 35.203125 72.90625 
L 47.609375 72.90625 
L 47.609375 25.390625 
L 58.015625 25.390625 
L 58.015625 17.1875 
L 47.609375 17.1875 
L 47.609375 0 
L 37.796875 0 
L 37.796875 17.1875 
L 4.890625 17.1875 
L 4.890625 26.703125 
z
" id="DejaVuSans-52"/>
       </defs>
       <use transform="translate(0 0.684375)" xlink:href="#DejaVuSans-49"/>
       <use transform="translate(63.623047 0.684375)" xlink:href="#DejaVuSans-48"/>
       <use transform="translate(128.203125 38.965625)scale(0.7)" xlink:href="#DejaVuSans-52"/>
      </g>
     </g>
    </g>
    <g id="xtick_4">
     <g id="line2d_4">
      <defs>
       <path d="M 0 0 
L 0 2 
" id="m555acf4b82" style="stroke:#000000;stroke-width:0.6;"/>
      </defs>
      <g>
       <use style="stroke:#000000;stroke-width:0.6;" x="67.344456" xlink:href="#m555acf4b82" y="307.584"/>
      </g>
     </g>
    </g>
    <g id="xtick_5">
     <g id="line2d_5">
      <g>
       <use style="stroke:#000000;stroke-width:0.6;" x="77.596655" xlink:href="#m555acf4b82" y="307.584"/>
      </g>
     </g>
    </g>
    <g id="xtick_6">
     <g id="line2d_6">
      <g>
       <use style="stroke:#000000;stroke-width:0.6;" x="86.477514" xlink:href="#m555acf4b82" y="307.584"/>
      </g>
     </g>
    </g>
    <g id="xtick_7">
     <g id="line2d_7">
      <g>
       <use style="stroke:#000000;stroke-width:0.6;" x="94.310987" xlink:href="#m555acf4b82" y="307.584"/>
      </g>
     </g>
    </g>
    <g id="xtick_8">
     <g id="line2d_8">
      <g>
       <use style="stroke:#000000;stroke-width:0.6;" x="147.417856" xlink:href="#m555acf4b82" y="307.584"/>
      </g>
     </g>
    </g>
    <g id="xtick_9">
     <g id="line2d_9">
      <g>
       <use style="stroke:#000000;stroke-width:0.6;" x="174.384386" xlink:href="#m555acf4b82" y="307.584"/>
      </g>
     </g>
    </g>
    <g id="xtick_10">
     <g id="line2d_10">
      <g>
       <use style="stroke:#000000;stroke-width:0.6;" x="193.517444" xlink:href="#m555acf4b82" y="307.584"/>
      </g>
     </g>
    </g>
    <g id="xtick_11">
     <g id="line2d_11">
      <g>
       <use style="stroke:#000000;stroke-width:0.6;" x="208.358197" xlink:href="#m555acf4b82" y="307.584"/>
      </g>
     </g>
    </g>
    <g id="xtick_12">
     <g id="line2d_12">
      <g>
       <use style="stroke:#000000;stroke-width:0.6;" x="220.483975" xlink:href="#m555acf4b82" y="307.584"/>
      </g>
     </g>
    </g>
    <g id="xtick_13">
     <g id="line2d_13">
      <g>
       <use style="stroke:#000000;stroke-width:0.6;" x="230.736174" xlink:href="#m555acf4b82" y="307.584"/>
      </g>
     </g>
    </g>
    <g id="xtick_14">
     <g id="line2d_14">
      <g>
       <use style="stroke:#000000;stroke-width:0.6;" x="239.617033" xlink:href="#m555acf4b82" y="307.584"/>
      </g>
     </g>
    </g>
    <g id="xtick_15">
     <g id="line2d_15">
      <g>
       <use style="stroke:#000000;stroke-width:0.6;" x="247.450505" xlink:href="#m555acf4b82" y="307.584"/>
      </g>
     </g>
    </g>
    <g id="xtick_16">
     <g id="line2d_16">
      <g>
       <use style="stroke:#000000;stroke-width:0.6;" x="300.557374" xlink:href="#m555acf4b82" y="307.584"/>
      </g>
     </g>
    </g>
    <g id="xtick_17">
     <g id="line2d_17">
      <g>
       <use style="stroke:#000000;stroke-width:0.6;" x="327.523905" xlink:href="#m555acf4b82" y="307.584"/>
      </g>
     </g>
    </g>
    <g id="xtick_18">
     <g id="line2d_18">
      <g>
       <use style="stroke:#000000;stroke-width:0.6;" x="346.656963" xlink:href="#m555acf4b82" y="307.584"/>
      </g>
     </g>
    </g>
    <g id="xtick_19">
     <g id="line2d_19">
      <g>
       <use style="stroke:#000000;stroke-width:0.6;" x="361.497715" xlink:href="#m555acf4b82" y="307.584"/>
      </g>
     </g>
    </g>
    <g id="xtick_20">
     <g id="line2d_20">
      <g>
       <use style="stroke:#000000;stroke-width:0.6;" x="373.623493" xlink:href="#m555acf4b82" y="307.584"/>
      </g>
     </g>
    </g>
    <g id="xtick_21">
     <g id="line2d_21">
      <g>
       <use style="stroke:#000000;stroke-width:0.6;" x="383.875692" xlink:href="#m555acf4b82" y="307.584"/>
      </g>
     </g>
    </g>
    <g id="xtick_22">
     <g id="line2d_22">
      <g>
       <use style="stroke:#000000;stroke-width:0.6;" x="392.756551" xlink:href="#m555acf4b82" y="307.584"/>
      </g>
     </g>
    </g>
    <g id="xtick_23">
     <g id="line2d_23">
      <g>
       <use style="stroke:#000000;stroke-width:0.6;" x="400.590024" xlink:href="#m555acf4b82" y="307.584"/>
      </g>
     </g>
    </g>
    <g id="text_4">
     <!-- Execution time (s) -->
     <g transform="translate(190.645156 335.860562)scale(0.1 -0.1)">
      <defs>
       <path d="M 9.8125 72.90625 
L 55.90625 72.90625 
L 55.90625 64.59375 
L 19.671875 64.59375 
L 19.671875 43.015625 
L 54.390625 43.015625 
L 54.390625 34.71875 
L 19.671875 34.71875 
L 19.671875 8.296875 
L 56.78125 8.296875 
L 56.78125 0 
L 9.8125 0 
z
" id="DejaVuSans-69"/>
       <path d="M 54.890625 54.6875 
L 35.109375 28.078125 
L 55.90625 0 
L 45.3125 0 
L 29.390625 21.484375 
L 13.484375 0 
L 2.875 0 
L 24.125 28.609375 
L 4.6875 54.6875 
L 15.28125 54.6875 
L 29.78125 35.203125 
L 44.28125 54.6875 
z
" id="DejaVuSans-120"/>
       <path d="M 56.203125 29.59375 
L 56.203125 25.203125 
L 14.890625 25.203125 
Q 15.484375 15.921875 20.484375 11.0625 
Q 25.484375 6.203125 34.421875 6.203125 
Q 39.59375 6.203125 44.453125 7.46875 
Q 49.3125 8.734375 54.109375 11.28125 
L 54.109375 2.78125 
Q 49.265625 0.734375 44.1875 -0.34375 
Q 39.109375 -1.421875 33.890625 -1.421875 
Q 20.796875 -1.421875 13.15625 6.1875 
Q 5.515625 13.8125 5.515625 26.8125 
Q 5.515625 40.234375 12.765625 48.109375 
Q 20.015625 56 32.328125 56 
Q 43.359375 56 49.78125 48.890625 
Q 56.203125 41.796875 56.203125 29.59375 
z
M 47.21875 32.234375 
Q 47.125 39.59375 43.09375 43.984375 
Q 39.0625 48.390625 32.421875 48.390625 
Q 24.90625 48.390625 20.390625 44.140625 
Q 15.875 39.890625 15.1875 32.171875 
z
" id="DejaVuSans-101"/>
       <path d="M 48.78125 52.59375 
L 48.78125 44.1875 
Q 44.96875 46.296875 41.140625 47.34375 
Q 37.3125 48.390625 33.40625 48.390625 
Q 24.65625 48.390625 19.8125 42.84375 
Q 14.984375 37.3125 14.984375 27.296875 
Q 14.984375 17.28125 19.8125 11.734375 
Q 24.65625 6.203125 33.40625 6.203125 
Q 37.3125 6.203125 41.140625 7.25 
Q 44.96875 8.296875 48.78125 10.40625 
L 48.78125 2.09375 
Q 45.015625 0.34375 40.984375 -0.53125 
Q 36.96875 -1.421875 32.421875 -1.421875 
Q 20.0625 -1.421875 12.78125 6.34375 
Q 5.515625 14.109375 5.515625 27.296875 
Q 5.515625 40.671875 12.859375 48.328125 
Q 20.21875 56 33.015625 56 
Q 37.15625 56 41.109375 55.140625 
Q 45.0625 54.296875 48.78125 52.59375 
z
" id="DejaVuSans-99"/>
       <path d="M 8.5 21.578125 
L 8.5 54.6875 
L 17.484375 54.6875 
L 17.484375 21.921875 
Q 17.484375 14.15625 20.5 10.265625 
Q 23.53125 6.390625 29.59375 6.390625 
Q 36.859375 6.390625 41.078125 11.03125 
Q 45.3125 15.671875 45.3125 23.6875 
L 45.3125 54.6875 
L 54.296875 54.6875 
L 54.296875 0 
L 45.3125 0 
L 45.3125 8.40625 
Q 42.046875 3.421875 37.71875 1 
Q 33.40625 -1.421875 27.6875 -1.421875 
Q 18.265625 -1.421875 13.375 4.4375 
Q 8.5 10.296875 8.5 21.578125 
z
M 31.109375 56 
z
" id="DejaVuSans-117"/>
       <path d="M 18.3125 70.21875 
L 18.3125 54.6875 
L 36.8125 54.6875 
L 36.8125 47.703125 
L 18.3125 47.703125 
L 18.3125 18.015625 
Q 18.3125 11.328125 20.140625 9.421875 
Q 21.96875 7.515625 27.59375 7.515625 
L 36.8125 7.515625 
L 36.8125 0 
L 27.59375 0 
Q 17.1875 0 13.234375 3.875 
Q 9.28125 7.765625 9.28125 18.015625 
L 9.28125 47.703125 
L 2.6875 47.703125 
L 2.6875 54.6875 
L 9.28125 54.6875 
L 9.28125 70.21875 
z
" id="DejaVuSans-116"/>
       <path d="M 9.421875 54.6875 
L 18.40625 54.6875 
L 18.40625 0 
L 9.421875 0 
z
M 9.421875 75.984375 
L 18.40625 75.984375 
L 18.40625 64.59375 
L 9.421875 64.59375 
z
" id="DejaVuSans-105"/>
       <path d="M 30.609375 48.390625 
Q 23.390625 48.390625 19.1875 42.75 
Q 14.984375 37.109375 14.984375 27.296875 
Q 14.984375 17.484375 19.15625 11.84375 
Q 23.34375 6.203125 30.609375 6.203125 
Q 37.796875 6.203125 41.984375 11.859375 
Q 46.1875 17.53125 46.1875 27.296875 
Q 46.1875 37.015625 41.984375 42.703125 
Q 37.796875 48.390625 30.609375 48.390625 
z
M 30.609375 56 
Q 42.328125 56 49.015625 48.375 
Q 55.71875 40.765625 55.71875 27.296875 
Q 55.71875 13.875 49.015625 6.21875 
Q 42.328125 -1.421875 30.609375 -1.421875 
Q 18.84375 -1.421875 12.171875 6.21875 
Q 5.515625 13.875 5.515625 27.296875 
Q 5.515625 40.765625 12.171875 48.375 
Q 18.84375 56 30.609375 56 
z
" id="DejaVuSans-111"/>
       <path d="M 54.890625 33.015625 
L 54.890625 0 
L 45.90625 0 
L 45.90625 32.71875 
Q 45.90625 40.484375 42.875 44.328125 
Q 39.84375 48.1875 33.796875 48.1875 
Q 26.515625 48.1875 22.3125 43.546875 
Q 18.109375 38.921875 18.109375 30.90625 
L 18.109375 0 
L 9.078125 0 
L 9.078125 54.6875 
L 18.109375 54.6875 
L 18.109375 46.1875 
Q 21.34375 51.125 25.703125 53.5625 
Q 30.078125 56 35.796875 56 
Q 45.21875 56 50.046875 50.171875 
Q 54.890625 44.34375 54.890625 33.015625 
z
" id="DejaVuSans-110"/>
       <path id="DejaVuSans-32"/>
       <path d="M 52 44.1875 
Q 55.375 50.25 60.0625 53.125 
Q 64.75 56 71.09375 56 
Q 79.640625 56 84.28125 50.015625 
Q 88.921875 44.046875 88.921875 33.015625 
L 88.921875 0 
L 79.890625 0 
L 79.890625 32.71875 
Q 79.890625 40.578125 77.09375 44.375 
Q 74.3125 48.1875 68.609375 48.1875 
Q 61.625 48.1875 57.5625 43.546875 
Q 53.515625 38.921875 53.515625 30.90625 
L 53.515625 0 
L 44.484375 0 
L 44.484375 32.71875 
Q 44.484375 40.625 41.703125 44.40625 
Q 38.921875 48.1875 33.109375 48.1875 
Q 26.21875 48.1875 22.15625 43.53125 
Q 18.109375 38.875 18.109375 30.90625 
L 18.109375 0 
L 9.078125 0 
L 9.078125 54.6875 
L 18.109375 54.6875 
L 18.109375 46.1875 
Q 21.1875 51.21875 25.484375 53.609375 
Q 29.78125 56 35.6875 56 
Q 41.65625 56 45.828125 52.96875 
Q 50 49.953125 52 44.1875 
z
" id="DejaVuSans-109"/>
       <path d="M 31 75.875 
Q 24.46875 64.65625 21.28125 53.65625 
Q 18.109375 42.671875 18.109375 31.390625 
Q 18.109375 20.125 21.3125 9.0625 
Q 24.515625 -2 31 -13.1875 
L 23.1875 -13.1875 
Q 15.875 -1.703125 12.234375 9.375 
Q 8.59375 20.453125 8.59375 31.390625 
Q 8.59375 42.28125 12.203125 53.3125 
Q 15.828125 64.359375 23.1875 75.875 
z
" id="DejaVuSans-40"/>
       <path d="M 44.28125 53.078125 
L 44.28125 44.578125 
Q 40.484375 46.53125 36.375 47.5 
Q 32.28125 48.484375 27.875 48.484375 
Q 21.1875 48.484375 17.84375 46.4375 
Q 14.5 44.390625 14.5 40.28125 
Q 14.5 37.15625 16.890625 35.375 
Q 19.28125 33.59375 26.515625 31.984375 
L 29.59375 31.296875 
Q 39.15625 29.25 43.1875 25.515625 
Q 47.21875 21.78125 47.21875 15.09375 
Q 47.21875 7.46875 41.1875 3.015625 
Q 35.15625 -1.421875 24.609375 -1.421875 
Q 20.21875 -1.421875 15.453125 -0.5625 
Q 10.6875 0.296875 5.421875 2 
L 5.421875 11.28125 
Q 10.40625 8.6875 15.234375 7.390625 
Q 20.0625 6.109375 24.8125 6.109375 
Q 31.15625 6.109375 34.5625 8.28125 
Q 37.984375 10.453125 37.984375 14.40625 
Q 37.984375 18.0625 35.515625 20.015625 
Q 33.0625 21.96875 24.703125 23.78125 
L 21.578125 24.515625 
Q 13.234375 26.265625 9.515625 29.90625 
Q 5.8125 33.546875 5.8125 39.890625 
Q 5.8125 47.609375 11.28125 51.796875 
Q 16.75 56 26.8125 56 
Q 31.78125 56 36.171875 55.265625 
Q 40.578125 54.546875 44.28125 53.078125 
z
" id="DejaVuSans-115"/>
       <path d="M 8.015625 75.875 
L 15.828125 75.875 
Q 23.140625 64.359375 26.78125 53.3125 
Q 30.421875 42.28125 30.421875 31.390625 
Q 30.421875 20.453125 26.78125 9.375 
Q 23.140625 -1.703125 15.828125 -13.1875 
L 8.015625 -13.1875 
Q 14.5 -2 17.703125 9.0625 
Q 20.90625 20.125 20.90625 31.390625 
Q 20.90625 42.671875 17.703125 53.65625 
Q 14.5 64.65625 8.015625 75.875 
z
" id="DejaVuSans-41"/>
      </defs>
      <use xlink:href="#DejaVuSans-69"/>
      <use x="63.183594" xlink:href="#DejaVuSans-120"/>
      <use x="119.238281" xlink:href="#DejaVuSans-101"/>
      <use x="180.761719" xlink:href="#DejaVuSans-99"/>
      <use x="235.742188" xlink:href="#DejaVuSans-117"/>
      <use x="299.121094" xlink:href="#DejaVuSans-116"/>
      <use x="338.330078" xlink:href="#DejaVuSans-105"/>
      <use x="366.113281" xlink:href="#DejaVuSans-111"/>
      <use x="427.294922" xlink:href="#DejaVuSans-110"/>
      <use x="490.673828" xlink:href="#DejaVuSans-32"/>
      <use x="522.460938" xlink:href="#DejaVuSans-116"/>
      <use x="561.669922" xlink:href="#DejaVuSans-105"/>
      <use x="589.453125" xlink:href="#DejaVuSans-109"/>
      <use x="686.865234" xlink:href="#DejaVuSans-101"/>
      <use x="748.388672" xlink:href="#DejaVuSans-32"/>
      <use x="780.175781" xlink:href="#DejaVuSans-40"/>
      <use x="819.189453" xlink:href="#DejaVuSans-115"/>
      <use x="871.289062" xlink:href="#DejaVuSans-41"/>
     </g>
    </g>
   </g>
   <g id="matplotlib.axis_2">
    <g id="ytick_1">
     <g id="line2d_24">
      <defs>
       <path d="M 0 0 
L -3.5 0 
" id="mf9ac957372" style="stroke:#000000;stroke-width:0.8;"/>
      </defs>
      <g>
       <use style="stroke:#000000;stroke-width:0.8;" x="57.6" xlink:href="#mf9ac957372" y="283.70295"/>
      </g>
     </g>
     <g id="text_5">
      <!-- 2000 -->
      <g transform="translate(25.15 287.502169)scale(0.1 -0.1)">
       <use xlink:href="#DejaVuSans-50"/>
       <use x="63.623047" xlink:href="#DejaVuSans-48"/>
       <use x="127.246094" xlink:href="#DejaVuSans-48"/>
       <use x="190.869141" xlink:href="#DejaVuSans-48"/>
      </g>
     </g>
    </g>
    <g id="ytick_2">
     <g id="line2d_25">
      <g>
       <use style="stroke:#000000;stroke-width:0.8;" x="57.6" xlink:href="#mf9ac957372" y="226.857535"/>
      </g>
     </g>
     <g id="text_6">
      <!-- 4000 -->
      <g transform="translate(25.15 230.656754)scale(0.1 -0.1)">
       <use xlink:href="#DejaVuSans-52"/>
       <use x="63.623047" xlink:href="#DejaVuSans-48"/>
       <use x="127.246094" xlink:href="#DejaVuSans-48"/>
       <use x="190.869141" xlink:href="#DejaVuSans-48"/>
      </g>
     </g>
    </g>
    <g id="ytick_3">
     <g id="line2d_26">
      <g>
       <use style="stroke:#000000;stroke-width:0.8;" x="57.6" xlink:href="#mf9ac957372" y="170.01212"/>
      </g>
     </g>
     <g id="text_7">
      <!-- 6000 -->
      <g transform="translate(25.15 173.811339)scale(0.1 -0.1)">
       <defs>
        <path d="M 33.015625 40.375 
Q 26.375 40.375 22.484375 35.828125 
Q 18.609375 31.296875 18.609375 23.390625 
Q 18.609375 15.53125 22.484375 10.953125 
Q 26.375 6.390625 33.015625 6.390625 
Q 39.65625 6.390625 43.53125 10.953125 
Q 47.40625 15.53125 47.40625 23.390625 
Q 47.40625 31.296875 43.53125 35.828125 
Q 39.65625 40.375 33.015625 40.375 
z
M 52.59375 71.296875 
L 52.59375 62.3125 
Q 48.875 64.0625 45.09375 64.984375 
Q 41.3125 65.921875 37.59375 65.921875 
Q 27.828125 65.921875 22.671875 59.328125 
Q 17.53125 52.734375 16.796875 39.40625 
Q 19.671875 43.65625 24.015625 45.921875 
Q 28.375 48.1875 33.59375 48.1875 
Q 44.578125 48.1875 50.953125 41.515625 
Q 57.328125 34.859375 57.328125 23.390625 
Q 57.328125 12.15625 50.6875 5.359375 
Q 44.046875 -1.421875 33.015625 -1.421875 
Q 20.359375 -1.421875 13.671875 8.265625 
Q 6.984375 17.96875 6.984375 36.375 
Q 6.984375 53.65625 15.1875 63.9375 
Q 23.390625 74.21875 37.203125 74.21875 
Q 40.921875 74.21875 44.703125 73.484375 
Q 48.484375 72.75 52.59375 71.296875 
z
" id="DejaVuSans-54"/>
       </defs>
       <use xlink:href="#DejaVuSans-54"/>
       <use x="63.623047" xlink:href="#DejaVuSans-48"/>
       <use x="127.246094" xlink:href="#DejaVuSans-48"/>
       <use x="190.869141" xlink:href="#DejaVuSans-48"/>
      </g>
     </g>
    </g>
    <g id="ytick_4">
     <g id="line2d_27">
      <g>
       <use style="stroke:#000000;stroke-width:0.8;" x="57.6" xlink:href="#mf9ac957372" y="113.166705"/>
      </g>
     </g>
     <g id="text_8">
      <!-- 8000 -->
      <g transform="translate(25.15 116.965924)scale(0.1 -0.1)">
       <defs>
        <path d="M 31.78125 34.625 
Q 24.75 34.625 20.71875 30.859375 
Q 16.703125 27.09375 16.703125 20.515625 
Q 16.703125 13.921875 20.71875 10.15625 
Q 24.75 6.390625 31.78125 6.390625 
Q 38.8125 6.390625 42.859375 10.171875 
Q 46.921875 13.96875 46.921875 20.515625 
Q 46.921875 27.09375 42.890625 30.859375 
Q 38.875 34.625 31.78125 34.625 
z
M 21.921875 38.8125 
Q 15.578125 40.375 12.03125 44.71875 
Q 8.5 49.078125 8.5 55.328125 
Q 8.5 64.0625 14.71875 69.140625 
Q 20.953125 74.21875 31.78125 74.21875 
Q 42.671875 74.21875 48.875 69.140625 
Q 55.078125 64.0625 55.078125 55.328125 
Q 55.078125 49.078125 51.53125 44.71875 
Q 48 40.375 41.703125 38.8125 
Q 48.828125 37.15625 52.796875 32.3125 
Q 56.78125 27.484375 56.78125 20.515625 
Q 56.78125 9.90625 50.3125 4.234375 
Q 43.84375 -1.421875 31.78125 -1.421875 
Q 19.734375 -1.421875 13.25 4.234375 
Q 6.78125 9.90625 6.78125 20.515625 
Q 6.78125 27.484375 10.78125 32.3125 
Q 14.796875 37.15625 21.921875 38.8125 
z
M 18.3125 54.390625 
Q 18.3125 48.734375 21.84375 45.5625 
Q 25.390625 42.390625 31.78125 42.390625 
Q 38.140625 42.390625 41.71875 45.5625 
Q 45.3125 48.734375 45.3125 54.390625 
Q 45.3125 60.0625 41.71875 63.234375 
Q 38.140625 66.40625 31.78125 66.40625 
Q 25.390625 66.40625 21.84375 63.234375 
Q 18.3125 60.0625 18.3125 54.390625 
z
" id="DejaVuSans-56"/>
       </defs>
       <use xlink:href="#DejaVuSans-56"/>
       <use x="63.623047" xlink:href="#DejaVuSans-48"/>
       <use x="127.246094" xlink:href="#DejaVuSans-48"/>
       <use x="190.869141" xlink:href="#DejaVuSans-48"/>
      </g>
     </g>
    </g>
    <g id="ytick_5">
     <g id="line2d_28">
      <g>
       <use style="stroke:#000000;stroke-width:0.8;" x="57.6" xlink:href="#mf9ac957372" y="56.32129"/>
      </g>
     </g>
     <g id="text_9">
      <!-- 10000 -->
      <g transform="translate(18.7875 60.120509)scale(0.1 -0.1)">
       <use xlink:href="#DejaVuSans-49"/>
       <use x="63.623047" xlink:href="#DejaVuSans-48"/>
       <use x="127.246094" xlink:href="#DejaVuSans-48"/>
       <use x="190.869141" xlink:href="#DejaVuSans-48"/>
       <use x="254.492188" xlink:href="#DejaVuSans-48"/>
      </g>
     </g>
    </g>
    <g id="text_10">
     <!-- Memory (MB) -->
     <g transform="translate(12.707812 208.098312)rotate(-90)scale(0.1 -0.1)">
      <defs>
       <path d="M 9.8125 72.90625 
L 24.515625 72.90625 
L 43.109375 23.296875 
L 61.8125 72.90625 
L 76.515625 72.90625 
L 76.515625 0 
L 66.890625 0 
L 66.890625 64.015625 
L 48.09375 14.015625 
L 38.1875 14.015625 
L 19.390625 64.015625 
L 19.390625 0 
L 9.8125 0 
z
" id="DejaVuSans-77"/>
       <path d="M 41.109375 46.296875 
Q 39.59375 47.171875 37.8125 47.578125 
Q 36.03125 48 33.890625 48 
Q 26.265625 48 22.1875 43.046875 
Q 18.109375 38.09375 18.109375 28.8125 
L 18.109375 0 
L 9.078125 0 
L 9.078125 54.6875 
L 18.109375 54.6875 
L 18.109375 46.1875 
Q 20.953125 51.171875 25.484375 53.578125 
Q 30.03125 56 36.53125 56 
Q 37.453125 56 38.578125 55.875 
Q 39.703125 55.765625 41.0625 55.515625 
z
" id="DejaVuSans-114"/>
       <path d="M 32.171875 -5.078125 
Q 28.375 -14.84375 24.75 -17.8125 
Q 21.140625 -20.796875 15.09375 -20.796875 
L 7.90625 -20.796875 
L 7.90625 -13.28125 
L 13.1875 -13.28125 
Q 16.890625 -13.28125 18.9375 -11.515625 
Q 21 -9.765625 23.484375 -3.21875 
L 25.09375 0.875 
L 2.984375 54.6875 
L 12.5 54.6875 
L 29.59375 11.921875 
L 46.6875 54.6875 
L 56.203125 54.6875 
z
" id="DejaVuSans-121"/>
       <path d="M 19.671875 34.8125 
L 19.671875 8.109375 
L 35.5 8.109375 
Q 43.453125 8.109375 47.28125 11.40625 
Q 51.125 14.703125 51.125 21.484375 
Q 51.125 28.328125 47.28125 31.5625 
Q 43.453125 34.8125 35.5 34.8125 
z
M 19.671875 64.796875 
L 19.671875 42.828125 
L 34.28125 42.828125 
Q 41.5 42.828125 45.03125 45.53125 
Q 48.578125 48.25 48.578125 53.8125 
Q 48.578125 59.328125 45.03125 62.0625 
Q 41.5 64.796875 34.28125 64.796875 
z
M 9.8125 72.90625 
L 35.015625 72.90625 
Q 46.296875 72.90625 52.390625 68.21875 
Q 58.5 63.53125 58.5 54.890625 
Q 58.5 48.1875 55.375 44.234375 
Q 52.25 40.28125 46.1875 39.3125 
Q 53.46875 37.75 57.5 32.78125 
Q 61.53125 27.828125 61.53125 20.40625 
Q 61.53125 10.640625 54.890625 5.3125 
Q 48.25 0 35.984375 0 
L 9.8125 0 
z
" id="DejaVuSans-66"/>
      </defs>
      <use xlink:href="#DejaVuSans-77"/>
      <use x="86.279297" xlink:href="#DejaVuSans-101"/>
      <use x="147.802734" xlink:href="#DejaVuSans-109"/>
      <use x="245.214844" xlink:href="#DejaVuSans-111"/>
      <use x="306.396484" xlink:href="#DejaVuSans-114"/>
      <use x="347.509766" xlink:href="#DejaVuSans-121"/>
      <use x="406.689453" xlink:href="#DejaVuSans-32"/>
      <use x="438.476562" xlink:href="#DejaVuSans-40"/>
      <use x="477.490234" xlink:href="#DejaVuSans-77"/>
      <use x="563.769531" xlink:href="#DejaVuSans-66"/>
      <use x="632.373047" xlink:href="#DejaVuSans-41"/>
     </g>
    </g>
   </g>
   <g id="line2d_29">
    <path clip-path="url(#p8355d26af5)" d="M 73.832727 295.488 
L 84.555093 295.405691 
L 93.498054 294.618929 
L 95.46276 294.06582 
L 101.84017 292.689743 
L 105.918074 292.555279 
L 107.81345 292.309517 
L 110.037485 291.570254 
L 112.61681 291.246957 
L 114.878001 290.763467 
L 116.31257 290.584531 
L 125.157013 288.362899 
L 131.277778 286.72872 
L 132.96506 286.131488 
L 141.524494 283.716251 
L 143.124854 283.02926 
L 144.480774 282.787108 
L 147.67936 281.622798 
L 149.633323 281.285065 
L 150.968157 281.281805 
L 152.460156 281.082146 
L 154.792252 280.465356 
L 156.167352 280.281995 
L 157.846035 279.764394 
L 159.754145 279.315248 
L 162.329353 278.995095 
L 163.893206 278.279581 
L 166.220772 277.392465 
L 167.622865 277.054849 
L 168.806074 276.45657 
L 172.385928 275.064892 
L 173.317927 274.875594 
L 174.61278 274.035046 
L 177.436075 272.857697 
L 178.712841 272.638362 
L 184.408287 271.103838 
L 189.839249 268.930288 
L 191.733486 268.387075 
L 193.289376 267.796246 
L 194.21527 267.651188 
L 195.222074 267.017168 
L 196.135605 266.649399 
L 197.519457 265.38392 
L 198.423044 265.198464 
L 199.341724 264.759795 
L 200.170836 263.989448 
L 201.148751 263.251349 
L 202.316701 261.654657 
L 203.189473 261.428337 
L 206.244736 260.987341 
L 207.183283 260.656593 
L 210.348402 258.621465 
L 213.710192 256.005638 
L 214.5872 255.508294 
L 216.149206 255.117707 
L 216.930331 254.652611 
L 217.657003 253.992862 
L 218.453586 253.783657 
L 219.259994 253.211223 
L 219.864387 252.471377 
L 220.618415 251.903949 
L 224.214973 248.604739 
L 225.013918 248.334763 
L 225.829165 247.504925 
L 226.668315 245.834656 
L 227.766902 244.086386 
L 229.019634 243.5462 
L 231.343176 243.33257 
L 234.282896 241.449486 
L 234.857555 240.789039 
L 235.808177 240.496011 
L 236.382925 240.15758 
L 237.075167 241.11024 
L 238.459122 240.306247 
L 239.238804 240.123585 
L 240.65838 239.066613 
L 241.868092 238.489872 
L 243.50033 236.801325 
L 244.627071 236.189308 
L 246.812861 236.534491 
L 247.74287 236.129468 
L 248.467588 235.229197 
L 250.978794 233.214093 
L 251.693087 232.849002 
L 253.326264 231.480608 
L 254.25094 229.996494 
L 256.584502 229.026254 
L 256.969114 228.7302 
L 259.887852 228.128777 
L 260.292804 228.128428 
L 260.960355 228.00025 
L 262.761949 226.967377 
L 264.329788 226.773189 
L 266.930246 226.637677 
L 275.997467 225.86733 
L 277.524812 225.274406 
L 277.860039 225.273009 
L 278.270703 224.859138 
L 278.652645 224.774734 
L 279.290584 225.696776 
L 287.28545 225.582219 
L 287.751093 225.526221 
L 288.960841 224.588114 
L 289.257612 224.584388 
L 289.66034 225.506896 
L 297.025843 225.309448 
L 298.212953 224.342701 
L 300.509535 224.213243 
L 303.847225 224.100665 
L 305.870952 223.961195 
L 309.403204 223.889481 
L 309.769723 224.747957 
L 310.548586 224.63864 
L 311.359622 224.045133 
L 313.836391 221.164335 
L 314.496096 219.554837 
L 315.403836 218.52208 
L 315.854508 217.863379 
L 316.270904 217.632636 
L 316.744392 216.731782 
L 317.120741 216.55238 
L 318.293528 214.341692 
L 319.014506 214.605615 
L 319.341105 214.533085 
L 320.193333 213.801273 
L 320.795342 213.525592 
L 321.113227 213.149557 
L 322.927049 209.431471 
L 324.294328 208.59523 
L 328.133199 207.703341 
L 328.50526 207.407985 
L 328.80817 207.318575 
L 329.345667 205.838069 
L 329.641163 205.424082 
L 330.407364 205.009163 
L 331.598267 202.877989 
L 331.935323 201.070578 
L 332.584186 200.638312 
L 333.840165 198.962688 
L 334.274503 197.089267 
L 335.53113 195.903069 
L 336.120791 195.193842 
L 336.837598 194.692424 
L 337.639186 193.76817 
L 337.969746 193.759788 
L 338.572991 193.499009 
L 340.33294 189.533763 
L 340.798261 188.678663 
L 341.263082 187.213059 
L 341.511577 186.976262 
L 341.744566 186.318143 
L 342.036399 185.120653 
L 342.23379 184.930656 
L 343.019383 184.670692 
L 343.992368 182.310405 
L 344.285349 182.168722 
L 344.928275 182.094097 
L 345.496403 181.221418 
L 345.728107 180.791248 
L 346.542901 178.538299 
L 346.784974 178.359479 
L 347.093162 177.195169 
L 347.798579 176.719712 
L 348.812406 174.114362 
L 349.630434 171.761176 
L 349.903118 171.134258 
L 350.563474 170.236897 
L 350.889462 170.148651 
L 351.074661 169.982986 
L 351.891205 168.13704 
L 352.377083 166.950959 
L 352.779651 165.948704 
L 354.809395 160.817635 
L 355.032944 159.135841 
L 355.450054 158.698453 
L 356.408917 156.683233 
L 356.731602 155.590986 
L 356.96964 155.486674 
L 357.24585 154.281617 
L 357.906842 153.942138 
L 358.109624 153.583566 
L 358.705814 151.914345 
L 359.009902 151.273805 
L 359.38371 150.221257 
L 359.588443 150.049888 
L 359.934274 149.142049 
L 360.207692 147.715562 
L 360.530301 147.362811 
L 360.86926 146.116658 
L 361.707725 144.892624 
L 362.229551 143.296398 
L 362.671359 141.785972 
L 362.926599 141.785972 
L 363.356135 141.052646 
L 363.968854 139.617544 
L 364.343125 138.178717 
L 364.739427 137.726078 
L 364.977597 136.473289 
L 365.28011 136.148362 
L 366.308691 133.993206 
L 366.569865 132.170777 
L 366.789001 132.734247 
L 367.062186 130.455802 
L 367.259414 130.281406 
L 367.446829 130.296424 
L 367.567315 130.124938 
L 368.080955 126.829454 
L 368.644423 126.245145 
L 369.251543 126.334555 
L 370.004913 124.97012 
L 370.996582 124.121539 
L 371.179713 124.115718 
L 371.72228 122.959207 
L 372.674 120.114965 
L 373.000903 119.173597 
L 373.543217 117.320899 
L 375.028697 112.755861 
L 375.492449 112.170155 
L 376.262639 110.027106 
L 376.63356 108.746842 
L 376.869651 106.795886 
L 377.038501 106.558856 
L 377.585381 105.572783 
L 377.770584 105.358921 
L 378.176198 103.565131 
L 381.441804 102.614217 
L 381.968833 101.598923 
L 382.861987 98.044057 
L 384.42745 96.090539 
L 384.821492 95.748266 
L 385.029489 94.366717 
L 385.338738 94.351699 
L 385.640915 93.652251 
L 386.799867 89.603067 
L 387.014617 88.072385 
L 387.136647 88.005327 
L 387.401853 87.587382 
L 389.363652 79.688674 
L 390.34157 77.737717 
L 390.481067 77.708962 
L 390.671533 78.726933 
L 390.823728 77.403012 
L 391.316843 75.784898 
L 391.487714 75.53902 
L 391.911005 74.26772 
L 393.789607 71.91826 
L 395.681356 63.503815 
L 395.947855 63.19833 
L 396.239376 62.017837 
L 396.670113 61.295571 
L 397.12118 59.623206 
L 398.487273 53.568 
L 398.487273 53.568 
" style="fill:none;stroke:#000000;stroke-linecap:square;stroke-width:1.5;"/>
    <defs>
     <path d="M 0 3 
C 0.795609 3 1.55874 2.683901 2.12132 2.12132 
C 2.683901 1.55874 3 0.795609 3 0 
C 3 -0.795609 2.683901 -1.55874 2.12132 -2.12132 
C 1.55874 -2.683901 0.795609 -3 0 -3 
C -0.795609 -3 -1.55874 -2.683901 -2.12132 -2.12132 
C -2.683901 -1.55874 -3 -0.795609 -3 0 
C -3 0.795609 -2.683901 1.55874 -2.12132 2.12132 
C -1.55874 2.683901 -0.795609 3 0 3 
z
" id="m45d8dcef1a" style="stroke:#000000;"/>
    </defs>
    <g clip-path="url(#p8355d26af5)">
     <use style="stroke:#000000;" x="73.832727" xlink:href="#m45d8dcef1a" y="295.488"/>
     <use style="stroke:#000000;" x="76.642946" xlink:href="#m45d8dcef1a" y="295.440734"/>
     <use style="stroke:#000000;" x="80.20964" xlink:href="#m45d8dcef1a" y="295.430605"/>
     <use style="stroke:#000000;" x="84.555093" xlink:href="#m45d8dcef1a" y="295.405691"/>
     <use style="stroke:#000000;" x="88.010644" xlink:href="#m45d8dcef1a" y="295.072383"/>
     <use style="stroke:#000000;" x="91.606657" xlink:href="#m45d8dcef1a" y="294.666777"/>
     <use style="stroke:#000000;" x="93.498054" xlink:href="#m45d8dcef1a" y="294.618929"/>
     <use style="stroke:#000000;" x="95.46276" xlink:href="#m45d8dcef1a" y="294.06582"/>
     <use style="stroke:#000000;" x="99.082876" xlink:href="#m45d8dcef1a" y="293.229231"/>
     <use style="stroke:#000000;" x="101.84017" xlink:href="#m45d8dcef1a" y="292.689743"/>
     <use style="stroke:#000000;" x="104.326062" xlink:href="#m45d8dcef1a" y="292.666576"/>
     <use style="stroke:#000000;" x="105.918074" xlink:href="#m45d8dcef1a" y="292.555279"/>
     <use style="stroke:#000000;" x="107.81345" xlink:href="#m45d8dcef1a" y="292.309517"/>
     <use style="stroke:#000000;" x="110.037485" xlink:href="#m45d8dcef1a" y="291.570254"/>
     <use style="stroke:#000000;" x="112.61681" xlink:href="#m45d8dcef1a" y="291.246957"/>
     <use style="stroke:#000000;" x="114.878001" xlink:href="#m45d8dcef1a" y="290.763467"/>
     <use style="stroke:#000000;" x="116.31257" xlink:href="#m45d8dcef1a" y="290.584531"/>
     <use style="stroke:#000000;" x="118.84484" xlink:href="#m45d8dcef1a" y="289.91966"/>
     <use style="stroke:#000000;" x="120.739669" xlink:href="#m45d8dcef1a" y="289.494729"/>
     <use style="stroke:#000000;" x="122.991905" xlink:href="#m45d8dcef1a" y="288.804362"/>
     <use style="stroke:#000000;" x="125.157013" xlink:href="#m45d8dcef1a" y="288.362899"/>
     <use style="stroke:#000000;" x="127.416074" xlink:href="#m45d8dcef1a" y="287.799546"/>
     <use style="stroke:#000000;" x="129.692624" xlink:href="#m45d8dcef1a" y="287.206855"/>
     <use style="stroke:#000000;" x="131.277778" xlink:href="#m45d8dcef1a" y="286.72872"/>
     <use style="stroke:#000000;" x="132.96506" xlink:href="#m45d8dcef1a" y="286.131488"/>
     <use style="stroke:#000000;" x="134.927231" xlink:href="#m45d8dcef1a" y="285.567553"/>
     <use style="stroke:#000000;" x="136.495879" xlink:href="#m45d8dcef1a" y="285.134822"/>
     <use style="stroke:#000000;" x="137.95079" xlink:href="#m45d8dcef1a" y="284.81234"/>
     <use style="stroke:#000000;" x="139.486385" xlink:href="#m45d8dcef1a" y="284.201604"/>
     <use style="stroke:#000000;" x="141.524494" xlink:href="#m45d8dcef1a" y="283.716251"/>
     <use style="stroke:#000000;" x="143.124854" xlink:href="#m45d8dcef1a" y="283.02926"/>
     <use style="stroke:#000000;" x="144.480774" xlink:href="#m45d8dcef1a" y="282.787108"/>
     <use style="stroke:#000000;" x="145.988203" xlink:href="#m45d8dcef1a" y="282.223522"/>
     <use style="stroke:#000000;" x="147.67936" xlink:href="#m45d8dcef1a" y="281.622798"/>
     <use style="stroke:#000000;" x="149.633323" xlink:href="#m45d8dcef1a" y="281.285065"/>
     <use style="stroke:#000000;" x="150.968157" xlink:href="#m45d8dcef1a" y="281.281805"/>
     <use style="stroke:#000000;" x="152.460156" xlink:href="#m45d8dcef1a" y="281.082146"/>
     <use style="stroke:#000000;" x="154.792252" xlink:href="#m45d8dcef1a" y="280.465356"/>
     <use style="stroke:#000000;" x="156.167352" xlink:href="#m45d8dcef1a" y="280.281995"/>
     <use style="stroke:#000000;" x="157.846035" xlink:href="#m45d8dcef1a" y="279.764394"/>
     <use style="stroke:#000000;" x="159.754145" xlink:href="#m45d8dcef1a" y="279.315248"/>
     <use style="stroke:#000000;" x="161.105472" xlink:href="#m45d8dcef1a" y="279.153891"/>
     <use style="stroke:#000000;" x="162.329353" xlink:href="#m45d8dcef1a" y="278.995095"/>
     <use style="stroke:#000000;" x="163.893206" xlink:href="#m45d8dcef1a" y="278.279581"/>
     <use style="stroke:#000000;" x="166.220772" xlink:href="#m45d8dcef1a" y="277.392465"/>
     <use style="stroke:#000000;" x="167.622865" xlink:href="#m45d8dcef1a" y="277.054849"/>
     <use style="stroke:#000000;" x="168.806074" xlink:href="#m45d8dcef1a" y="276.45657"/>
     <use style="stroke:#000000;" x="170.017156" xlink:href="#m45d8dcef1a" y="275.987749"/>
     <use style="stroke:#000000;" x="171.179227" xlink:href="#m45d8dcef1a" y="275.497507"/>
     <use style="stroke:#000000;" x="172.385928" xlink:href="#m45d8dcef1a" y="275.064892"/>
     <use style="stroke:#000000;" x="173.317927" xlink:href="#m45d8dcef1a" y="274.875594"/>
     <use style="stroke:#000000;" x="174.61278" xlink:href="#m45d8dcef1a" y="274.035046"/>
     <use style="stroke:#000000;" x="177.436075" xlink:href="#m45d8dcef1a" y="272.857697"/>
     <use style="stroke:#000000;" x="178.712841" xlink:href="#m45d8dcef1a" y="272.638362"/>
     <use style="stroke:#000000;" x="181.82273" xlink:href="#m45d8dcef1a" y="271.800375"/>
     <use style="stroke:#000000;" x="183.650188" xlink:href="#m45d8dcef1a" y="271.276372"/>
     <use style="stroke:#000000;" x="184.408287" xlink:href="#m45d8dcef1a" y="271.103838"/>
     <use style="stroke:#000000;" x="186.046102" xlink:href="#m45d8dcef1a" y="270.467606"/>
     <use style="stroke:#000000;" x="189.839249" xlink:href="#m45d8dcef1a" y="268.930288"/>
     <use style="stroke:#000000;" x="191.733486" xlink:href="#m45d8dcef1a" y="268.387075"/>
     <use style="stroke:#000000;" x="193.289376" xlink:href="#m45d8dcef1a" y="267.796246"/>
     <use style="stroke:#000000;" x="194.21527" xlink:href="#m45d8dcef1a" y="267.651188"/>
     <use style="stroke:#000000;" x="195.222074" xlink:href="#m45d8dcef1a" y="267.017168"/>
     <use style="stroke:#000000;" x="196.135605" xlink:href="#m45d8dcef1a" y="266.649399"/>
     <use style="stroke:#000000;" x="197.519457" xlink:href="#m45d8dcef1a" y="265.38392"/>
     <use style="stroke:#000000;" x="198.423044" xlink:href="#m45d8dcef1a" y="265.198464"/>
     <use style="stroke:#000000;" x="199.341724" xlink:href="#m45d8dcef1a" y="264.759795"/>
     <use style="stroke:#000000;" x="200.170836" xlink:href="#m45d8dcef1a" y="263.989448"/>
     <use style="stroke:#000000;" x="201.148751" xlink:href="#m45d8dcef1a" y="263.251349"/>
     <use style="stroke:#000000;" x="202.316701" xlink:href="#m45d8dcef1a" y="261.654657"/>
     <use style="stroke:#000000;" x="203.189473" xlink:href="#m45d8dcef1a" y="261.428337"/>
     <use style="stroke:#000000;" x="206.244736" xlink:href="#m45d8dcef1a" y="260.987341"/>
     <use style="stroke:#000000;" x="207.183283" xlink:href="#m45d8dcef1a" y="260.656593"/>
     <use style="stroke:#000000;" x="208.217175" xlink:href="#m45d8dcef1a" y="259.977635"/>
     <use style="stroke:#000000;" x="209.442588" xlink:href="#m45d8dcef1a" y="259.280516"/>
     <use style="stroke:#000000;" x="210.348402" xlink:href="#m45d8dcef1a" y="258.621465"/>
     <use style="stroke:#000000;" x="211.89348" xlink:href="#m45d8dcef1a" y="257.40465"/>
     <use style="stroke:#000000;" x="212.653242" xlink:href="#m45d8dcef1a" y="256.866443"/>
     <use style="stroke:#000000;" x="213.710192" xlink:href="#m45d8dcef1a" y="256.005638"/>
     <use style="stroke:#000000;" x="214.5872" xlink:href="#m45d8dcef1a" y="255.508294"/>
     <use style="stroke:#000000;" x="215.360331" xlink:href="#m45d8dcef1a" y="255.267422"/>
     <use style="stroke:#000000;" x="216.149206" xlink:href="#m45d8dcef1a" y="255.117707"/>
     <use style="stroke:#000000;" x="216.930331" xlink:href="#m45d8dcef1a" y="254.652611"/>
     <use style="stroke:#000000;" x="217.657003" xlink:href="#m45d8dcef1a" y="253.992862"/>
     <use style="stroke:#000000;" x="218.453586" xlink:href="#m45d8dcef1a" y="253.783657"/>
     <use style="stroke:#000000;" x="219.259994" xlink:href="#m45d8dcef1a" y="253.211223"/>
     <use style="stroke:#000000;" x="219.864387" xlink:href="#m45d8dcef1a" y="252.471377"/>
     <use style="stroke:#000000;" x="220.618415" xlink:href="#m45d8dcef1a" y="251.903949"/>
     <use style="stroke:#000000;" x="222.886153" xlink:href="#m45d8dcef1a" y="249.807701"/>
     <use style="stroke:#000000;" x="223.600324" xlink:href="#m45d8dcef1a" y="249.205929"/>
     <use style="stroke:#000000;" x="224.214973" xlink:href="#m45d8dcef1a" y="248.604739"/>
     <use style="stroke:#000000;" x="225.013918" xlink:href="#m45d8dcef1a" y="248.334763"/>
     <use style="stroke:#000000;" x="225.829165" xlink:href="#m45d8dcef1a" y="247.504925"/>
     <use style="stroke:#000000;" x="226.668315" xlink:href="#m45d8dcef1a" y="245.834656"/>
     <use style="stroke:#000000;" x="227.766902" xlink:href="#m45d8dcef1a" y="244.086386"/>
     <use style="stroke:#000000;" x="228.375434" xlink:href="#m45d8dcef1a" y="243.771355"/>
     <use style="stroke:#000000;" x="229.019634" xlink:href="#m45d8dcef1a" y="243.5462"/>
     <use style="stroke:#000000;" x="231.343176" xlink:href="#m45d8dcef1a" y="243.33257"/>
     <use style="stroke:#000000;" x="232.103357" xlink:href="#m45d8dcef1a" y="242.857229"/>
     <use style="stroke:#000000;" x="232.958226" xlink:href="#m45d8dcef1a" y="242.345217"/>
     <use style="stroke:#000000;" x="233.62927" xlink:href="#m45d8dcef1a" y="241.949274"/>
     <use style="stroke:#000000;" x="234.282896" xlink:href="#m45d8dcef1a" y="241.449486"/>
     <use style="stroke:#000000;" x="234.857555" xlink:href="#m45d8dcef1a" y="240.789039"/>
     <use style="stroke:#000000;" x="235.808177" xlink:href="#m45d8dcef1a" y="240.496011"/>
     <use style="stroke:#000000;" x="236.382925" xlink:href="#m45d8dcef1a" y="240.15758"/>
     <use style="stroke:#000000;" x="237.075167" xlink:href="#m45d8dcef1a" y="241.11024"/>
     <use style="stroke:#000000;" x="237.702954" xlink:href="#m45d8dcef1a" y="240.685309"/>
     <use style="stroke:#000000;" x="238.459122" xlink:href="#m45d8dcef1a" y="240.306247"/>
     <use style="stroke:#000000;" x="239.238804" xlink:href="#m45d8dcef1a" y="240.123585"/>
     <use style="stroke:#000000;" x="239.992706" xlink:href="#m45d8dcef1a" y="239.541605"/>
     <use style="stroke:#000000;" x="240.65838" xlink:href="#m45d8dcef1a" y="239.066613"/>
     <use style="stroke:#000000;" x="241.360439" xlink:href="#m45d8dcef1a" y="238.708507"/>
     <use style="stroke:#000000;" x="241.868092" xlink:href="#m45d8dcef1a" y="238.489872"/>
     <use style="stroke:#000000;" x="243.50033" xlink:href="#m45d8dcef1a" y="236.801325"/>
     <use style="stroke:#000000;" x="244.627071" xlink:href="#m45d8dcef1a" y="236.189308"/>
     <use style="stroke:#000000;" x="246.812861" xlink:href="#m45d8dcef1a" y="236.534491"/>
     <use style="stroke:#000000;" x="247.74287" xlink:href="#m45d8dcef1a" y="236.129468"/>
     <use style="stroke:#000000;" x="248.467588" xlink:href="#m45d8dcef1a" y="235.229197"/>
     <use style="stroke:#000000;" x="249.502343" xlink:href="#m45d8dcef1a" y="234.411118"/>
     <use style="stroke:#000000;" x="250.282092" xlink:href="#m45d8dcef1a" y="233.866973"/>
     <use style="stroke:#000000;" x="250.978794" xlink:href="#m45d8dcef1a" y="233.214093"/>
     <use style="stroke:#000000;" x="251.693087" xlink:href="#m45d8dcef1a" y="232.849002"/>
     <use style="stroke:#000000;" x="252.398107" xlink:href="#m45d8dcef1a" y="232.290305"/>
     <use style="stroke:#000000;" x="253.326264" xlink:href="#m45d8dcef1a" y="231.480608"/>
     <use style="stroke:#000000;" x="253.754642" xlink:href="#m45d8dcef1a" y="230.857066"/>
     <use style="stroke:#000000;" x="254.25094" xlink:href="#m45d8dcef1a" y="229.996494"/>
     <use style="stroke:#000000;" x="255.057402" xlink:href="#m45d8dcef1a" y="229.692872"/>
     <use style="stroke:#000000;" x="255.555559" xlink:href="#m45d8dcef1a" y="229.448158"/>
     <use style="stroke:#000000;" x="256.018318" xlink:href="#m45d8dcef1a" y="229.444549"/>
     <use style="stroke:#000000;" x="256.584502" xlink:href="#m45d8dcef1a" y="229.026254"/>
     <use style="stroke:#000000;" x="256.969114" xlink:href="#m45d8dcef1a" y="228.7302"/>
     <use style="stroke:#000000;" x="258.491483" xlink:href="#m45d8dcef1a" y="228.372094"/>
     <use style="stroke:#000000;" x="259.887852" xlink:href="#m45d8dcef1a" y="228.128777"/>
     <use style="stroke:#000000;" x="260.292804" xlink:href="#m45d8dcef1a" y="228.128428"/>
     <use style="stroke:#000000;" x="260.960355" xlink:href="#m45d8dcef1a" y="228.00025"/>
     <use style="stroke:#000000;" x="262.761949" xlink:href="#m45d8dcef1a" y="226.967377"/>
     <use style="stroke:#000000;" x="263.575153" xlink:href="#m45d8dcef1a" y="226.81219"/>
     <use style="stroke:#000000;" x="264.329788" xlink:href="#m45d8dcef1a" y="226.773189"/>
     <use style="stroke:#000000;" x="265.145042" xlink:href="#m45d8dcef1a" y="226.7605"/>
     <use style="stroke:#000000;" x="266.930246" xlink:href="#m45d8dcef1a" y="226.637677"/>
     <use style="stroke:#000000;" x="275.997467" xlink:href="#m45d8dcef1a" y="225.86733"/>
     <use style="stroke:#000000;" x="277.524812" xlink:href="#m45d8dcef1a" y="225.274406"/>
     <use style="stroke:#000000;" x="277.860039" xlink:href="#m45d8dcef1a" y="225.273009"/>
     <use style="stroke:#000000;" x="278.270703" xlink:href="#m45d8dcef1a" y="224.859138"/>
     <use style="stroke:#000000;" x="278.652645" xlink:href="#m45d8dcef1a" y="224.774734"/>
     <use style="stroke:#000000;" x="279.290584" xlink:href="#m45d8dcef1a" y="225.696776"/>
     <use style="stroke:#000000;" x="279.616154" xlink:href="#m45d8dcef1a" y="225.695379"/>
     <use style="stroke:#000000;" x="279.985604" xlink:href="#m45d8dcef1a" y="225.692817"/>
     <use style="stroke:#000000;" x="280.363287" xlink:href="#m45d8dcef1a" y="225.682922"/>
     <use style="stroke:#000000;" x="280.724833" xlink:href="#m45d8dcef1a" y="225.677566"/>
     <use style="stroke:#000000;" x="281.05914" xlink:href="#m45d8dcef1a" y="225.668136"/>
     <use style="stroke:#000000;" x="281.40056" xlink:href="#m45d8dcef1a" y="225.664644"/>
     <use style="stroke:#000000;" x="281.795504" xlink:href="#m45d8dcef1a" y="225.658241"/>
     <use style="stroke:#000000;" x="282.248636" xlink:href="#m45d8dcef1a" y="225.654748"/>
     <use style="stroke:#000000;" x="282.709701" xlink:href="#m45d8dcef1a" y="225.649276"/>
     <use style="stroke:#000000;" x="284.302972" xlink:href="#m45d8dcef1a" y="225.631348"/>
     <use style="stroke:#000000;" x="284.600028" xlink:href="#m45d8dcef1a" y="225.628321"/>
     <use style="stroke:#000000;" x="285.052983" xlink:href="#m45d8dcef1a" y="225.623199"/>
     <use style="stroke:#000000;" x="285.38705" xlink:href="#m45d8dcef1a" y="225.618076"/>
     <use style="stroke:#000000;" x="285.724236" xlink:href="#m45d8dcef1a" y="225.610276"/>
     <use style="stroke:#000000;" x="286.056762" xlink:href="#m45d8dcef1a" y="225.604804"/>
     <use style="stroke:#000000;" x="286.423564" xlink:href="#m45d8dcef1a" y="225.597819"/>
     <use style="stroke:#000000;" x="286.856713" xlink:href="#m45d8dcef1a" y="225.590834"/>
     <use style="stroke:#000000;" x="287.28545" xlink:href="#m45d8dcef1a" y="225.582219"/>
     <use style="stroke:#000000;" x="287.751093" xlink:href="#m45d8dcef1a" y="225.526221"/>
     <use style="stroke:#000000;" x="288.960841" xlink:href="#m45d8dcef1a" y="224.588114"/>
     <use style="stroke:#000000;" x="289.257612" xlink:href="#m45d8dcef1a" y="224.584388"/>
     <use style="stroke:#000000;" x="289.66034" xlink:href="#m45d8dcef1a" y="225.506896"/>
     <use style="stroke:#000000;" x="289.988939" xlink:href="#m45d8dcef1a" y="225.501075"/>
     <use style="stroke:#000000;" x="290.369531" xlink:href="#m45d8dcef1a" y="225.496301"/>
     <use style="stroke:#000000;" x="290.70025" xlink:href="#m45d8dcef1a" y="225.492576"/>
     <use style="stroke:#000000;" x="291.072264" xlink:href="#m45d8dcef1a" y="225.486522"/>
     <use style="stroke:#000000;" x="291.380085" xlink:href="#m45d8dcef1a" y="225.481633"/>
     <use style="stroke:#000000;" x="291.689189" xlink:href="#m45d8dcef1a" y="225.480119"/>
     <use style="stroke:#000000;" x="292.035237" xlink:href="#m45d8dcef1a" y="225.478838"/>
     <use style="stroke:#000000;" x="292.683002" xlink:href="#m45d8dcef1a" y="225.474997"/>
     <use style="stroke:#000000;" x="292.956495" xlink:href="#m45d8dcef1a" y="225.409918"/>
     <use style="stroke:#000000;" x="293.371361" xlink:href="#m45d8dcef1a" y="225.402467"/>
     <use style="stroke:#000000;" x="293.685445" xlink:href="#m45d8dcef1a" y="225.398043"/>
     <use style="stroke:#000000;" x="294.106266" xlink:href="#m45d8dcef1a" y="225.394551"/>
     <use style="stroke:#000000;" x="294.519638" xlink:href="#m45d8dcef1a" y="225.394551"/>
     <use style="stroke:#000000;" x="295.003284" xlink:href="#m45d8dcef1a" y="225.388381"/>
     <use style="stroke:#000000;" x="295.528575" xlink:href="#m45d8dcef1a" y="225.385004"/>
     <use style="stroke:#000000;" x="295.973311" xlink:href="#m45d8dcef1a" y="225.385004"/>
     <use style="stroke:#000000;" x="296.548969" xlink:href="#m45d8dcef1a" y="225.381046"/>
     <use style="stroke:#000000;" x="297.025843" xlink:href="#m45d8dcef1a" y="225.309448"/>
     <use style="stroke:#000000;" x="298.212953" xlink:href="#m45d8dcef1a" y="224.342701"/>
     <use style="stroke:#000000;" x="298.952544" xlink:href="#m45d8dcef1a" y="224.280766"/>
     <use style="stroke:#000000;" x="299.355851" xlink:href="#m45d8dcef1a" y="224.273898"/>
     <use style="stroke:#000000;" x="299.706234" xlink:href="#m45d8dcef1a" y="224.22116"/>
     <use style="stroke:#000000;" x="300.083903" xlink:href="#m45d8dcef1a" y="224.217434"/>
     <use style="stroke:#000000;" x="300.509535" xlink:href="#m45d8dcef1a" y="224.213243"/>
     <use style="stroke:#000000;" x="301.40623" xlink:href="#m45d8dcef1a" y="224.209401"/>
     <use style="stroke:#000000;" x="301.905008" xlink:href="#m45d8dcef1a" y="224.209401"/>
     <use style="stroke:#000000;" x="302.328878" xlink:href="#m45d8dcef1a" y="224.208121"/>
     <use style="stroke:#000000;" x="302.909375" xlink:href="#m45d8dcef1a" y="224.115334"/>
     <use style="stroke:#000000;" x="303.28158" xlink:href="#m45d8dcef1a" y="224.108"/>
     <use style="stroke:#000000;" x="303.554078" xlink:href="#m45d8dcef1a" y="224.104507"/>
     <use style="stroke:#000000;" x="303.847225" xlink:href="#m45d8dcef1a" y="224.100665"/>
     <use style="stroke:#000000;" x="304.370887" xlink:href="#m45d8dcef1a" y="224.042689"/>
     <use style="stroke:#000000;" x="304.766543" xlink:href="#m45d8dcef1a" y="224.042572"/>
     <use style="stroke:#000000;" x="305.168301" xlink:href="#m45d8dcef1a" y="224.035471"/>
     <use style="stroke:#000000;" x="305.481301" xlink:href="#m45d8dcef1a" y="223.964105"/>
     <use style="stroke:#000000;" x="305.870952" xlink:href="#m45d8dcef1a" y="223.961195"/>
     <use style="stroke:#000000;" x="306.207403" xlink:href="#m45d8dcef1a" y="223.958168"/>
     <use style="stroke:#000000;" x="306.949206" xlink:href="#m45d8dcef1a" y="223.890179"/>
     <use style="stroke:#000000;" x="307.261143" xlink:href="#m45d8dcef1a" y="223.889481"/>
     <use style="stroke:#000000;" x="307.592609" xlink:href="#m45d8dcef1a" y="223.889481"/>
     <use style="stroke:#000000;" x="307.981586" xlink:href="#m45d8dcef1a" y="223.889481"/>
     <use style="stroke:#000000;" x="308.378777" xlink:href="#m45d8dcef1a" y="223.889481"/>
     <use style="stroke:#000000;" x="308.705718" xlink:href="#m45d8dcef1a" y="223.889481"/>
     <use style="stroke:#000000;" x="309.016401" xlink:href="#m45d8dcef1a" y="223.889481"/>
     <use style="stroke:#000000;" x="309.403204" xlink:href="#m45d8dcef1a" y="223.889481"/>
     <use style="stroke:#000000;" x="309.769723" xlink:href="#m45d8dcef1a" y="224.747957"/>
     <use style="stroke:#000000;" x="310.143878" xlink:href="#m45d8dcef1a" y="224.684974"/>
     <use style="stroke:#000000;" x="310.548586" xlink:href="#m45d8dcef1a" y="224.63864"/>
     <use style="stroke:#000000;" x="310.943974" xlink:href="#m45d8dcef1a" y="224.383215"/>
     <use style="stroke:#000000;" x="311.359622" xlink:href="#m45d8dcef1a" y="224.045133"/>
     <use style="stroke:#000000;" x="312.212901" xlink:href="#m45d8dcef1a" y="223.090494"/>
     <use style="stroke:#000000;" x="312.538244" xlink:href="#m45d8dcef1a" y="222.891999"/>
     <use style="stroke:#000000;" x="312.982846" xlink:href="#m45d8dcef1a" y="222.373584"/>
     <use style="stroke:#000000;" x="313.421448" xlink:href="#m45d8dcef1a" y="221.761217"/>
     <use style="stroke:#000000;" x="313.836391" xlink:href="#m45d8dcef1a" y="221.164335"/>
     <use style="stroke:#000000;" x="314.496096" xlink:href="#m45d8dcef1a" y="219.554837"/>
     <use style="stroke:#000000;" x="314.935432" xlink:href="#m45d8dcef1a" y="219.093234"/>
     <use style="stroke:#000000;" x="315.403836" xlink:href="#m45d8dcef1a" y="218.52208"/>
     <use style="stroke:#000000;" x="315.854508" xlink:href="#m45d8dcef1a" y="217.863379"/>
     <use style="stroke:#000000;" x="316.270904" xlink:href="#m45d8dcef1a" y="217.632636"/>
     <use style="stroke:#000000;" x="316.744392" xlink:href="#m45d8dcef1a" y="216.731782"/>
     <use style="stroke:#000000;" x="317.120741" xlink:href="#m45d8dcef1a" y="216.55238"/>
     <use style="stroke:#000000;" x="318.293528" xlink:href="#m45d8dcef1a" y="214.341692"/>
     <use style="stroke:#000000;" x="319.014506" xlink:href="#m45d8dcef1a" y="214.605615"/>
     <use style="stroke:#000000;" x="319.341105" xlink:href="#m45d8dcef1a" y="214.533085"/>
     <use style="stroke:#000000;" x="320.193333" xlink:href="#m45d8dcef1a" y="213.801273"/>
     <use style="stroke:#000000;" x="320.527202" xlink:href="#m45d8dcef1a" y="213.68951"/>
     <use style="stroke:#000000;" x="320.795342" xlink:href="#m45d8dcef1a" y="213.525592"/>
     <use style="stroke:#000000;" x="321.113227" xlink:href="#m45d8dcef1a" y="213.149557"/>
     <use style="stroke:#000000;" x="321.391486" xlink:href="#m45d8dcef1a" y="212.566645"/>
     <use style="stroke:#000000;" x="321.691912" xlink:href="#m45d8dcef1a" y="212.082108"/>
     <use style="stroke:#000000;" x="321.89549" xlink:href="#m45d8dcef1a" y="211.612705"/>
     <use style="stroke:#000000;" x="322.158412" xlink:href="#m45d8dcef1a" y="211.043879"/>
     <use style="stroke:#000000;" x="322.927049" xlink:href="#m45d8dcef1a" y="209.431471"/>
     <use style="stroke:#000000;" x="324.057705" xlink:href="#m45d8dcef1a" y="208.751698"/>
     <use style="stroke:#000000;" x="324.294328" xlink:href="#m45d8dcef1a" y="208.59523"/>
     <use style="stroke:#000000;" x="328.133199" xlink:href="#m45d8dcef1a" y="207.703341"/>
     <use style="stroke:#000000;" x="328.50526" xlink:href="#m45d8dcef1a" y="207.407985"/>
     <use style="stroke:#000000;" x="328.80817" xlink:href="#m45d8dcef1a" y="207.318575"/>
     <use style="stroke:#000000;" x="329.090205" xlink:href="#m45d8dcef1a" y="206.538099"/>
     <use style="stroke:#000000;" x="329.345667" xlink:href="#m45d8dcef1a" y="205.838069"/>
     <use style="stroke:#000000;" x="329.641163" xlink:href="#m45d8dcef1a" y="205.424082"/>
     <use style="stroke:#000000;" x="330.044385" xlink:href="#m45d8dcef1a" y="205.195434"/>
     <use style="stroke:#000000;" x="330.407364" xlink:href="#m45d8dcef1a" y="205.009163"/>
     <use style="stroke:#000000;" x="330.762447" xlink:href="#m45d8dcef1a" y="204.417869"/>
     <use style="stroke:#000000;" x="331.070944" xlink:href="#m45d8dcef1a" y="203.96069"/>
     <use style="stroke:#000000;" x="331.27311" xlink:href="#m45d8dcef1a" y="203.599673"/>
     <use style="stroke:#000000;" x="331.598267" xlink:href="#m45d8dcef1a" y="202.877989"/>
     <use style="stroke:#000000;" x="331.935323" xlink:href="#m45d8dcef1a" y="201.070578"/>
     <use style="stroke:#000000;" x="332.251664" xlink:href="#m45d8dcef1a" y="200.837623"/>
     <use style="stroke:#000000;" x="332.584186" xlink:href="#m45d8dcef1a" y="200.638312"/>
     <use style="stroke:#000000;" x="333.037545" xlink:href="#m45d8dcef1a" y="200.073562"/>
     <use style="stroke:#000000;" x="333.342757" xlink:href="#m45d8dcef1a" y="199.747122"/>
     <use style="stroke:#000000;" x="333.61675" xlink:href="#m45d8dcef1a" y="199.496471"/>
     <use style="stroke:#000000;" x="333.840165" xlink:href="#m45d8dcef1a" y="198.962688"/>
     <use style="stroke:#000000;" x="334.274503" xlink:href="#m45d8dcef1a" y="197.089267"/>
     <use style="stroke:#000000;" x="334.530405" xlink:href="#m45d8dcef1a" y="196.869816"/>
     <use style="stroke:#000000;" x="335.53113" xlink:href="#m45d8dcef1a" y="195.903069"/>
     <use style="stroke:#000000;" x="336.120791" xlink:href="#m45d8dcef1a" y="195.193842"/>
     <use style="stroke:#000000;" x="336.458007" xlink:href="#m45d8dcef1a" y="194.974857"/>
     <use style="stroke:#000000;" x="336.837598" xlink:href="#m45d8dcef1a" y="194.692424"/>
     <use style="stroke:#000000;" x="337.639186" xlink:href="#m45d8dcef1a" y="193.76817"/>
     <use style="stroke:#000000;" x="337.969746" xlink:href="#m45d8dcef1a" y="193.759788"/>
     <use style="stroke:#000000;" x="338.275036" xlink:href="#m45d8dcef1a" y="193.613682"/>
     <use style="stroke:#000000;" x="338.572991" xlink:href="#m45d8dcef1a" y="193.499009"/>
     <use style="stroke:#000000;" x="338.816345" xlink:href="#m45d8dcef1a" y="192.928903"/>
     <use style="stroke:#000000;" x="339.039605" xlink:href="#m45d8dcef1a" y="192.51247"/>
     <use style="stroke:#000000;" x="339.295898" xlink:href="#m45d8dcef1a" y="191.638277"/>
     <use style="stroke:#000000;" x="339.506251" xlink:href="#m45d8dcef1a" y="191.460854"/>
     <use style="stroke:#000000;" x="339.771997" xlink:href="#m45d8dcef1a" y="190.901226"/>
     <use style="stroke:#000000;" x="340.02255" xlink:href="#m45d8dcef1a" y="190.199682"/>
     <use style="stroke:#000000;" x="340.33294" xlink:href="#m45d8dcef1a" y="189.533763"/>
     <use style="stroke:#000000;" x="340.609849" xlink:href="#m45d8dcef1a" y="189.024894"/>
     <use style="stroke:#000000;" x="340.798261" xlink:href="#m45d8dcef1a" y="188.678663"/>
     <use style="stroke:#000000;" x="341.012065" xlink:href="#m45d8dcef1a" y="187.804702"/>
     <use style="stroke:#000000;" x="341.263082" xlink:href="#m45d8dcef1a" y="187.213059"/>
     <use style="stroke:#000000;" x="341.511577" xlink:href="#m45d8dcef1a" y="186.976262"/>
     <use style="stroke:#000000;" x="341.744566" xlink:href="#m45d8dcef1a" y="186.318143"/>
     <use style="stroke:#000000;" x="342.036399" xlink:href="#m45d8dcef1a" y="185.120653"/>
     <use style="stroke:#000000;" x="342.23379" xlink:href="#m45d8dcef1a" y="184.930656"/>
     <use style="stroke:#000000;" x="343.019383" xlink:href="#m45d8dcef1a" y="184.670692"/>
     <use style="stroke:#000000;" x="343.327618" xlink:href="#m45d8dcef1a" y="183.855407"/>
     <use style="stroke:#000000;" x="343.992368" xlink:href="#m45d8dcef1a" y="182.310405"/>
     <use style="stroke:#000000;" x="344.285349" xlink:href="#m45d8dcef1a" y="182.168722"/>
     <use style="stroke:#000000;" x="344.628221" xlink:href="#m45d8dcef1a" y="182.161155"/>
     <use style="stroke:#000000;" x="344.928275" xlink:href="#m45d8dcef1a" y="182.094097"/>
     <use style="stroke:#000000;" x="345.225892" xlink:href="#m45d8dcef1a" y="181.699552"/>
     <use style="stroke:#000000;" x="345.496403" xlink:href="#m45d8dcef1a" y="181.221418"/>
     <use style="stroke:#000000;" x="345.728107" xlink:href="#m45d8dcef1a" y="180.791248"/>
     <use style="stroke:#000000;" x="346.078354" xlink:href="#m45d8dcef1a" y="179.738234"/>
     <use style="stroke:#000000;" x="346.542901" xlink:href="#m45d8dcef1a" y="178.538299"/>
     <use style="stroke:#000000;" x="346.784974" xlink:href="#m45d8dcef1a" y="178.359479"/>
     <use style="stroke:#000000;" x="347.093162" xlink:href="#m45d8dcef1a" y="177.195169"/>
     <use style="stroke:#000000;" x="347.358689" xlink:href="#m45d8dcef1a" y="177.03125"/>
     <use style="stroke:#000000;" x="347.59412" xlink:href="#m45d8dcef1a" y="176.926822"/>
     <use style="stroke:#000000;" x="347.798579" xlink:href="#m45d8dcef1a" y="176.719712"/>
     <use style="stroke:#000000;" x="347.991097" xlink:href="#m45d8dcef1a" y="176.260204"/>
     <use style="stroke:#000000;" x="348.17389" xlink:href="#m45d8dcef1a" y="175.725141"/>
     <use style="stroke:#000000;" x="348.399175" xlink:href="#m45d8dcef1a" y="175.116849"/>
     <use style="stroke:#000000;" x="348.62284" xlink:href="#m45d8dcef1a" y="174.567466"/>
     <use style="stroke:#000000;" x="348.812406" xlink:href="#m45d8dcef1a" y="174.114362"/>
     <use style="stroke:#000000;" x="348.974891" xlink:href="#m45d8dcef1a" y="173.609334"/>
     <use style="stroke:#000000;" x="349.17355" xlink:href="#m45d8dcef1a" y="173.039811"/>
     <use style="stroke:#000000;" x="349.401675" xlink:href="#m45d8dcef1a" y="172.255027"/>
     <use style="stroke:#000000;" x="349.630434" xlink:href="#m45d8dcef1a" y="171.761176"/>
     <use style="stroke:#000000;" x="349.903118" xlink:href="#m45d8dcef1a" y="171.134258"/>
     <use style="stroke:#000000;" x="350.563474" xlink:href="#m45d8dcef1a" y="170.236897"/>
     <use style="stroke:#000000;" x="350.889462" xlink:href="#m45d8dcef1a" y="170.148651"/>
     <use style="stroke:#000000;" x="351.074661" xlink:href="#m45d8dcef1a" y="169.982986"/>
     <use style="stroke:#000000;" x="351.261774" xlink:href="#m45d8dcef1a" y="169.602528"/>
     <use style="stroke:#000000;" x="351.458796" xlink:href="#m45d8dcef1a" y="169.169564"/>
     <use style="stroke:#000000;" x="351.655677" xlink:href="#m45d8dcef1a" y="168.595733"/>
     <use style="stroke:#000000;" x="351.891205" xlink:href="#m45d8dcef1a" y="168.13704"/>
     <use style="stroke:#000000;" x="352.106893" xlink:href="#m45d8dcef1a" y="167.525256"/>
     <use style="stroke:#000000;" x="352.377083" xlink:href="#m45d8dcef1a" y="166.950959"/>
     <use style="stroke:#000000;" x="352.598376" xlink:href="#m45d8dcef1a" y="166.485049"/>
     <use style="stroke:#000000;" x="352.779651" xlink:href="#m45d8dcef1a" y="165.948704"/>
     <use style="stroke:#000000;" x="353.002849" xlink:href="#m45d8dcef1a" y="165.37336"/>
     <use style="stroke:#000000;" x="353.223084" xlink:href="#m45d8dcef1a" y="164.80174"/>
     <use style="stroke:#000000;" x="353.434833" xlink:href="#m45d8dcef1a" y="164.299623"/>
     <use style="stroke:#000000;" x="353.633095" xlink:href="#m45d8dcef1a" y="163.755246"/>
     <use style="stroke:#000000;" x="353.839282" xlink:href="#m45d8dcef1a" y="163.187236"/>
     <use style="stroke:#000000;" x="354.074769" xlink:href="#m45d8dcef1a" y="162.552634"/>
     <use style="stroke:#000000;" x="354.377129" xlink:href="#m45d8dcef1a" y="161.582162"/>
     <use style="stroke:#000000;" x="354.610788" xlink:href="#m45d8dcef1a" y="161.378777"/>
     <use style="stroke:#000000;" x="354.809395" xlink:href="#m45d8dcef1a" y="160.817635"/>
     <use style="stroke:#000000;" x="355.032944" xlink:href="#m45d8dcef1a" y="159.135841"/>
     <use style="stroke:#000000;" x="355.206536" xlink:href="#m45d8dcef1a" y="158.944447"/>
     <use style="stroke:#000000;" x="355.450054" xlink:href="#m45d8dcef1a" y="158.698453"/>
     <use style="stroke:#000000;" x="355.790395" xlink:href="#m45d8dcef1a" y="157.95267"/>
     <use style="stroke:#000000;" x="356.021399" xlink:href="#m45d8dcef1a" y="157.641714"/>
     <use style="stroke:#000000;" x="356.202046" xlink:href="#m45d8dcef1a" y="157.169284"/>
     <use style="stroke:#000000;" x="356.408917" xlink:href="#m45d8dcef1a" y="156.683233"/>
     <use style="stroke:#000000;" x="356.731602" xlink:href="#m45d8dcef1a" y="155.590986"/>
     <use style="stroke:#000000;" x="356.96964" xlink:href="#m45d8dcef1a" y="155.486674"/>
     <use style="stroke:#000000;" x="357.24585" xlink:href="#m45d8dcef1a" y="154.281617"/>
     <use style="stroke:#000000;" x="357.721439" xlink:href="#m45d8dcef1a" y="154.076369"/>
     <use style="stroke:#000000;" x="357.906842" xlink:href="#m45d8dcef1a" y="153.942138"/>
     <use style="stroke:#000000;" x="358.109624" xlink:href="#m45d8dcef1a" y="153.583566"/>
     <use style="stroke:#000000;" x="358.321388" xlink:href="#m45d8dcef1a" y="152.92894"/>
     <use style="stroke:#000000;" x="358.519948" xlink:href="#m45d8dcef1a" y="152.483868"/>
     <use style="stroke:#000000;" x="358.705814" xlink:href="#m45d8dcef1a" y="151.914345"/>
     <use style="stroke:#000000;" x="359.009902" xlink:href="#m45d8dcef1a" y="151.273805"/>
     <use style="stroke:#000000;" x="359.38371" xlink:href="#m45d8dcef1a" y="150.221257"/>
     <use style="stroke:#000000;" x="359.588443" xlink:href="#m45d8dcef1a" y="150.049888"/>
     <use style="stroke:#000000;" x="359.768663" xlink:href="#m45d8dcef1a" y="149.695973"/>
     <use style="stroke:#000000;" x="359.934274" xlink:href="#m45d8dcef1a" y="149.142049"/>
     <use style="stroke:#000000;" x="360.207692" xlink:href="#m45d8dcef1a" y="147.715562"/>
     <use style="stroke:#000000;" x="360.390285" xlink:href="#m45d8dcef1a" y="147.513807"/>
     <use style="stroke:#000000;" x="360.530301" xlink:href="#m45d8dcef1a" y="147.362811"/>
     <use style="stroke:#000000;" x="360.86926" xlink:href="#m45d8dcef1a" y="146.116658"/>
     <use style="stroke:#000000;" x="361.236759" xlink:href="#m45d8dcef1a" y="145.637708"/>
     <use style="stroke:#000000;" x="361.476937" xlink:href="#m45d8dcef1a" y="145.334669"/>
     <use style="stroke:#000000;" x="361.707725" xlink:href="#m45d8dcef1a" y="144.892624"/>
     <use style="stroke:#000000;" x="361.888069" xlink:href="#m45d8dcef1a" y="144.420893"/>
     <use style="stroke:#000000;" x="362.056604" xlink:href="#m45d8dcef1a" y="143.86336"/>
     <use style="stroke:#000000;" x="362.229551" xlink:href="#m45d8dcef1a" y="143.296398"/>
     <use style="stroke:#000000;" x="362.425345" xlink:href="#m45d8dcef1a" y="142.636765"/>
     <use style="stroke:#000000;" x="362.671359" xlink:href="#m45d8dcef1a" y="141.785972"/>
     <use style="stroke:#000000;" x="362.926599" xlink:href="#m45d8dcef1a" y="141.785972"/>
     <use style="stroke:#000000;" x="363.12902" xlink:href="#m45d8dcef1a" y="141.521467"/>
     <use style="stroke:#000000;" x="363.356135" xlink:href="#m45d8dcef1a" y="141.052646"/>
     <use style="stroke:#000000;" x="363.563659" xlink:href="#m45d8dcef1a" y="140.575792"/>
     <use style="stroke:#000000;" x="363.777571" xlink:href="#m45d8dcef1a" y="140.111861"/>
     <use style="stroke:#000000;" x="363.968854" xlink:href="#m45d8dcef1a" y="139.617544"/>
     <use style="stroke:#000000;" x="364.343125" xlink:href="#m45d8dcef1a" y="138.178717"/>
     <use style="stroke:#000000;" x="364.526152" xlink:href="#m45d8dcef1a" y="137.984995"/>
     <use style="stroke:#000000;" x="364.739427" xlink:href="#m45d8dcef1a" y="137.726078"/>
     <use style="stroke:#000000;" x="364.977597" xlink:href="#m45d8dcef1a" y="136.473289"/>
     <use style="stroke:#000000;" x="365.125475" xlink:href="#m45d8dcef1a" y="136.32532"/>
     <use style="stroke:#000000;" x="365.28011" xlink:href="#m45d8dcef1a" y="136.148362"/>
     <use style="stroke:#000000;" x="365.549894" xlink:href="#m45d8dcef1a" y="135.508056"/>
     <use style="stroke:#000000;" x="366.186831" xlink:href="#m45d8dcef1a" y="134.194379"/>
     <use style="stroke:#000000;" x="366.308691" xlink:href="#m45d8dcef1a" y="133.993206"/>
     <use style="stroke:#000000;" x="366.569865" xlink:href="#m45d8dcef1a" y="132.170777"/>
     <use style="stroke:#000000;" x="366.789001" xlink:href="#m45d8dcef1a" y="132.734247"/>
     <use style="stroke:#000000;" x="367.062186" xlink:href="#m45d8dcef1a" y="130.455802"/>
     <use style="stroke:#000000;" x="367.259414" xlink:href="#m45d8dcef1a" y="130.281406"/>
     <use style="stroke:#000000;" x="367.446829" xlink:href="#m45d8dcef1a" y="130.296424"/>
     <use style="stroke:#000000;" x="367.567315" xlink:href="#m45d8dcef1a" y="130.124938"/>
     <use style="stroke:#000000;" x="367.727731" xlink:href="#m45d8dcef1a" y="129.245739"/>
     <use style="stroke:#000000;" x="367.888892" xlink:href="#m45d8dcef1a" y="128.819644"/>
     <use style="stroke:#000000;" x="368.080955" xlink:href="#m45d8dcef1a" y="126.829454"/>
     <use style="stroke:#000000;" x="368.644423" xlink:href="#m45d8dcef1a" y="126.245145"/>
     <use style="stroke:#000000;" x="368.918848" xlink:href="#m45d8dcef1a" y="126.334555"/>
     <use style="stroke:#000000;" x="369.109725" xlink:href="#m45d8dcef1a" y="126.334555"/>
     <use style="stroke:#000000;" x="369.251543" xlink:href="#m45d8dcef1a" y="126.334555"/>
     <use style="stroke:#000000;" x="369.398828" xlink:href="#m45d8dcef1a" y="126.074009"/>
     <use style="stroke:#000000;" x="369.589954" xlink:href="#m45d8dcef1a" y="125.711013"/>
     <use style="stroke:#000000;" x="369.815497" xlink:href="#m45d8dcef1a" y="125.304593"/>
     <use style="stroke:#000000;" x="370.004913" xlink:href="#m45d8dcef1a" y="124.97012"/>
     <use style="stroke:#000000;" x="370.996582" xlink:href="#m45d8dcef1a" y="124.121539"/>
     <use style="stroke:#000000;" x="371.179713" xlink:href="#m45d8dcef1a" y="124.115718"/>
     <use style="stroke:#000000;" x="371.403617" xlink:href="#m45d8dcef1a" y="123.704175"/>
     <use style="stroke:#000000;" x="371.55213" xlink:href="#m45d8dcef1a" y="123.421509"/>
     <use style="stroke:#000000;" x="371.72228" xlink:href="#m45d8dcef1a" y="122.959207"/>
     <use style="stroke:#000000;" x="371.860989" xlink:href="#m45d8dcef1a" y="122.498652"/>
     <use style="stroke:#000000;" x="372.056493" xlink:href="#m45d8dcef1a" y="121.85916"/>
     <use style="stroke:#000000;" x="372.263451" xlink:href="#m45d8dcef1a" y="121.246096"/>
     <use style="stroke:#000000;" x="372.470261" xlink:href="#m45d8dcef1a" y="120.615452"/>
     <use style="stroke:#000000;" x="372.674" xlink:href="#m45d8dcef1a" y="120.114965"/>
     <use style="stroke:#000000;" x="372.852495" xlink:href="#m45d8dcef1a" y="119.696088"/>
     <use style="stroke:#000000;" x="373.000903" xlink:href="#m45d8dcef1a" y="119.173597"/>
     <use style="stroke:#000000;" x="373.156928" xlink:href="#m45d8dcef1a" y="118.563909"/>
     <use style="stroke:#000000;" x="373.338912" xlink:href="#m45d8dcef1a" y="117.93897"/>
     <use style="stroke:#000000;" x="373.543217" xlink:href="#m45d8dcef1a" y="117.320899"/>
     <use style="stroke:#000000;" x="373.748381" xlink:href="#m45d8dcef1a" y="116.71156"/>
     <use style="stroke:#000000;" x="373.960335" xlink:href="#m45d8dcef1a" y="116.075328"/>
     <use style="stroke:#000000;" x="374.239701" xlink:href="#m45d8dcef1a" y="115.0761"/>
     <use style="stroke:#000000;" x="374.450065" xlink:href="#m45d8dcef1a" y="114.647094"/>
     <use style="stroke:#000000;" x="374.64871" xlink:href="#m45d8dcef1a" y="113.843335"/>
     <use style="stroke:#000000;" x="374.836746" xlink:href="#m45d8dcef1a" y="113.348552"/>
     <use style="stroke:#000000;" x="375.028697" xlink:href="#m45d8dcef1a" y="112.755861"/>
     <use style="stroke:#000000;" x="375.336353" xlink:href="#m45d8dcef1a" y="112.391468"/>
     <use style="stroke:#000000;" x="375.492449" xlink:href="#m45d8dcef1a" y="112.170155"/>
     <use style="stroke:#000000;" x="375.647052" xlink:href="#m45d8dcef1a" y="111.76618"/>
     <use style="stroke:#000000;" x="375.831131" xlink:href="#m45d8dcef1a" y="111.163243"/>
     <use style="stroke:#000000;" x="375.967392" xlink:href="#m45d8dcef1a" y="110.866374"/>
     <use style="stroke:#000000;" x="376.136686" xlink:href="#m45d8dcef1a" y="110.414667"/>
     <use style="stroke:#000000;" x="376.262639" xlink:href="#m45d8dcef1a" y="110.027106"/>
     <use style="stroke:#000000;" x="376.406582" xlink:href="#m45d8dcef1a" y="109.448968"/>
     <use style="stroke:#000000;" x="376.63356" xlink:href="#m45d8dcef1a" y="108.746842"/>
     <use style="stroke:#000000;" x="376.869651" xlink:href="#m45d8dcef1a" y="106.795886"/>
     <use style="stroke:#000000;" x="377.038501" xlink:href="#m45d8dcef1a" y="106.558856"/>
     <use style="stroke:#000000;" x="377.40817" xlink:href="#m45d8dcef1a" y="105.753816"/>
     <use style="stroke:#000000;" x="377.585381" xlink:href="#m45d8dcef1a" y="105.572783"/>
     <use style="stroke:#000000;" x="377.770584" xlink:href="#m45d8dcef1a" y="105.358921"/>
     <use style="stroke:#000000;" x="378.027661" xlink:href="#m45d8dcef1a" y="103.863164"/>
     <use style="stroke:#000000;" x="378.176198" xlink:href="#m45d8dcef1a" y="103.565131"/>
     <use style="stroke:#000000;" x="381.441804" xlink:href="#m45d8dcef1a" y="102.614217"/>
     <use style="stroke:#000000;" x="381.639968" xlink:href="#m45d8dcef1a" y="102.30652"/>
     <use style="stroke:#000000;" x="381.823208" xlink:href="#m45d8dcef1a" y="102.079386"/>
     <use style="stroke:#000000;" x="381.968833" xlink:href="#m45d8dcef1a" y="101.598923"/>
     <use style="stroke:#000000;" x="382.09897" xlink:href="#m45d8dcef1a" y="101.052101"/>
     <use style="stroke:#000000;" x="382.241945" xlink:href="#m45d8dcef1a" y="100.473497"/>
     <use style="stroke:#000000;" x="382.370083" xlink:href="#m45d8dcef1a" y="99.998506"/>
     <use style="stroke:#000000;" x="382.501231" xlink:href="#m45d8dcef1a" y="99.388002"/>
     <use style="stroke:#000000;" x="382.6885" xlink:href="#m45d8dcef1a" y="98.70299"/>
     <use style="stroke:#000000;" x="382.861987" xlink:href="#m45d8dcef1a" y="98.044057"/>
     <use style="stroke:#000000;" x="384.095675" xlink:href="#m45d8dcef1a" y="96.452254"/>
     <use style="stroke:#000000;" x="384.270636" xlink:href="#m45d8dcef1a" y="96.22477"/>
     <use style="stroke:#000000;" x="384.42745" xlink:href="#m45d8dcef1a" y="96.090539"/>
     <use style="stroke:#000000;" x="384.662662" xlink:href="#m45d8dcef1a" y="95.959683"/>
     <use style="stroke:#000000;" x="384.821492" xlink:href="#m45d8dcef1a" y="95.748266"/>
     <use style="stroke:#000000;" x="385.029489" xlink:href="#m45d8dcef1a" y="94.366717"/>
     <use style="stroke:#000000;" x="385.197618" xlink:href="#m45d8dcef1a" y="94.3666"/>
     <use style="stroke:#000000;" x="385.338738" xlink:href="#m45d8dcef1a" y="94.351699"/>
     <use style="stroke:#000000;" x="385.493945" xlink:href="#m45d8dcef1a" y="94.073573"/>
     <use style="stroke:#000000;" x="385.640915" xlink:href="#m45d8dcef1a" y="93.652251"/>
     <use style="stroke:#000000;" x="385.805027" xlink:href="#m45d8dcef1a" y="93.130342"/>
     <use style="stroke:#000000;" x="385.958062" xlink:href="#m45d8dcef1a" y="92.661638"/>
     <use style="stroke:#000000;" x="386.105461" xlink:href="#m45d8dcef1a" y="92.058003"/>
     <use style="stroke:#000000;" x="386.287744" xlink:href="#m45d8dcef1a" y="91.310824"/>
     <use style="stroke:#000000;" x="386.470402" xlink:href="#m45d8dcef1a" y="90.763419"/>
     <use style="stroke:#000000;" x="386.642624" xlink:href="#m45d8dcef1a" y="90.10728"/>
     <use style="stroke:#000000;" x="386.799867" xlink:href="#m45d8dcef1a" y="89.603067"/>
     <use style="stroke:#000000;" x="387.014617" xlink:href="#m45d8dcef1a" y="88.072385"/>
     <use style="stroke:#000000;" x="387.136647" xlink:href="#m45d8dcef1a" y="88.005327"/>
     <use style="stroke:#000000;" x="387.256262" xlink:href="#m45d8dcef1a" y="87.796704"/>
     <use style="stroke:#000000;" x="387.401853" xlink:href="#m45d8dcef1a" y="87.587382"/>
     <use style="stroke:#000000;" x="387.535847" xlink:href="#m45d8dcef1a" y="87.042073"/>
     <use style="stroke:#000000;" x="387.685192" xlink:href="#m45d8dcef1a" y="86.478952"/>
     <use style="stroke:#000000;" x="387.804032" xlink:href="#m45d8dcef1a" y="85.995928"/>
     <use style="stroke:#000000;" x="387.943675" xlink:href="#m45d8dcef1a" y="85.317902"/>
     <use style="stroke:#000000;" x="388.132869" xlink:href="#m45d8dcef1a" y="84.264772"/>
     <use style="stroke:#000000;" x="388.297019" xlink:href="#m45d8dcef1a" y="83.984434"/>
     <use style="stroke:#000000;" x="388.456376" xlink:href="#m45d8dcef1a" y="82.916751"/>
     <use style="stroke:#000000;" x="388.548803" xlink:href="#m45d8dcef1a" y="82.894399"/>
     <use style="stroke:#000000;" x="388.657956" xlink:href="#m45d8dcef1a" y="82.635016"/>
     <use style="stroke:#000000;" x="388.795336" xlink:href="#m45d8dcef1a" y="81.965954"/>
     <use style="stroke:#000000;" x="388.933491" xlink:href="#m45d8dcef1a" y="81.504817"/>
     <use style="stroke:#000000;" x="389.058019" xlink:href="#m45d8dcef1a" y="80.888376"/>
     <use style="stroke:#000000;" x="389.200687" xlink:href="#m45d8dcef1a" y="80.308374"/>
     <use style="stroke:#000000;" x="389.363652" xlink:href="#m45d8dcef1a" y="79.688674"/>
     <use style="stroke:#000000;" x="390.34157" xlink:href="#m45d8dcef1a" y="77.737717"/>
     <use style="stroke:#000000;" x="390.481067" xlink:href="#m45d8dcef1a" y="77.708962"/>
     <use style="stroke:#000000;" x="390.671533" xlink:href="#m45d8dcef1a" y="78.726933"/>
     <use style="stroke:#000000;" x="390.823728" xlink:href="#m45d8dcef1a" y="77.403012"/>
     <use style="stroke:#000000;" x="391.158323" xlink:href="#m45d8dcef1a" y="76.023325"/>
     <use style="stroke:#000000;" x="391.316843" xlink:href="#m45d8dcef1a" y="75.784898"/>
     <use style="stroke:#000000;" x="391.487714" xlink:href="#m45d8dcef1a" y="75.53902"/>
     <use style="stroke:#000000;" x="391.744704" xlink:href="#m45d8dcef1a" y="74.5285"/>
     <use style="stroke:#000000;" x="391.911005" xlink:href="#m45d8dcef1a" y="74.26772"/>
     <use style="stroke:#000000;" x="392.079507" xlink:href="#m45d8dcef1a" y="74.066548"/>
     <use style="stroke:#000000;" x="393.364464" xlink:href="#m45d8dcef1a" y="72.655777"/>
     <use style="stroke:#000000;" x="393.54211" xlink:href="#m45d8dcef1a" y="72.439703"/>
     <use style="stroke:#000000;" x="393.679714" xlink:href="#m45d8dcef1a" y="72.298137"/>
     <use style="stroke:#000000;" x="393.789607" xlink:href="#m45d8dcef1a" y="71.91826"/>
     <use style="stroke:#000000;" x="393.883092" xlink:href="#m45d8dcef1a" y="71.48064"/>
     <use style="stroke:#000000;" x="394.001831" xlink:href="#m45d8dcef1a" y="70.77246"/>
     <use style="stroke:#000000;" x="394.136438" xlink:href="#m45d8dcef1a" y="70.155438"/>
     <use style="stroke:#000000;" x="394.270587" xlink:href="#m45d8dcef1a" y="69.44493"/>
     <use style="stroke:#000000;" x="394.411376" xlink:href="#m45d8dcef1a" y="68.939786"/>
     <use style="stroke:#000000;" x="394.54223" xlink:href="#m45d8dcef1a" y="68.246508"/>
     <use style="stroke:#000000;" x="394.726713" xlink:href="#m45d8dcef1a" y="67.417369"/>
     <use style="stroke:#000000;" x="394.914883" xlink:href="#m45d8dcef1a" y="66.836786"/>
     <use style="stroke:#000000;" x="395.053634" xlink:href="#m45d8dcef1a" y="66.314528"/>
     <use style="stroke:#000000;" x="395.203527" xlink:href="#m45d8dcef1a" y="65.694129"/>
     <use style="stroke:#000000;" x="395.352711" xlink:href="#m45d8dcef1a" y="65.005625"/>
     <use style="stroke:#000000;" x="395.681356" xlink:href="#m45d8dcef1a" y="63.503815"/>
     <use style="stroke:#000000;" x="395.813723" xlink:href="#m45d8dcef1a" y="63.384601"/>
     <use style="stroke:#000000;" x="395.947855" xlink:href="#m45d8dcef1a" y="63.19833"/>
     <use style="stroke:#000000;" x="396.101462" xlink:href="#m45d8dcef1a" y="62.564659"/>
     <use style="stroke:#000000;" x="396.239376" xlink:href="#m45d8dcef1a" y="62.017837"/>
     <use style="stroke:#000000;" x="396.418132" xlink:href="#m45d8dcef1a" y="61.750073"/>
     <use style="stroke:#000000;" x="396.533739" xlink:href="#m45d8dcef1a" y="61.548201"/>
     <use style="stroke:#000000;" x="396.670113" xlink:href="#m45d8dcef1a" y="61.295571"/>
     <use style="stroke:#000000;" x="396.792463" xlink:href="#m45d8dcef1a" y="60.930946"/>
     <use style="stroke:#000000;" x="396.906444" xlink:href="#m45d8dcef1a" y="60.572839"/>
     <use style="stroke:#000000;" x="397.008617" xlink:href="#m45d8dcef1a" y="60.232662"/>
     <use style="stroke:#000000;" x="397.12118" xlink:href="#m45d8dcef1a" y="59.623206"/>
     <use style="stroke:#000000;" x="397.25021" xlink:href="#m45d8dcef1a" y="59.00921"/>
     <use style="stroke:#000000;" x="397.36759" xlink:href="#m45d8dcef1a" y="58.556222"/>
     <use style="stroke:#000000;" x="397.476383" xlink:href="#m45d8dcef1a" y="57.959689"/>
     <use style="stroke:#000000;" x="397.620585" xlink:href="#m45d8dcef1a" y="57.191438"/>
     <use style="stroke:#000000;" x="397.77241" xlink:href="#m45d8dcef1a" y="56.592809"/>
     <use style="stroke:#000000;" x="397.917377" xlink:href="#m45d8dcef1a" y="55.910126"/>
     <use style="stroke:#000000;" x="398.077577" xlink:href="#m45d8dcef1a" y="55.229654"/>
     <use style="stroke:#000000;" x="398.219117" xlink:href="#m45d8dcef1a" y="54.69331"/>
     <use style="stroke:#000000;" x="398.350732" xlink:href="#m45d8dcef1a" y="54.093284"/>
     <use style="stroke:#000000;" x="398.487273" xlink:href="#m45d8dcef1a" y="53.568"/>
    </g>
   </g>
   <g id="patch_3">
    <path d="M 57.6 307.584 
L 57.6 41.472 
" style="fill:none;stroke:#000000;stroke-linecap:square;stroke-linejoin:miter;stroke-width:0.8;"/>
   </g>
   <g id="patch_4">
    <path d="M 414.72 307.584 
L 414.72 41.472 
" style="fill:none;stroke:#000000;stroke-linecap:square;stroke-linejoin:miter;stroke-width:0.8;"/>
   </g>
   <g id="patch_5">
    <path d="M 57.6 307.584 
L 414.72 307.584 
" style="fill:none;stroke:#000000;stroke-linecap:square;stroke-linejoin:miter;stroke-width:0.8;"/>
   </g>
   <g id="patch_6">
    <path d="M 57.6 41.472 
L 414.72 41.472 
" style="fill:none;stroke:#000000;stroke-linecap:square;stroke-linejoin:miter;stroke-width:0.8;"/>
   </g>
   <g id="legend_1">
    <g id="patch_7">
     <path d="M 64.6 64.150125 
L 118.617188 64.150125 
Q 120.617188 64.150125 120.617188 62.150125 
L 120.617188 48.472 
Q 120.617188 46.472 118.617188 46.472 
L 64.6 46.472 
Q 62.6 46.472 62.6 48.472 
L 62.6 62.150125 
Q 62.6 64.150125 64.6 64.150125 
z
" style="fill:#ffffff;opacity:0.8;stroke:#cccccc;stroke-linejoin:miter;"/>
    </g>
    <g id="line2d_30">
     <path d="M 66.6 54.570438 
L 86.6 54.570438 
" style="fill:none;stroke:#000000;stroke-linecap:square;stroke-width:1.5;"/>
    </g>
    <g id="line2d_31">
     <g>
      <use style="stroke:#000000;" x="76.6" xlink:href="#m45d8dcef1a" y="54.570438"/>
     </g>
    </g>
    <g id="text_11">
     <!-- RAM -->
     <g transform="translate(94.6 58.070438)scale(0.1 -0.1)">
      <defs>
       <path d="M 44.390625 34.1875 
Q 47.5625 33.109375 50.5625 29.59375 
Q 53.5625 26.078125 56.59375 19.921875 
L 66.609375 0 
L 56 0 
L 46.6875 18.703125 
Q 43.0625 26.03125 39.671875 28.421875 
Q 36.28125 30.8125 30.421875 30.8125 
L 19.671875 30.8125 
L 19.671875 0 
L 9.8125 0 
L 9.8125 72.90625 
L 32.078125 72.90625 
Q 44.578125 72.90625 50.734375 67.671875 
Q 56.890625 62.453125 56.890625 51.90625 
Q 56.890625 45.015625 53.6875 40.46875 
Q 50.484375 35.9375 44.390625 34.1875 
z
M 19.671875 64.796875 
L 19.671875 38.921875 
L 32.078125 38.921875 
Q 39.203125 38.921875 42.84375 42.21875 
Q 46.484375 45.515625 46.484375 51.90625 
Q 46.484375 58.296875 42.84375 61.546875 
Q 39.203125 64.796875 32.078125 64.796875 
z
" id="DejaVuSans-82"/>
       <path d="M 34.1875 63.1875 
L 20.796875 26.90625 
L 47.609375 26.90625 
z
M 28.609375 72.90625 
L 39.796875 72.90625 
L 67.578125 0 
L 57.328125 0 
L 50.6875 18.703125 
L 17.828125 18.703125 
L 11.1875 0 
L 0.78125 0 
z
" id="DejaVuSans-65"/>
      </defs>
      <use xlink:href="#DejaVuSans-82"/>
      <use x="65.482422" xlink:href="#DejaVuSans-65"/>
      <use x="133.890625" xlink:href="#DejaVuSans-77"/>
     </g>
    </g>
   </g>
  </g>
 </g>
 <defs>
  <clipPath id="p8355d26af5">
   <rect height="266.112" width="357.12" x="57.6" y="41.472"/>
  </clipPath>
 </defs>
</svg>
